SplineFontDB: 3.2
FontName: TDATextCondensed
FullName: TDAText Condensed
FamilyName: TDAText Condensed
Weight: Regular
Copyright: Copyright (c) 2024 Dmitry Tretyakov\n\nBased on Philips SAA52XX/SAA55XX/TDA93XX IC character set:\nCopyright (c) 1993-2001 NXP Semiconductors N.V.
UComments: "TDAText teletext-styled font family based on Philips SAA52XX/SAA55XX/TDA93XX IC character set and adapted for use in computer printing systems.+AAoACgAA-The font contains punctuation marks, Latin letters and Cyrillic letters.+AAoACgAA-However, the software behind these integrated circuits for TVs as especially popular in the late 90s and early 2000s. For example, Samsung often used these chips in CRT TVs built on the KS1A, KS9A/B, KS16A/C chassis."
Version: 0.1.0.20240708-1217
ItalicAngle: 0
UnderlinePosition: -100
UnderlineWidth: 50
Ascent: 800
Descent: 200
InvalidEm: 0
LayerCount: 2
Layer: 0 0 "+BBcEMAQ0BD0EOAQ5 +BD8EOwQwBD0A" 1
Layer: 1 0 "+BB8ENQRABDUENAQ9BDgEOQAA +BD8EOwQwBD0A" 0
XUID: [1021 427 478162242 4809]
StyleMap: 0x0000
FSType: 0
OS2Version: 0
OS2_WeightWidthSlopeOnly: 0
OS2_UseTypoMetrics: 1
CreationTime: 1720191932
ModificationTime: 1720430358
PfmFamily: 17
TTFWeight: 400
TTFWidth: 5
LineGap: 90
VLineGap: 90
OS2TypoAscent: 0
OS2TypoAOffset: 1
OS2TypoDescent: 0
OS2TypoDOffset: 1
OS2TypoLinegap: 90
OS2WinAscent: 0
OS2WinAOffset: 1
OS2WinDescent: 0
OS2WinDOffset: 1
HheadAscent: 0
HheadAOffset: 1
HheadDescent: 0
HheadDOffset: 1
OS2Vendor: 'PfEd'
MarkAttachClasses: 1
DEI: 91125

StartChar: exclam
Encoding: 33 33 4
Width: 760
Flags: HW
HStem: 0 100<410 510> 680 20G<410 510>
VStem: 410 100<0 100 200 700>
LayerCount: 2
Back
Fore
SplineSet
327 700 m 13
 349 700 371 700 393 700 c 25
 393 533 393 367 393 200 c 25
 371 200 349 200 327 200 c 25
 327 367 327 533 327 700 c 13
393 0 m 9
 371 0 349 0 327 0 c 1
 327 33 327 67 327 100 c 25
 349 100 371 100 393 100 c 1
 393 67 393 33 393 0 c 9
EndSplineSet
EndChar

StartChar: asterisk
Encoding: 42 42 5
Width: 760
Flags: HW
HStem: 0 21G<410 510> 100 100<210 260 660 710> 300 100<360 410 510 560> 500 100<210 260 660 710> 680 20G<410 510>
VStem: 210 100<100 200 500 600> 260 100<200 300 400 500> 410 100<0 300 400 700> 560 100<200 300 400 500> 610 100<100 200 500 600>
LayerCount: 2
Back
Fore
SplineSet
193 600 m 13
 215 600 238 600 260 600 c 25
 260 567 260 533 260 500 c 25
 271 500 282 500 293 500 c 25
 293 467 293 433 293 400 c 25
 304 400 316 400 327 400 c 25
 327 500 327 600 327 700 c 25
 349 700 371 700 393 700 c 25
 393 600 393 500 393 400 c 25
 404 400 416 400 427 400 c 25
 427 433 427 467 427 500 c 25
 438 500 449 500 460 500 c 25
 460 533 460 567 460 600 c 25
 482 600 505 600 527 600 c 25
 527 567 527 533 527 500 c 25
 516 500 504 500 493 500 c 25
 493 467 493 433 493 400 c 25
 482 400 471 400 460 400 c 25
 460 367 460 333 460 300 c 25
 471 300 482 300 493 300 c 25
 493 267 493 233 493 200 c 25
 504 200 516 200 527 200 c 25
 527 167 527 133 527 100 c 25
 505 100 482 100 460 100 c 25
 460 133 460 167 460 200 c 25
 449 200 438 200 427 200 c 25
 427 233 427 267 427 300 c 25
 416 300 404 300 393 300 c 25
 393 200 393 100 393 0 c 25
 371 0 349 0 327 0 c 25
 327 100 327 200 327 300 c 25
 316 300 304 300 293 300 c 25
 293 267 293 233 293 200 c 25
 282 200 271 200 260 200 c 25
 260 167 260 133 260 100 c 25
 238 100 215 100 193 100 c 25
 193 133 193 167 193 200 c 25
 204 200 216 200 227 200 c 25
 227 233 227 267 227 300 c 25
 238 300 249 300 260 300 c 25
 260 333 260 367 260 400 c 25
 249 400 238 400 227 400 c 25
 227 433 227 467 227 500 c 25
 216 500 204 500 193 500 c 25
 193 533 193 567 193 600 c 13
EndSplineSet
EndChar

StartChar: plus
Encoding: 43 43 6
Width: 760
Flags: HW
HStem: 250 100<260 410 510 660>
VStem: 410 100<50 250 350 550>
LayerCount: 2
Back
Fore
SplineSet
327 550 m 13
 349 550 371 550 393 550 c 25
 393 483 393 417 393 350 c 25
 426 350 460 350 493 350 c 25
 493 317 493 283 493 250 c 25
 460 250 426 250 393 250 c 25
 393 183 393 117 393 50 c 25
 371 50 349 50 327 50 c 25
 327 117 327 183 327 250 c 25
 294 250 260 250 227 250 c 25
 227 283 227 317 227 350 c 25
 260 350 294 350 327 350 c 25
 327 417 327 483 327 550 c 13
EndSplineSet
EndChar

StartChar: comma
Encoding: 44 44 7
Width: 760
Flags: HW
HStem: -200 100<359 409> 0 100<359 409>
VStem: 359 100<-200 -100> 409 100<-100 0>
LayerCount: 2
Back
Fore
SplineSet
293 -100 m 5
 304 -100 315 -100 326 -100 c 29
 326 -67 326 -33 326 0 c 5
 315 0 304 0 293 0 c 29
 293 33 293 67 293 100 c 29
 326 100 360 100 393 100 c 29
 393 33 393 -33 393 -100 c 29
 382 -100 370 -100 359 -100 c 29
 359 -133 359 -167 359 -200 c 29
 337 -200 315 -200 293 -200 c 29
 293 -167 293 -133 293 -100 c 5
EndSplineSet
EndChar

StartChar: hyphen
Encoding: 45 45 8
Width: 760
Flags: HW
HStem: 250 100<260 660>
LayerCount: 2
Back
Fore
SplineSet
227 250 m 13
 227 283 227 317 227 350 c 25
 316 350 404 350 493 350 c 25
 493 317 493 283 493 250 c 25
 404 250 316 250 227 250 c 13
EndSplineSet
EndChar

StartChar: period
Encoding: 46 46 9
Width: 760
Flags: HW
HStem: 0 100<410 510>
VStem: 410 100<0 100>
LayerCount: 2
Back
Fore
SplineSet
393 0 m 13
 371 0 349 0 327 0 c 29
 327 33 327 67 327 100 c 29
 349 100 371 100 393 100 c 29
 393 67 393 33 393 0 c 13
EndSplineSet
EndChar

StartChar: slash
Encoding: 47 47 10
Width: 760
Flags: HW
HStem: 0 100<260 310> 600 100<610 660>
VStem: 260 100<0 100> 310 100<100 200> 360 100<200 300> 410 100<300 400> 460 100<400 500> 510 100<500 600> 560 100<600 700>
LayerCount: 2
Back
Fore
SplineSet
427 700 m 13
 449 700 471 700 493 700 c 25
 493 667 493 633 493 600 c 25
 482 600 471 600 460 600 c 25
 460 567 460 533 460 500 c 25
 449 500 438 500 427 500 c 25
 427 467 427 433 427 400 c 25
 416 400 404 400 393 400 c 25
 393 367 393 333 393 300 c 25
 382 300 371 300 360 300 c 25
 360 267 360 233 360 200 c 25
 349 200 338 200 327 200 c 25
 327 167 327 133 327 100 c 25
 316 100 304 100 293 100 c 25
 293 67 293 33 293 0 c 25
 271 0 249 0 227 0 c 25
 227 33 227 67 227 100 c 25
 238 100 249 100 260 100 c 25
 260 133 260 167 260 200 c 25
 271 200 282 200 293 200 c 25
 293 233 293 267 293 300 c 25
 304 300 316 300 327 300 c 25
 327 333 327 367 327 400 c 25
 338 400 349 400 360 400 c 25
 360 433 360 467 360 500 c 25
 371 500 382 500 393 500 c 25
 393 533 393 567 393 600 c 25
 404 600 416 600 427 600 c 25
 427 633 427 667 427 700 c 13
EndSplineSet
EndChar

StartChar: zero
Encoding: 48 48 11
Width: 760
Flags: HW
HStem: 0 100<410 560> 600 100<410 560>
VStem: 260 150<100 600> 560 150<100 600>
LayerCount: 2
Back
Fore
SplineSet
427 600 m 13
 394 600 360 600 327 600 c 25
 327 433 327 267 327 100 c 25
 360 100 394 100 427 100 c 25
 427 267 427 433 427 600 c 13
260 700 m 9
 338 700 415 700 493 700 c 25
 493 667 493 633 493 600 c 25
 504 600 516 600 527 600 c 25
 527 433 527 267 527 100 c 25
 516 100 504 100 493 100 c 25
 493 67 493 33 493 0 c 25
 415 0 338 0 260 0 c 25
 260 33 260 67 260 100 c 25
 249 100 238 100 227 100 c 25
 227 267 227 433 227 600 c 25
 238 600 249 600 260 600 c 25
 260 633 260 667 260 700 c 9
EndSplineSet
EndChar

StartChar: one
Encoding: 49 49 12
Width: 760
Flags: HW
HStem: 0 21G<460 610> 500 100<360 460> 680 20G<460 610>
VStem: 460 150<0 500 600 700>
LayerCount: 2
Back
Fore
SplineSet
293 500 m 13
 293 533 293 567 293 600 c 29
 315 600 338 600 360 600 c 29
 360 633 360 667 360 700 c 29
 393 700 427 700 460 700 c 29
 460 467 460 233 460 0 c 29
 427 0 393 0 360 0 c 29
 360 167 360 333 360 500 c 29
 338 500 315 500 293 500 c 13
EndSplineSet
EndChar

StartChar: two
Encoding: 50 50 13
Width: 760
Flags: HW
HStem: 0 100<260 310 510 710> 500 100<260 310> 600 100<360 560>
VStem: 260 100<500 600> 510 150<300 400> 560 150<400 600>
LayerCount: 2
Back
Fore
SplineSet
293 500 m 13
 271 500 249 500 227 500 c 1
 227 533 227 567 227 600 c 25
 238 600 249 600 260 600 c 25
 260 633 260 667 260 700 c 25
 338 700 415 700 493 700 c 25
 493 667 493 633 493 600 c 25
 504 600 516 600 527 600 c 25
 527 533 527 467 527 400 c 25
 516 400 504 400 493 400 c 25
 493 367 493 333 493 300 c 25
 482 300 471 300 460 300 c 25
 460 267 460 233 460 200 c 25
 438 200 415 200 393 200 c 25
 393 167 393 133 393 100 c 25
 437 100 483 100 527 100 c 25
 527 67 527 33 527 0 c 25
 427 0 327 0 227 0 c 25
 227 33 227 67 227 100 c 25
 238 100 249 100 260 100 c 25
 260 133 260 167 260 200 c 25
 282 200 305 200 327 200 c 25
 327 233 327 267 327 300 c 25
 349 300 371 300 393 300 c 25
 393 333 393 367 393 400 c 25
 404 400 416 400 427 400 c 25
 427 467 427 533 427 600 c 25
 383 600 337 600 293 600 c 1
 293 567 293 533 293 500 c 13
EndSplineSet
EndChar

StartChar: three
Encoding: 51 51 14
Width: 760
Flags: HW
HStem: 0 100<260 610> 300 100<410 510> 600 100<260 560 660 710>
VStem: 510 100<400 500> 560 100<500 600> 610 100<100 300>
CounterMasks: 1 e0
LayerCount: 2
Back
Fore
SplineSet
227 700 m 13
 327 700 427 700 527 700 c 25
 527 667 527 633 527 600 c 25
 516 600 504 600 493 600 c 25
 493 567 493 533 493 500 c 25
 482 500 471 500 460 500 c 25
 460 467 460 433 460 400 c 25
 482 400 505 400 527 400 c 25
 527 300 527 200 527 100 c 25
 516 100 504 100 493 100 c 25
 493 67 493 33 493 0 c 25
 404 0 316 0 227 0 c 25
 227 33 227 67 227 100 c 25
 305 100 382 100 460 100 c 25
 460 167 460 233 460 300 c 25
 416 300 371 300 327 300 c 25
 327 333 327 367 327 400 c 25
 349 400 371 400 393 400 c 25
 393 433 393 467 393 500 c 25
 404 500 416 500 427 500 c 25
 427 533 427 567 427 600 c 25
 360 600 294 601 227 601 c 25
 227 634 227 667 227 700 c 13
EndSplineSet
EndChar

StartChar: four
Encoding: 52 52 15
Width: 760
Flags: HW
HStem: 0 21G<560 710> 100 100<410 560> 600 100<660 710>
VStem: 260 150<200 300> 310 150<300 400> 410 150<400 500> 560 150<0 100 200 300 600 700>
LayerCount: 2
Back
Fore
SplineSet
427 700 m 13
 460 700 494 700 527 700 c 25
 527 667 527 633 527 600 c 25
 516 600 504 600 493 600 c 25
 493 567 493 533 493 500 c 25
 471 500 449 500 427 500 c 25
 427 467 427 433 427 400 c 25
 405 400 382 400 360 400 c 25
 360 367 360 333 360 300 c 25
 349 300 338 300 327 300 c 25
 327 267 327 233 327 200 c 25
 360 200 394 200 427 200 c 25
 427 233 427 267 427 300 c 25
 460 300 494 300 527 300 c 25
 527 200 527 100 527 0 c 25
 494 0 460 0 427 0 c 25
 427 33 427 67 427 100 c 25
 360 100 294 100 227 100 c 25
 227 167 227 233 227 300 c 25
 238 300 249 300 260 300 c 25
 260 333 260 367 260 400 c 25
 282 400 305 400 327 400 c 25
 327 433 327 467 327 500 c 25
 338 500 349 500 360 500 c 25
 360 533 360 567 360 600 c 25
 382 600 405 600 427 600 c 25
 427 633 427 667 427 700 c 13
EndSplineSet
EndChar

StartChar: five
Encoding: 53 53 16
Width: 760
Flags: HW
HStem: 0 100<360 560> 100 100<260 310> 300 100<360 560> 600 100<360 660>
VStem: 260 100<100 200 400 600> 560 150<100 300>
LayerCount: 2
Back
Fore
SplineSet
493 700 m 13
 493 667 493 633 493 600 c 25
 426 600 360 600 293 600 c 25
 293 533 293 467 293 400 c 25
 360 400 426 400 493 400 c 25
 493 367 493 333 493 300 c 25
 504 300 516 300 527 300 c 25
 527 233 527 167 527 100 c 25
 516 100 504 100 493 100 c 25
 493 67 493 33 493 0 c 25
 415 0 338 0 260 0 c 25
 260 33 260 67 260 100 c 25
 249 100 238 100 227 100 c 25
 227 133 227 167 227 200 c 25
 249 200 271 200 293 200 c 25
 293 167 293 133 293 100 c 25
 337 100 383 100 427 100 c 25
 427 167 427 233 427 300 c 25
 360 300 294 300 227 300 c 25
 227 433 227 567 227 700 c 25
 316 700 404 700 493 700 c 13
EndSplineSet
EndChar

StartChar: six
Encoding: 54 54 17
Width: 760
Flags: HW
HStem: 0 100<409 610> 300 100<460 610> 600 100<510 560>
VStem: 260 149<100 300> 310 150<400 500> 360 150<500 600> 410 150<600 700> 610 100<100 300>
CounterMasks: 1 e0
LayerCount: 2
Back
Fore
SplineSet
460 300 m 13
 415 300 371 300 326 300 c 25
 326 233 326 167 326 100 c 25
 371 100 415 100 460 100 c 25
 460 167 460 233 460 300 c 13
427 700 m 9
 427 667 427 633 427 600 c 25
 416 600 404 600 393 600 c 25
 393 567 393 533 393 500 c 25
 382 500 371 500 360 500 c 25
 360 467 360 433 360 400 c 25
 404 400 449 400 493 400 c 25
 493 367 493 333 493 300 c 25
 504 300 516 300 527 300 c 25
 527 233 527 167 527 100 c 25
 516 100 504 100 493 100 c 25
 493 67 493 33 493 0 c 25
 415 0 338 0 260 0 c 25
 260 33 260 67 260 100 c 25
 249 100 238 100 227 100 c 25
 227 200 227 300 227 400 c 25
 238 400 249 400 260 400 c 25
 260 433 260 467 260 500 c 25
 271 500 282 500 293 500 c 25
 293 533 293 567 293 600 c 25
 304 600 316 600 327 600 c 25
 327 633 327 667 327 700 c 25
 360 700 394 700 427 700 c 9
EndSplineSet
EndChar

StartChar: seven
Encoding: 55 55 18
Width: 760
Flags: HW
HStem: 0 100<260 310> 600 100<210 510 660 710>
VStem: 260 150<0 100> 310 150<100 200> 360 150<200 300> 410 150<300 400> 460 150<400 500> 510 150<500 600>
LayerCount: 2
Back
Fore
SplineSet
193 700 m 1
 304 700 416 700 527 700 c 25
 527 667 527 633 527 600 c 25
 516 600 504 600 493 600 c 25
 493 567 493 533 493 500 c 25
 482 500 471 500 460 500 c 25
 460 467 460 433 460 400 c 25
 449 400 438 400 427 400 c 25
 427 367 427 333 427 300 c 25
 416 300 404 300 393 300 c 25
 393 267 393 233 393 200 c 25
 382 200 371 200 360 200 c 25
 360 167 360 133 360 100 c 25
 349 100 338 100 327 100 c 25
 327 67 327 33 327 0 c 25
 294 0 260 0 227 0 c 25
 227 33 227 67 227 100 c 25
 238 100 249 100 260 100 c 25
 260 133 260 167 260 200 c 25
 271 200 282 200 293 200 c 25
 293 233 293 267 293 300 c 25
 304 300 316 300 327 300 c 25
 327 333 327 367 327 400 c 25
 338 400 349 400 360 400 c 25
 360 433 360 467 360 500 c 25
 371 500 382 500 393 500 c 25
 393 533 393 567 393 600 c 1
 326 600 260 600 193 600 c 25
 193 633 193 667 193 700 c 1
EndSplineSet
EndChar

StartChar: eight
Encoding: 56 56 19
Width: 760
Flags: HW
HStem: 0 100<410 560> 300 100<410 560> 600 100<410 560>
VStem: 260 150<100 300 400 600> 560 150<100 300 400 600>
CounterMasks: 1 e0
LayerCount: 2
Back
Fore
SplineSet
327 100 m 13
 360 100 394 100 427 100 c 25
 427 167 427 233 427 300 c 25
 394 300 360 300 327 300 c 25
 327 233 327 167 327 100 c 13
327 600 m 9
 327 533 327 467 327 400 c 25
 360 400 394 400 427 400 c 25
 427 467 427 533 427 600 c 25
 394 600 360 600 327 600 c 9
260 700 m 9
 338 700 415 700 493 700 c 25
 493 667 493 633 493 600 c 25
 504 600 516 600 527 600 c 25
 527 533 527 467 527 400 c 25
 505 400 482 400 460 400 c 25
 460 367 460 333 460 300 c 25
 482 300 505 300 527 300 c 25
 527 233 527 167 527 100 c 25
 516 100 504 100 493 100 c 25
 493 67 493 33 493 0 c 25
 415 0 338 0 260 0 c 25
 260 33 260 67 260 100 c 25
 249 100 238 100 227 100 c 25
 227 167 227 233 227 300 c 25
 249 300 271 300 293 300 c 25
 293 333 293 367 293 400 c 25
 271 400 249 400 227 400 c 25
 227 467 227 533 227 600 c 25
 238 600 249 600 260 600 c 25
 260 633 260 667 260 700 c 9
EndSplineSet
EndChar

StartChar: nine
Encoding: 57 57 20
Width: 760
Flags: HW
HStem: 0 100<410 460> 300 100<360 510> 600 100<360 560>
VStem: 260 100<400 600> 410 150<0 100> 460 150<100 200> 510 150<200 300> 560 150<400 600>
CounterMasks: 1 e0
LayerCount: 2
Back
Fore
SplineSet
293 600 m 13
 293 533 293 467 293 400 c 25
 337 400 383 400 427 400 c 25
 427 467 427 533 427 600 c 25
 383 600 337 600 293 600 c 13
260 600 m 9
 260 633 260 667 260 700 c 25
 338 700 415 700 493 700 c 25
 493 667 493 633 493 600 c 25
 504 600 516 600 527 600 c 25
 527 500 527 400 527 300 c 25
 516 300 504 300 493 300 c 25
 493 267 493 233 493 200 c 25
 482 200 471 200 460 200 c 25
 460 167 460 133 460 100 c 25
 449 100 438 100 427 100 c 25
 427 67 427 33 427 0 c 25
 394 0 360 0 327 0 c 25
 327 33 327 67 327 100 c 25
 338 100 349 100 360 100 c 25
 360 133 360 167 360 200 c 25
 371 200 382 200 393 200 c 25
 393 233 393 267 393 300 c 25
 349 300 304 300 260 300 c 25
 260 333 260 367 260 400 c 25
 249 400 238 400 227 400 c 25
 227 467 227 533 227 600 c 25
 238 600 249 600 260 600 c 9
EndSplineSet
EndChar

StartChar: colon
Encoding: 58 58 21
Width: 760
Flags: HW
HStem: 0 21G<410 510> 480 20G<410 509.1>
VStem: 410 100<0 200 300 500>
LayerCount: 2
Back
Fore
SplineSet
327 200 m 13
 349 200 371 200 393 200 c 25
 393 133 393 67 393 0 c 25
 371 0 349 0 327 0 c 25
 327 67 327 133 327 200 c 13
327 500 m 9
 349 500 371 500 393 500 c 25
 393 433 393 367 393 300 c 25
 371 300 349 300 327 300 c 25
 327 367 327 433 327 500 c 9
EndSplineSet
EndChar

StartChar: semicolon
Encoding: 59 59 22
Width: 760
Flags: HW
HStem: -200 100<360 410> 480 20G<410 510>
VStem: 360 100<-200 -100> 410 100<-100 100 300 500>
LayerCount: 2
Back
Fore
SplineSet
327 100 m 1
 349 100 371 100 393 100 c 25
 393 33 393 -33 393 -100 c 1
 382 -100 371 -100 360 -100 c 25
 360 -133 360 -167 360 -200 c 25
 338 -200 315 -200 293 -200 c 25
 293 -167 293 -133 293 -100 c 25
 304 -100 316 -100 327 -100 c 25
 327 -33 327 33 327 100 c 1
327 500 m 9
 349 500 371 500 393 500 c 25
 393 433 393 367 393 300 c 25
 371 300 349 300 327 300 c 25
 327 367 327 433 327 500 c 9
EndSplineSet
EndChar

StartChar: less
Encoding: 60 60 23
Width: 760
Flags: HW
HStem: 0 100<610 710> 100 100<510 560> 200 100<410 460> 300 100<260 360> 400 100<410 460> 500 100<510 560> 600 100<610 710>
VStem: 260 150<300 400> 360 150<200 300 400 500> 460 150<100 200 500 600> 560 150<0 100 600 700>
LayerCount: 2
Back
Fore
SplineSet
427 700 m 13
 460 700 494 700 527 700 c 25
 527 667 527 633 527 600 c 25
 505 600 482 600 460 600 c 25
 460 567 460 533 460 500 c 25
 438 500 415 500 393 500 c 25
 393 467 393 433 393 400 c 25
 371 400 349 400 327 400 c 25
 327 367 327 333 327 300 c 25
 349 300 371 300 393 300 c 25
 393 267 393 233 393 200 c 25
 415 200 438 200 460 200 c 25
 460 167 460 133 460 100 c 25
 482 100 505 100 527 100 c 25
 527 67 527 33 527 0 c 25
 494 0 460 0 427 0 c 25
 427 33 427 67 427 100 c 25
 405 100 382 100 360 100 c 25
 360 133 360 167 360 200 c 25
 338 200 315 200 293 200 c 25
 293 233 293 267 293 300 c 25
 271 300 249 300 227 300 c 25
 227 333 227 367 227 400 c 25
 249 400 271 400 293 400 c 25
 293 433 293 467 293 500 c 25
 315 500 338 500 360 500 c 25
 360 533 360 567 360 600 c 25
 382 600 405 600 427 600 c 25
 427 633 427 667 427 700 c 13
EndSplineSet
EndChar

StartChar: equal
Encoding: 61 61 24
Width: 760
Flags: HW
HStem: 200 100<260 660> 400 100<260 660>
LayerCount: 2
Back
Fore
SplineSet
227 500 m 13
 316 500 404 500 493 500 c 25
 493 467 493 433 493 400 c 25
 404 400 316 400 227 400 c 25
 227 433 227 467 227 500 c 13
227 300 m 9
 316 300 404 300 493 300 c 25
 493 267 493 233 493 200 c 25
 404 200 316 200 227 200 c 25
 227 233 227 267 227 300 c 9
EndSplineSet
EndChar

StartChar: greater
Encoding: 62 62 25
Width: 760
Flags: HW
HStem: 0 100<260 360> 100 100<410 460> 200 100<510 560> 300 100<610 710> 400 100<510 560> 500 100<410 460> 600 100<260 360>
VStem: 260 150<0 100 600 700> 360 150<100 200 500 600> 460 150<200 300 400 500> 560 150<300 400>
LayerCount: 2
Back
Fore
SplineSet
227 600 m 13
 227 633 227 667 227 700 c 25
 260 700 294 700 327 700 c 25
 327 667 327 633 327 600 c 25
 349 600 371 600 393 600 c 25
 393 567 393 533 393 500 c 25
 415 500 438 500 460 500 c 25
 460 467 460 433 460 400 c 25
 482 400 505 400 527 400 c 25
 527 367 527 333 527 300 c 25
 505 300 482 300 460 300 c 25
 460 267 460 233 460 200 c 25
 438 200 415 200 393 200 c 25
 393 167 393 133 393 100 c 25
 371 100 349 100 327 100 c 25
 327 67 327 33 327 0 c 25
 294 0 260 0 227 0 c 25
 227 33 227 67 227 100 c 25
 249 100 271 100 293 100 c 25
 293 133 293 167 293 200 c 25
 315 200 338 200 360 200 c 25
 360 233 360 267 360 300 c 25
 382 300 405 300 427 300 c 25
 427 333 427 367 427 400 c 25
 405 400 382 400 360 400 c 25
 360 433 360 467 360 500 c 25
 338 500 315 500 293 500 c 25
 293 533 293 567 293 600 c 25
 271 600 249 600 227 600 c 13
EndSplineSet
EndChar

StartChar: question
Encoding: 63 63 26
Width: 760
Flags: HW
HStem: 0 100<460 560> 200 100<460 560> 300 100<560 610> 600 100<360 610>
VStem: 260 100<400 600> 460 100<0 100 200 300> 560 100<300 400> 610 100<400 600>
LayerCount: 2
Back
Fore
SplineSet
360 300 m 1
 382 300 405 300 427 300 c 1
 427 267 427 233 427 200 c 1
 405 200 382 200 360 200 c 1
 360 233 360 267 360 300 c 1
427 0 m 9
 405 0 382 0 360 0 c 1
 360 33 360 67 360 100 c 25
 382 100 405 100 427 100 c 1
 427 67 427 33 427 0 c 9
227 600 m 9
 238 600 249 600 260 600 c 25
 260 633 260 667 260 700 c 25
 338 700 415 700 493 700 c 25
 493 667 493 633 493 600 c 25
 504 600 516 600 527 600 c 25
 527 533 527 467 527 400 c 25
 516 400 504 400 493 400 c 25
 493 367 493 333 493 300 c 25
 471 300 449 300 427 300 c 25
 427 333 427 367 427 400 c 25
 438 400 449 400 460 400 c 25
 460 467 460 533 460 600 c 25
 404 600 349 600 293 600 c 25
 293 533 293 467 293 400 c 25
 271 400 249 400 227 400 c 25
 227 467 227 533 227 600 c 9
EndSplineSet
EndChar

StartChar: at
Encoding: 64 64 27
Width: 760
Flags: HW
HStem: -100 100<360 660> 100 100<510 610> 400 100<510 610> 600 100<360 610>
VStem: 210 100<100 500> 260 100<0 100 500 600> 410 100<200 400> 460 250<100 200 400 500> 610 100<200 400 500 600>
LayerCount: 2
Back
Fore
SplineSet
393 400 m 13
 393 333 393 267 393 200 c 25
 415 200 438 200 460 200 c 25
 460 267 460 333 460 400 c 25
 438 400 415 400 393 400 c 13
260 600 m 9
 260 633 260 667 260 700 c 25
 338 700 415 700 493 700 c 25
 493 667 493 633 493 600 c 25
 504 600 516 600 527 600 c 25
 527 433 527 267 527 100 c 25
 471 100 416 100 360 100 c 25
 360 133 360 167 360 200 c 25
 349 200 338 200 327 200 c 25
 327 267 327 333 327 400 c 25
 338 400 349 400 360 400 c 25
 360 433 360 467 360 500 c 25
 393 500 427 500 460 500 c 25
 460 533 460 567 460 600 c 25
 404 600 349 600 293 600 c 25
 293 567 293 533 293 500 c 25
 282 500 271 500 260 500 c 25
 260 367 260 233 260 100 c 25
 271 100 282 100 293 100 c 25
 293 67 293 33 293 0 c 25
 360 0 426 0 493 0 c 25
 493 -33 493 -67 493 -100 c 25
 415 -100 338 -100 260 -100 c 25
 260 -67 260 -33 260 0 c 25
 249 0 238 0 227 0 c 25
 227 33 227 67 227 100 c 25
 216 100 204 100 193 100 c 25
 193 233 193 367 193 500 c 25
 204 500 216 500 227 500 c 25
 227 533 227 567 227 600 c 25
 238 600 249 600 260 600 c 9
EndSplineSet
EndChar

StartChar: A
Encoding: 65 65 28
Width: 760
Flags: HW
HStem: 0 21G<210 310 610 710> 200 100<310 610> 600 100<410 510>
VStem: 210 100<0 200 300 400> 260 100<400 500> 310 100<500 600> 510 100<500 600> 560 100<400 500> 610 100<0 200 300 400>
LayerCount: 2
Back
Fore
SplineSet
260 400 m 13
 260 367 260 333 260 300 c 25
 327 300 393 300 460 300 c 25
 460 333 460 367 460 400 c 25
 449 400 438 400 427 400 c 25
 427 433 427 467 427 500 c 25
 416 500 404 500 393 500 c 25
 393 533 393 567 393 600 c 25
 371 600 349 600 327 600 c 25
 327 567 327 533 327 500 c 25
 316 500 304 500 293 500 c 25
 293 467 293 433 293 400 c 25
 282 400 271 400 260 400 c 13
260 0 m 9
 238 0 215 0 193 0 c 25
 193 133 193 267 193 400 c 25
 204 400 216 400 227 400 c 25
 227 433 227 467 227 500 c 25
 238 500 249 500 260 500 c 25
 260 533 260 567 260 600 c 25
 271 600 282 600 293 600 c 25
 293 633 293 667 293 700 c 25
 337 700 382 700 426 700 c 25
 426 667 427 633 427 600 c 25
 438 600 449 600 460 600 c 25
 460 567 460 533 460 500 c 25
 471 500 482 500 493 500 c 25
 493 467 493 433 493 400 c 25
 504 400 516 400 527 400 c 25
 527 267 527 133 527 0 c 25
 505 0 482 0 460 0 c 25
 460 67 460 133 460 200 c 25
 393 200 327 200 260 200 c 25
 260 133 260 67 260 0 c 9
EndSplineSet
EndChar

StartChar: B
Encoding: 66 66 29
Width: 760
Flags: HW
HStem: 0 100<360 610> 300 100<360 610> 600 100<360 610>
VStem: 260 400<0 100 300 400 600 700> 260 100<100 300 400 600> 610 100<100 300 400 600>
CounterMasks: 1 e0
LayerCount: 2
Back
Fore
SplineSet
293 600 m 13
 293 533 293 467 293 400 c 25
 349 400 404 400 460 400 c 25
 460 467 460 533 460 600 c 25
 404 600 349 600 293 600 c 13
293 300 m 9
 293 233 293 167 293 100 c 25
 349 100 404 100 460 100 c 25
 460 167 460 233 460 300 c 25
 404 300 349 300 293 300 c 9
227 0 m 9
 227 233 227 467 227 700 c 25
 316 700 404 700 493 700 c 25
 493 667 493 633 493 600 c 25
 504 600 516 600 527 600 c 25
 527 533 527 467 527 400 c 25
 516 400 504 400 493 400 c 25
 493 367 493 333 493 300 c 25
 504 300 516 300 527 300 c 25
 527 233 527 167 527 100 c 25
 516 100 504 100 493 100 c 25
 493 67 493 33 493 0 c 25
 404 0 316 0 227 0 c 9
EndSplineSet
EndChar

StartChar: C
Encoding: 67 67 30
Width: 760
Flags: HW
HStem: 0 100<410 610> 100 100<660 710> 500 100<660 710> 600 100<410 610>
VStem: 260 100<200 500> 310 100<100 200 500 600> 360 300<0 100 600 700> 610 100<100 200 500 600>
LayerCount: 2
Back
Fore
SplineSet
293 700 m 13
 360 700 426 700 493 700 c 25
 493 667 493 633 493 600 c 25
 504 600 516 600 527 600 c 25
 527 567 527 533 527 500 c 25
 505 500 482 500 460 500 c 25
 460 533 460 567 460 600 c 25
 416 600 371 600 327 600 c 25
 327 567 327 533 327 500 c 25
 316 500 304 500 293 500 c 25
 293 400 293 300 293 200 c 25
 304 200 316 200 327 200 c 25
 327 167 327 133 327 100 c 25
 371 100 416 100 460 100 c 25
 460 133 460 167 460 200 c 25
 482 200 505 200 527 200 c 25
 527 167 527 133 527 100 c 25
 516 100 504 100 493 100 c 25
 493 67 493 33 493 0 c 25
 426 0 360 0 293 0 c 25
 293 33 293 67 293 100 c 25
 282 100 271 100 260 100 c 25
 260 133 260 167 260 200 c 25
 249 200 238 200 227 200 c 25
 227 300 227 400 227 500 c 25
 238 500 249 500 260 500 c 25
 260 533 260 567 260 600 c 25
 271 600 282 600 293 600 c 25
 293 633 293 667 293 700 c 13
EndSplineSet
EndChar

StartChar: D
Encoding: 68 68 31
Width: 760
Flags: HW
HStem: 0 100<360 560> 600 100<360 560>
VStem: 260 100<100 600> 560 100<100 200 500 600> 610 100<200 500>
LayerCount: 2
Back
Fore
SplineSet
293 600 m 13
 293 433 293 267 293 100 c 25
 337 100 383 100 427 100 c 25
 427 133 427 167 427 200 c 25
 438 200 449 200 460 200 c 25
 460 300 460 400 460 500 c 25
 449 500 438 500 427 500 c 25
 427 533 427 567 427 600 c 25
 383 600 337 600 293 600 c 13
227 700 m 9
 305 700 382 700 460 700 c 25
 460 667 460 633 460 600 c 25
 471 600 482 600 493 600 c 25
 493 567 493 533 493 500 c 25
 504 500 516 500 527 500 c 25
 527 400 527 300 527 200 c 25
 516 200 504 200 493 200 c 25
 493 167 493 133 493 100 c 25
 482 100 471 100 460 100 c 25
 460 67 460 33 460 0 c 25
 382 0 305 0 227 0 c 25
 227 233 227 467 227 700 c 9
EndSplineSet
EndChar

StartChar: E
Encoding: 69 69 32
Width: 760
Flags: HW
HStem: 0 100<360 710> 300 100<360 610> 600 100<360 710>
VStem: 260 100<100 300 400 600>
CounterMasks: 1 e0
LayerCount: 2
Back
Fore
SplineSet
527 600 m 13
 449 600 371 600 293 600 c 25
 293 533 293 467 293 400 c 25
 349 400 404 400 460 400 c 25
 460 367 460 333 460 300 c 25
 404 300 349 300 293 300 c 25
 293 233 293 167 293 100 c 25
 371 100 449 100 527 100 c 25
 527 67 527 33 527 0 c 25
 427 0 327 0 227 0 c 25
 227 233 227 467 227 700 c 25
 327 700 427 700 527 700 c 25
 527 667 527 633 527 600 c 13
EndSplineSet
EndChar

StartChar: F
Encoding: 70 70 33
Width: 760
Flags: HW
HStem: 0 21G<260 360> 300 100<360 610> 600 100<360 710>
VStem: 260 100<0 300 400 600>
LayerCount: 2
Back
Fore
SplineSet
293 0 m 13
 271 0 249 0 227 0 c 25
 227 233 227 467 227 700 c 25
 327 700 427 700 527 700 c 25
 527 667 527 633 527 600 c 25
 449 600 371 600 293 600 c 25
 293 533 293 467 293 400 c 25
 349 400 404 400 460 400 c 25
 460 367 460 333 460 300 c 25
 404 300 349 300 293 300 c 25
 293 200 293 100 293 0 c 13
EndSplineSet
EndChar

StartChar: G
Encoding: 71 71 34
Width: 760
Flags: HW
HStem: 0 100<360 610> 200 100<460 610> 500 100<660 710> 600 100<360 610>
VStem: 260 100<100 600> 610 100<100 200 500 600>
LayerCount: 2
Back
Fore
SplineSet
460 600 m 13
 404 600 349 600 293 600 c 25
 293 433 293 267 293 100 c 25
 349 100 404 100 460 100 c 25
 460 133 460 167 460 200 c 25
 427 200 393 200 360 200 c 25
 360 233 360 267 360 300 c 25
 416 300 471 300 527 300 c 25
 527 233 527 167 527 100 c 25
 516 100 504 100 493 100 c 25
 493 67 493 33 493 0 c 25
 415 0 338 0 260 0 c 25
 260 33 260 67 260 100 c 25
 249 100 238 100 227 100 c 25
 227 267 227 433 227 600 c 25
 238 600 249 600 260 600 c 25
 260 633 260 667 260 700 c 25
 338 700 415 700 493 700 c 25
 493 667 493 633 493 600 c 25
 504 600 516 600 527 600 c 25
 527 567 527 533 527 500 c 25
 505 500 482 500 460 500 c 25
 460 533 460 567 460 600 c 13
EndSplineSet
EndChar

StartChar: H
Encoding: 72 72 35
Width: 760
Flags: HW
HStem: 0 21G<260 360 610 710> 300 100<360 610> 680 20G<260 360 610 710>
VStem: 260 100<0 300 400 700> 610 100<0 300 400 700>
LayerCount: 2
Back
Fore
SplineSet
227 700 m 13
 249 700 271 700 293 700 c 25
 293 600 293 500 293 400 c 25
 349 400 404 400 460 400 c 25
 460 500 460 600 460 700 c 25
 482 700 505 700 527 700 c 25
 527 467 527 233 527 0 c 25
 505 0 482 0 460 0 c 25
 460 100 460 200 460 300 c 25
 404 300 349 300 293 300 c 25
 293 200 293 100 293 0 c 25
 271 0 249 0 227 0 c 25
 227 233 227 467 227 700 c 13
EndSplineSet
EndChar

StartChar: I
Encoding: 73 73 36
Width: 760
Flags: HW
HStem: 0 100<260 410 510 660> 600 100<260 410 510 660>
VStem: 410 100<100 600>
LayerCount: 2
Back
Fore
SplineSet
227 700 m 13
 316 700 404 700 493 700 c 25
 493 667 493 633 493 600 c 25
 460 600 426 600 393 600 c 25
 393 433 393 267 393 100 c 25
 426 100 460 100 493 100 c 25
 493 67 493 33 493 0 c 25
 404 0 316 0 227 0 c 25
 227 33 227 67 227 100 c 25
 260 100 294 100 327 100 c 25
 327 267 327 433 327 600 c 25
 294 600 260 600 227 600 c 25
 227 633 227 667 227 700 c 13
EndSplineSet
EndChar

StartChar: J
Encoding: 74 74 37
Width: 760
Flags: HW
HStem: 0 100<360 610> 100 100<260 310> 680 20G<610 710>
VStem: 260 100<100 200> 610 100<100 700>
LayerCount: 2
Back
Fore
SplineSet
460 700 m 13
 482 700 505 700 527 700 c 25
 527 500 527 300 527 100 c 25
 516 100 504 100 493 100 c 25
 493 67 493 33 493 0 c 25
 415 0 338 0 260 0 c 25
 260 33 260 67 260 100 c 25
 249 100 238 100 227 100 c 25
 227 133 227 167 227 200 c 25
 249 200 271 200 293 200 c 25
 293 167 293 133 293 100 c 25
 349 100 404 100 460 100 c 25
 460 300 460 500 460 700 c 13
EndSplineSet
EndChar

StartChar: K
Encoding: 75 75 38
Width: 760
Flags: HW
HStem: 0 100<610 710> 200 100<460 510> 300 100<360 410> 400 100<460 510> 600 100<610 710>
VStem: 260 100<0 300 400 700> 410 150<200 300 400 500> 510 100<100 200 500 600> 560 150<0 100 600 700>
LayerCount: 2
Back
Fore
SplineSet
227 700 m 13
 249 700 271 700 293 700 c 25
 293 600 293 500 293 400 c 25
 304 400 316 400 327 400 c 25
 327 433 327 467 327 500 c 25
 349 500 371 500 393 500 c 25
 393 533 393 567 393 600 c 25
 404 600 416 600 427 600 c 25
 427 633 427 667 427 700 c 25
 460 700 494 700 527 700 c 25
 527 667 527 633 527 600 c 25
 505 600 482 600 460 600 c 25
 460 567 460 533 460 500 c 25
 449 500 438 500 427 500 c 25
 427 467 427 433 427 400 c 25
 405 400 382 400 360 400 c 25
 360 367 360 333 360 300 c 25
 382 300 405 300 427 300 c 25
 427 267 427 233 427 200 c 25
 438 200 449 200 460 200 c 25
 460 167 460 133 460 100 c 25
 482 100 505 100 527 100 c 25
 527 67 527 33 527 0 c 25
 494 0 460 0 427 0 c 25
 427 33 427 67 427 100 c 25
 416 100 404 100 393 100 c 25
 393 133 393 167 393 200 c 25
 371 200 349 200 327 200 c 25
 327 233 327 267 327 300 c 25
 316 300 304 300 293 300 c 25
 293 200 293 100 293 0 c 25
 271 0 249 0 227 0 c 25
 227 233 227 467 227 700 c 13
EndSplineSet
EndChar

StartChar: L
Encoding: 76 76 39
Width: 760
Flags: HW
HStem: 0 100<360 710> 680 20G<260 360>
VStem: 260 100<100 700>
LayerCount: 2
Back
Fore
SplineSet
227 700 m 13
 249 700 271 700 293 700 c 25
 293 500 293 300 293 100 c 25
 371 100 449 100 527 100 c 25
 527 67 527 33 527 0 c 25
 427 0 327 0 227 0 c 25
 227 233 227 467 227 700 c 13
EndSplineSet
EndChar

StartChar: M
Encoding: 77 77 40
Width: 760
Flags: HW
HStem: 0 21G<210 310 610 710> 680 20G<210 360 560 710>
VStem: 210 150<600 700> 210 100<0 500> 410 100<300 400> 560 150<600 700> 610 100<0 500>
LayerCount: 2
Back
Fore
SplineSet
260 0 m 13
 238 0 215 0 193 0 c 25
 193 233 193 467 193 700 c 25
 226 700 260 700 293 700 c 25
 293 667 293 633 293 600 c 25
 304 600 316 600 327 600 c 25
 327 567 327 533 327 500 c 25
 349 500 371 500 393 500 c 25
 393 533 393 567 393 600 c 25
 404 600 416 600 427 600 c 25
 427 633 427 667 427 700 c 25
 460 700 494 700 527 700 c 25
 527 467 527 233 527 0 c 25
 505 0 482 0 460 0 c 25
 460 167 460 333 460 500 c 25
 449 500 438 500 427 500 c 25
 427 467 427 433 427 400 c 25
 416 400 404 400 393 400 c 25
 393 367 393 333 393 300 c 25
 371 300 349 300 327 300 c 25
 327 333 327 367 327 400 c 25
 316 400 304 400 293 400 c 25
 293 433 293 467 293 500 c 25
 282 500 271 500 260 500 c 25
 260 333 260 167 260 0 c 13
EndSplineSet
EndChar

StartChar: N
Encoding: 78 78 41
Width: 760
Flags: HW
HStem: 0 21G<210 310 560 710> 680 20G<210 360 610 710>
VStem: 210 150<600 700> 210 100<0 500> 360 100<400 500> 410 100<300 400> 460 100<200 300> 560 150<0 100> 610 100<200 700>
LayerCount: 2
Back
Fore
SplineSet
193 700 m 13
 226 700 260 700 293 700 c 25
 293 667 293 633 293 600 c 25
 304 600 316 600 327 600 c 25
 327 567 327 533 327 500 c 25
 338 500 349 500 360 500 c 25
 360 467 360 433 360 400 c 25
 371 400 382 400 393 400 c 25
 393 367 393 333 393 300 c 25
 404 300 416 300 427 300 c 25
 427 267 427 233 427 200 c 25
 438 200 449 200 460 200 c 25
 460 367 460 533 460 700 c 25
 482 700 505 700 527 700 c 25
 527 467 527 233 527 0 c 25
 494 0 460 0 427 0 c 25
 427 33 427 67 427 100 c 25
 416 100 404 100 393 100 c 25
 393 133 393 167 393 200 c 25
 382 200 371 200 360 200 c 25
 360 233 360 267 360 300 c 25
 349 300 338 300 327 300 c 25
 327 333 327 367 327 400 c 25
 316 400 304 400 293 400 c 25
 293 433 293 467 293 500 c 25
 282 500 271 500 260 500 c 25
 260 333 260 167 260 0 c 25
 238 0 215 0 193 0 c 25
 193 233 193 467 193 700 c 13
EndSplineSet
EndChar

StartChar: O
Encoding: 79 79 42
Width: 760
Flags: HW
HStem: 0 100<360 560> 600 100<360 560>
VStem: 210 100<200 500> 260 100<100 200 500 600> 310 300<0 100 600 700> 560 100<100 200 500 600> 610 100<200 500>
LayerCount: 2
Back
Fore
SplineSet
427 100 m 13
 427 133 427 167 427 200 c 25
 438 200 449 200 460 200 c 25
 460 300 460 400 460 500 c 25
 449 500 438 500 427 500 c 25
 427 533 427 567 427 600 c 25
 383 600 337 600 293 600 c 25
 293 567 293 533 293 500 c 25
 282 500 271 500 260 500 c 25
 260 400 260 300 260 200 c 25
 271 200 282 200 293 200 c 25
 293 167 293 133 293 100 c 25
 337 100 383 100 427 100 c 13
460 0 m 9
 393 0 327 0 260 0 c 25
 260 33 260 67 260 100 c 25
 249 100 238 100 227 100 c 25
 227 133 227 167 227 200 c 25
 216 200 204 200 193 200 c 25
 193 300 193 400 193 500 c 25
 204 500 216 500 227 500 c 25
 227 533 227 567 227 600 c 25
 238 600 249 600 260 600 c 25
 260 633 260 667 260 700 c 25
 327 700 393 700 460 700 c 25
 460 667 460 633 460 600 c 25
 471 600 482 600 493 600 c 25
 493 567 493 533 493 500 c 25
 504 500 516 500 527 500 c 25
 527 400 527 300 527 200 c 25
 516 200 504 200 493 200 c 25
 493 167 493 133 493 100 c 25
 482 100 471 100 460 100 c 25
 460 67 460 33 460 0 c 9
EndSplineSet
EndChar

StartChar: P
Encoding: 80 80 43
Width: 760
Flags: HW
HStem: 0 21G<260 360> 300 100<360 610> 600 100<360 610>
VStem: 260 100<0 300 400 600> 610 100<400 600>
LayerCount: 2
Back
Fore
SplineSet
293 600 m 13
 293 533 293 467 293 400 c 25
 349 400 404 400 460 400 c 25
 460 467 460 533 460 600 c 25
 404 600 349 600 293 600 c 13
227 700 m 9
 316 700 404 700 493 700 c 25
 493 683 493 667 493 650 c 25
 504 650 516 650 527 650 c 25
 527 567 527 483 527 400 c 25
 516 400 504 400 493 400 c 25
 493 367 493 333 493 300 c 25
 426 300 360 300 293 300 c 25
 293 200 293 100 293 0 c 25
 271 0 249 0 227 0 c 25
 227 233 227 467 227 700 c 9
EndSplineSet
EndChar

StartChar: Q
Encoding: 81 81 44
Width: 760
Flags: HW
HStem: -200 100<610 710> 0 100<310 460> 600 100<310 610>
VStem: 210 100<100 600> 460 100<100 200> 510 100<-100 0> 560 150<-200 -100> 610 100<100 600>
LayerCount: 2
Back
Fore
SplineSet
260 600 m 13
 260 433 260 267 260 100 c 25
 293 100 327 100 360 100 c 25
 360 133 360 167 360 200 c 25
 382 200 405 200 427 200 c 25
 427 167 427 133 427 100 c 25
 438 100 449 100 460 100 c 25
 460 267 460 433 460 600 c 25
 393 600 327 600 260 600 c 13
227 700 m 9
 316 700 404 700 493 700 c 25
 493 667 493 633 493 600 c 25
 504 600 516 600 527 600 c 25
 527 433 527 267 527 100 c 25
 516 100 504 100 493 100 c 25
 493 67 493 33 493 0 c 25
 482 0 471 0 460 0 c 25
 460 -33 460 -67 460 -100 c 25
 482 -100 505 -100 527 -100 c 25
 527 -133 527 -167 527 -200 c 25
 494 -200 460 -200 427 -200 c 25
 427 -167 427 -133 427 -100 c 25
 416 -100 404 -100 393 -100 c 25
 393 -67 393 -33 393 0 c 25
 337 0 283 0 227 0 c 25
 227 33 227 67 227 100 c 25
 216 100 204 100 193 100 c 25
 193 267 193 433 193 600 c 25
 204 600 216 600 227 600 c 25
 227 633 227 667 227 700 c 9
EndSplineSet
EndChar

StartChar: R
Encoding: 82 82 45
Width: 760
Flags: HW
HStem: 0 100<610 710> 300 100<360 460 560 610> 600 100<360 610>
VStem: 260 100<0 300 400 600> 460 100<200 300> 510 100<100 200> 560 150<0 100> 610 100<400 600>
CounterMasks: 1 e0
LayerCount: 2
Back
Fore
SplineSet
293 600 m 13
 293 533 293 467 293 400 c 25
 349 400 404 400 460 400 c 25
 460 467 460 533 460 600 c 25
 404 600 349 600 293 600 c 13
227 700 m 9
 316 700 404 700 493 700 c 25
 493 683 493 667 493 650 c 25
 504 650 516 650 527 650 c 25
 527 567 527 483 527 400 c 25
 516 400 504 400 493 400 c 25
 493 367 493 333 493 300 c 25
 471 300 449 300 427 300 c 25
 427 267 427 233 427 200 c 25
 438 200 449 200 460 200 c 25
 460 167 460 133 460 100 c 25
 482 100 505 100 527 100 c 25
 527 67 527 33 527 0 c 25
 494 0 460 0 427 0 c 25
 427 33 427 67 427 100 c 25
 416 100 404 100 393 100 c 25
 393 133 393 167 393 200 c 25
 382 200 371 200 360 200 c 25
 360 233 360 267 360 300 c 25
 338 300 315 300 293 300 c 25
 293 200 293 100 293 0 c 25
 271 0 249 0 227 0 c 25
 227 233 227 467 227 700 c 9
EndSplineSet
EndChar

StartChar: S
Encoding: 83 83 46
Width: 760
Flags: HW
HStem: 0 100<310 610> 300 100<360 610> 600 100<360 660>
VStem: 260 100<400 600> 310 350<0 100 300 400 600 700> 610 100<100 300>
CounterMasks: 1 e0
LayerCount: 2
Back
Fore
SplineSet
260 600 m 13
 260 633 260 667 260 700 c 25
 338 700 415 700 493 700 c 25
 493 667 493 633 493 600 c 25
 426 600 360 600 293 600 c 25
 293 533 293 467 293 400 c 25
 360 400 426 400 493 400 c 25
 493 367 493 333 493 300 c 25
 504 300 516 300 527 300 c 25
 527 233 527 167 527 100 c 25
 516 100 504 100 493 100 c 25
 493 67 493 33 493 0 c 25
 415 0 338 0 260 0 c 25
 260 33 260 67 260 100 c 25
 327 100 393 100 460 100 c 25
 460 167 460 233 460 300 c 25
 393 300 327 300 260 300 c 25
 260 333 260 367 260 400 c 25
 249 400 238 400 227 400 c 25
 227 467 227 533 227 600 c 25
 238 600 249 600 260 600 c 13
EndSplineSet
EndChar

StartChar: T
Encoding: 84 84 47
Width: 760
Flags: HW
HStem: 0 21G<410 510> 600 100<210 410 510 710>
VStem: 410 100<0 600>
LayerCount: 2
Back
Fore
SplineSet
193 700 m 1
 304 700 416 700 527 700 c 5
 527 667 527 633 527 600 c 1
 483 600 437 600 393 600 c 1
 393 400 393 200 393 0 c 25
 371 0 349 0 327 0 c 25
 327 200 327 400 327 600 c 1
 283 600 237 600 193 600 c 1
 193 633 193 667 193 700 c 1
EndSplineSet
EndChar

StartChar: U
Encoding: 85 85 48
Width: 760
Flags: HW
HStem: 0 100<360 610> 680 20G<260 360 610 710>
VStem: 260 100<100 700> 610 100<100 700>
LayerCount: 2
Back
Fore
SplineSet
227 700 m 13
 249 700 271 700 293 700 c 25
 293 500 293 300 293 100 c 25
 349 100 404 100 460 100 c 25
 460 300 460 500 460 700 c 25
 482 700 505 700 527 700 c 25
 527 500 527 300 527 100 c 25
 516 100 504 100 493 100 c 25
 493 67 493 33 493 0 c 25
 415 0 338 0 260 0 c 25
 260 33 260 67 260 100 c 25
 249 100 238 100 227 100 c 25
 227 300 227 500 227 700 c 13
EndSplineSet
EndChar

StartChar: V
Encoding: 86 86 49
Width: 760
Flags: HW
HStem: 0 21G<460 560> 680 20G<260 360 660 760>
VStem: 260 100<500 700> 310 100<300 500> 360 100<200 300> 460 100<0 100> 560 100<200 300> 610 100<300 500> 660 100<500 700>
LayerCount: 2
Back
Fore
SplineSet
227 700 m 13
 249 700 271 700 293 700 c 25
 293 633 293 567 293 500 c 25
 304 500 316 500 327 500 c 25
 327 433 327 367 327 300 c 25
 338 300 349 300 360 300 c 25
 360 267 360 233 360 200 c 25
 382 200 405 200 427 200 c 25
 427 233 427 267 427 300 c 25
 438 300 449 300 460 300 c 25
 460 367 460 433 460 500 c 25
 471 500 482 500 493 500 c 25
 493 567 493 633 493 700 c 25
 515 700 538 700 560 700 c 25
 560 633 560 567 560 500 c 25
 549 500 538 500 527 500 c 25
 527 433 527 367 527 300 c 25
 516 300 504 300 493 300 c 25
 493 267 493 233 493 200 c 25
 482 200 471 200 460 200 c 25
 460 167 460 133 460 100 c 25
 449 100 438 100 427 100 c 25
 427 67 427 33 427 0 c 25
 405 0 382 0 360 0 c 25
 360 33 360 67 360 100 c 25
 349 100 338 100 327 100 c 25
 327 133 327 167 327 200 c 25
 316 200 304 200 293 200 c 25
 293 233 293 267 293 300 c 25
 282 300 271 300 260 300 c 25
 260 367 260 433 260 500 c 25
 249 500 238 500 227 500 c 25
 227 567 227 633 227 700 c 13
EndSplineSet
EndChar

StartChar: W
Encoding: 87 87 50
Width: 760
Flags: HW
HStem: 0 21G<260 360 560 660> 680 20G<210 310 610 710>
VStem: 210 100<200 700> 260 150<100 200> 260 100<0 100> 410 100<300 400> 510 150<100 200> 560 100<0 100> 610 100<200 700>
LayerCount: 2
Back
Fore
SplineSet
193 700 m 13
 215 700 238 700 260 700 c 25
 260 533 260 367 260 200 c 25
 271 200 282 200 293 200 c 25
 293 233 293 267 293 300 c 25
 304 300 316 300 327 300 c 25
 327 333 327 367 327 400 c 25
 349 400 371 400 393 400 c 25
 393 367 393 333 393 300 c 25
 404 300 416 300 427 300 c 25
 427 267 427 233 427 200 c 25
 438 200 449 200 460 200 c 25
 460 367 460 533 460 700 c 25
 482 700 505 700 527 700 c 25
 527 533 527 367 527 200 c 25
 516 200 504 200 493 200 c 25
 493 133 493 67 493 0 c 25
 471 0 449 0 427 0 c 25
 427 33 427 67 427 100 c 25
 416 100 404 100 393 100 c 25
 393 133 393 167 393 200 c 25
 371 200 349 200 327 200 c 25
 327 167 327 133 327 100 c 25
 316 100 304 100 293 100 c 25
 293 67 293 33 293 0 c 25
 271 0 249 0 227 0 c 25
 227 67 227 133 227 200 c 25
 216 200 204 200 193 200 c 25
 193 367 193 533 193 700 c 13
EndSplineSet
EndChar

StartChar: X
Encoding: 88 88 51
Width: 760
Flags: HW
HStem: 0 100<260 310 610 660> 600 100<260 310 610 660>
VStem: 260 100<0 100 600 700> 310 100<100 200 500 600> 360 200<200 300 400 500> 510 100<100 200 500 600> 560 100<0 100 600 700>
LayerCount: 2
Back
Fore
SplineSet
227 700 m 13
 249 700 271 700 293 700 c 25
 293 667 293 633 293 600 c 25
 304 600 316 600 327 600 c 25
 327 567 327 533 327 500 c 25
 349 500 371 500 393 500 c 25
 393 533 393 567 393 600 c 25
 404 600 416 600 427 600 c 25
 427 633 427 667 427 700 c 25
 449 700 471 700 493 700 c 25
 493 667 493 633 493 600 c 25
 482 600 471 600 460 600 c 25
 460 567 460 533 460 500 c 25
 449 500 438 500 427 500 c 25
 427 467 427 433 427 400 c 25
 416 400 404 400 393 400 c 25
 393 367 393 333 393 300 c 25
 404 300 416 300 427 300 c 25
 427 267 427 233 427 200 c 25
 438 200 449 200 460 200 c 25
 460 167 460 133 460 100 c 25
 471 100 482 100 493 100 c 25
 493 67 493 33 493 0 c 25
 471 0 449 0 427 0 c 25
 427 33 427 67 427 100 c 25
 416 100 404 100 393 100 c 25
 393 133 393 167 393 200 c 25
 371 200 349 200 327 200 c 25
 327 167 327 133 327 100 c 25
 316 100 304 100 293 100 c 25
 293 67 293 33 293 0 c 25
 271 0 249 0 227 0 c 25
 227 33 227 67 227 100 c 25
 238 100 249 100 260 100 c 25
 260 133 260 167 260 200 c 25
 271 200 282 200 293 200 c 25
 293 233 293 267 293 300 c 25
 304 300 316 300 327 300 c 25
 327 333 327 367 327 400 c 25
 316 400 304 400 293 400 c 25
 293 433 293 467 293 500 c 25
 282 500 271 500 260 500 c 25
 260 533 260 567 260 600 c 25
 249 600 238 600 227 600 c 25
 227 633 227 667 227 700 c 13
EndSplineSet
EndChar

StartChar: Y
Encoding: 89 89 52
Width: 760
Flags: HW
HStem: 0 21G<410 510> 600 100<210 260 660 710>
VStem: 210 100<600 700> 260 100<500 600> 310 100<400 500> 410 100<0 300> 510 100<400 500> 560 100<500 600> 610 100<600 700>
LayerCount: 2
Back
Fore
SplineSet
193 700 m 13
 215 700 238 700 260 700 c 25
 260 667 260 633 260 600 c 25
 271 600 282 600 293 600 c 25
 293 567 293 533 293 500 c 25
 304 500 316 500 327 500 c 25
 327 467 327 433 327 400 c 25
 349 400 371 400 393 400 c 25
 393 433 393 467 393 500 c 25
 404 500 416 500 427 500 c 25
 427 533 427 567 427 600 c 25
 438 600 449 600 460 600 c 25
 460 633 460 667 460 700 c 25
 482 700 505 700 527 700 c 25
 527 667 527 633 527 600 c 25
 516 600 504 600 493 600 c 25
 493 567 493 533 493 500 c 25
 482 500 471 500 460 500 c 25
 460 467 460 433 460 400 c 25
 449 400 438 400 427 400 c 25
 427 367 427 333 427 300 c 25
 416 300 404 300 393 300 c 25
 393 200 393 100 393 0 c 25
 371 0 349 0 327 0 c 25
 327 100 327 200 327 300 c 25
 316 300 304 300 293 300 c 25
 293 333 293 367 293 400 c 25
 282 400 271 400 260 400 c 25
 260 433 260 467 260 500 c 25
 249 500 238 500 227 500 c 25
 227 533 227 567 227 600 c 25
 216 600 204 600 193 600 c 25
 193 633 193 667 193 700 c 13
EndSplineSet
EndChar

StartChar: Z
Encoding: 90 90 53
Width: 760
Flags: HW
HStem: 0 100<260 310 410 660> 600 100<260 510 610 660>
VStem: 310 100<100 200> 360 100<200 300> 410 100<300 400> 460 100<400 500> 510 100<500 600>
LayerCount: 2
Back
Fore
SplineSet
227 700 m 13
 316 700 404 700 493 700 c 25
 493 667 493 633 493 600 c 25
 482 600 471 600 460 600 c 25
 460 567 460 533 460 500 c 25
 449 500 438 500 427 500 c 25
 427 467 427 433 427 400 c 25
 416 400 404 400 393 400 c 25
 393 367 393 333 393 300 c 25
 382 300 371 300 360 300 c 25
 360 267 360 233 360 200 c 25
 349 200 338 200 327 200 c 25
 327 167 327 133 327 100 c 25
 383 100 437 100 493 100 c 25
 493 67 493 33 493 0 c 25
 404 0 316 0 227 0 c 25
 227 33 227 67 227 100 c 25
 238 100 249 100 260 100 c 25
 260 133 260 167 260 200 c 25
 271 200 282 200 293 200 c 25
 293 233 293 267 293 300 c 25
 304 300 316 300 327 300 c 25
 327 333 327 367 327 400 c 25
 338 400 349 400 360 400 c 25
 360 433 360 467 360 500 c 25
 371 500 382 500 393 500 c 25
 393 533 393 567 393 600 c 25
 337 600 283 600 227 600 c 25
 227 633 227 667 227 700 c 13
EndSplineSet
EndChar

StartChar: a
Encoding: 97 97 54
Width: 760
Flags: HW
HStem: 0 100<310 560 660 709> 100 100<210 260> 200 100<310 560> 400 100<260 560>
VStem: 210 100<100 200> 560 100<100 200 300 400>
LayerCount: 2
Back
Fore
SplineSet
260 200 m 13
 260 167 260 133 260 100 c 25
 316 100 371 100 427 100 c 25
 427 133 427 167 427 200 c 25
 371 200 316 200 260 200 c 13
227 500 m 9
 305 500 382 500 460 500 c 25
 460 467 460 433 460 400 c 25
 471 400 482 400 493 400 c 25
 493 300 493 200 493 100 c 25
 504 100 515 100 526 100 c 25
 526 67 527 33 527 0 c 25
 427 0 327 0 227 0 c 25
 227 33 227 67 227 100 c 25
 216 100 204 100 193 100 c 25
 193 133 193 167 193 200 c 25
 204 200 216 200 227 200 c 25
 227 233 227 267 227 300 c 25
 294 300 360 300 427 300 c 25
 427 333 427 367 427 400 c 25
 360 400 294 400 227 400 c 25
 227 433 227 467 227 500 c 9
EndSplineSet
EndChar

StartChar: b
Encoding: 98 98 55
Width: 760
Flags: HW
HStem: 0 100<360 610> 300 100<360 410> 400 100<410 610> 680 20G<260 360>
VStem: 260 150<300 400> 260 100<100 300 400 700> 610 100<100 400>
LayerCount: 2
Back
Fore
SplineSet
460 400 m 13
 416 400 371 400 327 400 c 25
 327 367 327 333 327 300 c 25
 316 300 304 300 293 300 c 25
 293 233 293 167 293 100 c 25
 349 100 404 100 460 100 c 25
 460 200 460 300 460 400 c 13
227 700 m 9
 249 700 271 700 293 700 c 25
 293 600 293 500 293 400 c 25
 304 400 316 400 327 400 c 25
 327 433 327 467 327 500 c 25
 383 500 437 500 493 500 c 25
 493 467 493 433 493 400 c 25
 504 400 516 400 527 400 c 25
 527 300 527 200 527 100 c 25
 516 100 504 100 493 100 c 25
 493 67 493 33 493 0 c 25
 404 0 316 0 227 0 c 25
 227 233 227 467 227 700 c 9
EndSplineSet
EndChar

StartChar: c
Encoding: 99 99 56
Width: 760
Flags: HW
HStem: 0 100<410 710> 200 100<260 310> 400 100<410 710>
VStem: 260 100<200 300> 310 100<100 200 300 400>
CounterMasks: 1 e0
LayerCount: 2
Back
Fore
SplineSet
293 500 m 13
 371 500 449 500 527 500 c 25
 527 467 527 433 527 400 c 25
 460 400 394 400 327 400 c 25
 327 367 327 333 327 300 c 25
 316 300 304 300 293 300 c 25
 293 267 293 233 293 200 c 25
 304 200 316 200 327 200 c 25
 327 167 327 133 327 100 c 25
 394 100 460 100 527 100 c 25
 527 67 527 33 527 0 c 25
 449 0 371 0 293 0 c 25
 293 33 293 67 293 100 c 25
 282 100 271 100 260 100 c 25
 260 133 260 167 260 200 c 25
 249 200 238 200 227 200 c 25
 227 233 227 267 227 300 c 25
 238 300 249 300 260 300 c 25
 260 333 260 367 260 400 c 25
 271 400 282 400 293 400 c 25
 293 433 293 467 293 500 c 13
EndSplineSet
EndChar

StartChar: d
Encoding: 100 100 57
Width: 760
Flags: HW
HStem: 0 100<360 610> 300 100<560 610> 400 100<360 560> 680 20G<610 710>
VStem: 260 100<100 400> 560 150<300 400> 610 100<100 300 400 700>
LayerCount: 2
Back
Fore
SplineSet
293 100 m 13
 349 100 404 100 460 100 c 25
 460 167 460 233 460 300 c 25
 449 300 438 300 427 300 c 25
 427 333 427 367 427 400 c 25
 383 400 337 400 293 400 c 25
 293 300 293 200 293 100 c 13
460 700 m 9
 482 700 505 700 527 700 c 25
 527 467 527 233 527 0 c 25
 438 0 349 0 260 0 c 25
 260 33 260 67 260 100 c 25
 249 100 238 100 227 100 c 25
 227 200 227 300 227 400 c 25
 238 400 249 400 260 400 c 25
 260 433 260 467 260 500 c 25
 316 500 371 500 427 500 c 25
 427 467 427 433 427 400 c 25
 438 400 449 400 460 400 c 25
 460 500 460 600 460 700 c 9
EndSplineSet
EndChar

StartChar: e
Encoding: 101 101 58
Width: 760
Flags: HW
HStem: 0 100<310 660> 200 100<310 610> 400 101<310 610>
VStem: 210 100<100 200 300 400> 610 100<300 400>
LayerCount: 2
Back
Fore
SplineSet
260 400 m 13
 260 367 260 333 260 300 c 29
 327 300 393 300 460 300 c 29
 460 333 460 367 460 400 c 29
 393 400 327 400 260 400 c 13
227 400 m 13
 227 434 227 467 227 501 c 29
 316 501 404 500 493 500 c 29
 493 467 493 433 493 400 c 29
 504 400 516 400 527 400 c 29
 527 333 527 267 527 200 c 29
 438 200 349 200 260 200 c 29
 260 167 260 133 260 100 c 29
 338 100 415 100 493 100 c 29
 493 67 493 33 493 0 c 29
 404 0 316 0 227 0 c 29
 227 33 227 67 227 100 c 29
 216 100 204 100 193 100 c 29
 193 200 193 300 193 400 c 29
 204 400 216 400 227 400 c 13
EndSplineSet
EndChar

StartChar: f
Encoding: 102 102 59
Width: 760
Flags: HW
HStem: 0 21G<360 460> 300 100<260 360 460 610> 600 100<460 710>
VStem: 360 100<0 300 400 600>
LayerCount: 2
Back
Fore
SplineSet
327 600 m 13
 327 633 327 667 327 700 c 25
 394 700 460 700 527 700 c 25
 527 667 527 633 527 600 c 25
 471 600 416 600 360 600 c 25
 360 533 360 467 360 400 c 25
 393 400 427 400 460 400 c 25
 460 367 460 333 460 300 c 25
 427 300 393 300 360 300 c 25
 360 200 360 100 360 0 c 25
 338 0 315 0 293 0 c 25
 293 100 293 200 293 300 c 25
 271 300 249 300 227 300 c 25
 227 333 227 367 227 400 c 25
 249 400 271 400 293 400 c 25
 293 467 293 533 293 600 c 25
 304 600 316 600 327 600 c 13
EndSplineSet
EndChar

StartChar: g
Encoding: 103 103 60
Width: 760
Flags: HW
HStem: -200 100<310 610> 0 100<360 560> 100 100<560 610> 300 100<560 610> 400 100<360 560>
VStem: 260 100<100 400> 310 250<0 100 400 498> 560 150<100 200 300 400> 610 100<-100 100 200 300 400 500>
LayerCount: 2
Back
Fore
SplineSet
293 400 m 13
 293 300 293 200 293 100 c 25
 337 100 383 100 427 100 c 25
 427 133 427 167 427 200 c 25
 438 200 449 200 460 200 c 25
 460 233 460 267 460 300 c 25
 449 300 438 300 427 300 c 25
 427 333 427 367 427 400 c 25
 383 400 337 400 293 400 c 13
260 400 m 9
 260 433 260 465 260 498 c 25
 316 499 371 499 427 500 c 25
 427 467 427 433 427 400 c 25
 438 400 449 400 460 400 c 25
 460 433 460 467 460 500 c 25
 482 500 505 500 527 500 c 25
 527 300 527 100 527 -100 c 25
 516 -100 504 -100 493 -100 c 25
 493 -133 493 -167 493 -200 c 25
 415 -200 338 -200 260 -200 c 25
 260 -167 260 -133 260 -100 c 25
 327 -100 393 -100 460 -100 c 25
 460 -33 460 33 460 100 c 25
 449 100 438 100 427 100 c 25
 427 67 427 33 427 0 c 25
 371 0 316 0 260 0 c 25
 260 33 260 67 260 100 c 25
 249 100 238 100 227 100 c 25
 227 200 227 300 227 400 c 25
 238 400 249 400 260 400 c 9
EndSplineSet
EndChar

StartChar: h
Encoding: 104 104 61
Width: 760
Flags: HW
HStem: 0 21G<260 360 610 710> 300 100<360 410> 400 100<410 610> 680 20G<260 360>
VStem: 260 150<300 400> 260 100<0 300 400 700> 610 100<0 400>
LayerCount: 2
Back
Fore
SplineSet
227 700 m 13
 249 700 271 700 293 700 c 25
 293 600 293 500 293 400 c 25
 304 400 316 400 327 400 c 25
 327 433 327 467 327 500 c 25
 383 500 437 500 493 500 c 25
 493 467 493 433 493 400 c 25
 504 400 516 400 527 400 c 25
 527 267 527 133 527 0 c 25
 505 0 482 0 460 0 c 25
 460 133 460 267 460 400 c 25
 416 400 371 400 327 400 c 25
 327 367 327 333 327 300 c 25
 316 300 304 300 293 300 c 25
 293 200 293 100 293 0 c 25
 271 0 249 0 227 0 c 25
 227 233 227 467 227 700 c 13
EndSplineSet
EndChar

StartChar: i
Encoding: 105 105 62
Width: 760
Flags: HW
HStem: 0 100<310 410 509 610> 400 100<360 410> 600 100<360 510>
VStem: 360 150<400 500 600 700> 410 100<100 400>
LayerCount: 2
Back
Fore
SplineSet
293 500 m 1
 326 500 360 500 393 500 c 25
 393 367 393 233 393 100 c 25
 415 100 438 100 460 100 c 25
 460 67 460 33 460 0 c 25
 393 0 327 0 260 0 c 25
 260 33 260 67 260 100 c 25
 282 100 305 100 327 100 c 25
 327 200 327 300 327 400 c 1
 316 400 304 400 293 400 c 29
 293 433 293 467 293 500 c 1
293 700 m 9
 326 700 360 700 393 700 c 25
 393 667 393 633 393 600 c 25
 360 600 326 600 293 600 c 25
 293 633 293 667 293 700 c 9
EndSplineSet
EndChar

StartChar: j
Encoding: 106 106 63
Width: 760
Flags: HW
HStem: -200 100<360 610> -100 100<260 310> 400 100<560 610> 600 100<560 709>
VStem: 260 100<-100 0> 560 150<400 500 600 700> 610 100<-100 400>
LayerCount: 2
Back
Fore
SplineSet
427 400 m 13
 427 433 427 467 427 500 c 25
 460 500 494 500 527 500 c 25
 527 300 527 100 527 -100 c 25
 516 -100 504 -100 493 -100 c 25
 493 -133 493 -167 493 -200 c 25
 415 -200 338 -200 260 -200 c 25
 260 -167 260 -133 260 -100 c 25
 249 -100 238 -100 227 -100 c 25
 227 -67 227 -33 227 0 c 25
 249 0 271 0 293 0 c 25
 293 -33 293 -67 293 -100 c 25
 349 -100 404 -100 460 -100 c 25
 460 67 460 233 460 400 c 25
 449 400 438 400 427 400 c 13
427 700 m 9
 460 700 493 700 526 700 c 25
 526 667 527 633 527 600 c 25
 494 600 460 600 427 600 c 25
 427 633 427 667 427 700 c 9
EndSplineSet
EndChar

StartChar: k
Encoding: 107 107 64
Width: 760
Flags: HW
HStem: 0 100<560 660> 200 100<360 460> 400 100<560 660> 680 20G<260 360>
VStem: 260 100<0 200 300 700> 460 100<100 200 300 400> 510 150<0 100 400 500>
LayerCount: 2
Back
Fore
SplineSet
227 700 m 13
 249 700 271 700 293 700 c 25
 293 567 293 433 293 300 c 25
 315 300 338 300 360 300 c 25
 360 333 360 367 360 400 c 25
 371 400 382 400 393 400 c 25
 393 433 393 467 393 500 c 25
 426 500 460 500 493 500 c 25
 493 467 493 433 493 400 c 25
 471 400 449 400 427 400 c 25
 427 367 427 333 427 300 c 25
 416 300 404 300 393 300 c 25
 393 267 393 233 393 200 c 25
 404 200 416 200 427 200 c 25
 427 167 427 133 427 100 c 25
 449 100 471 100 493 100 c 25
 493 67 493 33 493 0 c 25
 460 0 426 0 393 0 c 25
 393 33 393 67 393 100 c 25
 382 100 371 100 360 100 c 25
 360 133 360 167 360 200 c 25
 338 200 315 200 293 200 c 25
 293 133 293 67 293 0 c 25
 271 0 249 0 227 0 c 25
 227 233 227 467 227 700 c 13
EndSplineSet
EndChar

StartChar: l
Encoding: 108 108 65
Width: 760
Flags: HW
HStem: 0 100<260 410 510 660> 650 100<310 410>
VStem: 410 100<100 650>
LayerCount: 2
Back
Fore
SplineSet
260 750 m 13
 304 750 349 750 393 750 c 25
 393 533 393 317 393 100 c 25
 426 100 460 100 493 100 c 25
 493 67 493 33 493 0 c 25
 404 0 316 0 227 0 c 25
 227 33 227 67 227 100 c 25
 260 100 294 100 327 100 c 25
 327 283 327 467 327 650 c 25
 305 650 282 650 260 650 c 25
 260 683 260 717 260 750 c 13
EndSplineSet
EndChar

StartChar: m
Encoding: 109 109 66
Width: 760
Flags: HW
HStem: 0 21G<210 310 410 510 610 710> 400 100<310 410 510 610>
VStem: 210 100<0 400> 410 100<0 400> 610 100<0 400>
CounterMasks: 1 38
LayerCount: 2
Back
Fore
SplineSet
193 0 m 13
 193 167 193 333 193 500 c 25
 293 500 393 500 493 500 c 25
 493 467 493 433 493 400 c 25
 504 400 516 400 527 400 c 25
 527 267 527 133 527 0 c 25
 505 0 482 0 460 0 c 25
 460 133 460 267 460 400 c 25
 438 400 415 400 393 400 c 25
 393 267 393 133 393 0 c 25
 371 0 349 0 327 0 c 25
 327 133 327 267 327 400 c 25
 305 400 282 400 260 400 c 25
 260 267 260 133 260 0 c 25
 238 0 215 0 193 0 c 13
EndSplineSet
EndChar

StartChar: n
Encoding: 110 110 67
Width: 760
Flags: HW
HStem: 0 21G<260 360 610 710> 300 100<360 410> 400 100<410 610>
VStem: 260 150<300 400> 260 100<0 300 400 500> 610 100<0 400>
LayerCount: 2
Back
Fore
SplineSet
227 0 m 13
 227 167 227 333 227 500 c 25
 249 500 271 500 293 500 c 25
 293 467 293 433 293 400 c 25
 304 400 316 400 327 400 c 25
 327 433 327 467 327 500 c 25
 383 500 437 500 493 500 c 25
 493 467 493 433 493 400 c 25
 504 400 516 400 527 400 c 25
 527 267 527 133 527 0 c 25
 505 0 482 0 460 0 c 25
 460 133 460 267 460 400 c 25
 416 400 371 400 327 400 c 25
 327 367 327 333 327 300 c 25
 316 300 304 300 293 300 c 25
 293 200 293 100 293 0 c 25
 271 0 249 0 227 0 c 13
EndSplineSet
EndChar

StartChar: o
Encoding: 111 111 68
Width: 760
Flags: HW
HStem: 0 100<360 610> 400 100<360 610>
VStem: 260 100<100 400> 610 100<100 400>
LayerCount: 2
Back
Fore
SplineSet
293 400 m 13
 293 300 293 200 293 100 c 25
 349 100 404 100 460 100 c 25
 460 200 460 300 460 400 c 25
 404 400 349 400 293 400 c 13
260 500 m 9
 338 500 415 500 493 500 c 25
 493 467 493 433 493 400 c 25
 504 400 516 400 527 400 c 25
 527 300 527 200 527 100 c 25
 516 100 504 100 493 100 c 25
 493 67 493 33 493 0 c 25
 415 0 338 0 260 0 c 25
 260 33 260 67 260 100 c 25
 249 100 238 100 227 100 c 25
 227 200 227 300 227 400 c 25
 238 400 249 400 260 400 c 25
 260 433 260 467 260 500 c 9
EndSplineSet
EndChar

StartChar: p
Encoding: 112 112 69
Width: 760
Flags: HW
HStem: -200 21G<260 360> 0 100<410 610> 100 100<360 410> 300 100<360 410> 400 100<410 610>
VStem: 260 150<100 200 300 400> 260 100<-200 100 200 300 400 500> 410 250<0 100 400 500> 610 100<100 400>
LayerCount: 2
Back
Fore
SplineSet
327 300 m 13
 316 300 304 300 293 300 c 25
 293 267 293 233 293 200 c 25
 304 200 316 200 327 200 c 25
 327 167 327 133 327 100 c 25
 371 100 416 100 460 100 c 25
 460 200 460 300 460 400 c 25
 416 400 371 400 327 400 c 25
 327 367 327 333 327 300 c 13
227 500 m 9
 249 500 271 500 293 500 c 25
 293 467 293 433 293 400 c 25
 304 400 316 400 327 400 c 25
 327 433 327 467 327 500 c 25
 383 500 437 500 493 500 c 25
 493 467 493 433 493 400 c 25
 504 400 516 400 527 400 c 25
 527 300 527 200 527 100 c 25
 516 100 504 100 493 100 c 25
 493 67 493 33 493 0 c 25
 437 0 383 0 327 0 c 25
 327 33 327 67 327 100 c 25
 316 100 304 100 293 100 c 25
 293 0 293 -100 293 -200 c 25
 271 -200 249 -200 227 -200 c 25
 227 33 227 267 227 500 c 9
EndSplineSet
EndChar

StartChar: q
Encoding: 113 113 70
Width: 760
Flags: HW
HStem: -200 21G<610 710> 0 100<360 560> 100 100<560 610> 300 100<560 610> 400 100<360 560>
VStem: 260 100<100 400> 310 250<0 100 400 500> 560 150<100 200 300 400> 610 100<-200 100 200 300 400 500>
LayerCount: 2
Back
Fore
SplineSet
293 400 m 13
 293 300 293 200 293 100 c 25
 337 100 383 100 427 100 c 25
 427 133 427 167 427 200 c 25
 438 200 449 200 460 200 c 25
 460 233 460 267 460 300 c 25
 449 300 438 300 427 300 c 25
 427 333 427 367 427 400 c 25
 383 400 337 400 293 400 c 13
260 500 m 9
 316 500 371 500 427 500 c 25
 427 467 427 433 427 400 c 25
 438 400 449 400 460 400 c 25
 460 433 460 467 460 500 c 25
 482 500 505 500 527 500 c 25
 527 267 527 33 527 -200 c 25
 505 -200 482 -200 460 -200 c 25
 460 -100 460 0 460 100 c 25
 449 100 438 100 427 100 c 25
 427 67 427 33 427 0 c 25
 371 0 316 0 260 0 c 25
 260 33 260 67 260 100 c 25
 249 100 238 100 227 100 c 25
 227 200 227 300 227 400 c 25
 238 400 249 400 260 400 c 25
 260 433 260 467 260 500 c 9
EndSplineSet
EndChar

StartChar: r
Encoding: 114 114 71
Width: 760
Flags: HW
HStem: 0 21G<260 360> 300 100<360 460> 400 100<460 710>
VStem: 260 100<0 300 400 500>
LayerCount: 2
Back
Fore
SplineSet
227 0 m 13
 227 167 227 333 227 500 c 25
 249 500 271 500 293 500 c 25
 293 467 293 433 293 400 c 25
 315 400 338 400 360 400 c 25
 360 433 360 467 360 500 c 25
 416 500 471 500 527 500 c 25
 527 467 527 433 527 400 c 25
 471 400 416 400 360 400 c 25
 360 367 360 333 360 300 c 25
 338 300 315 300 293 300 c 25
 293 200 293 100 293 0 c 25
 271 0 249 0 227 0 c 13
EndSplineSet
EndChar

StartChar: s
Encoding: 115 115 72
Width: 760
Flags: HW
HStem: 0 100<310 610> 100 100<660 710> 200 100<360 610> 300 100<260 310> 400 100<360 660>
VStem: 260 100<300 400> 310 350<0 100 200 300 400 500> 610 100<100 200>
LayerCount: 2
Back
Fore
SplineSet
493 400 m 1
 426 400 360 400 293 400 c 1
 293 367 293 333 293 300 c 1
 360 300 426 300 493 300 c 1
 493 267 493 233 493 200 c 25
 504 200 516 200 527 200 c 25
 527 167 527 133 527 100 c 25
 516 100 504 100 493 100 c 25
 493 67 493 33 493 0 c 1
 415 0 338 0 260 0 c 5
 260 33 260 67 260 100 c 1
 327 100 393 100 460 100 c 1
 460 133 460 167 460 200 c 1
 393 200 327 200 260 200 c 1
 260 233 260 267 260 300 c 1
 249 300 238 300 227 300 c 1
 227 333 227 367 227 400 c 1
 238 400 249 400 260 400 c 1
 260 433 260 467 260 500 c 1
 338 500 415 500 493 500 c 1
 493 467 493 433 493 400 c 1
EndSplineSet
EndChar

StartChar: t
Encoding: 116 116 73
Width: 760
Flags: HW
HStem: 0 100<460 710> 400 100<260 360 460 560> 680 20G<360 460>
VStem: 360 100<100 400 500 700>
LayerCount: 2
Back
Fore
SplineSet
293 700 m 13
 315 700 338 700 360 700 c 25
 360 633 360 567 360 500 c 25
 382 500 405 500 427 500 c 25
 427 467 427 433 427 400 c 25
 405 400 382 400 360 400 c 25
 360 300 360 200 360 100 c 25
 416 100 471 100 527 100 c 25
 527 67 527 33 527 0 c 25
 460 0 394 0 327 0 c 25
 327 33 327 67 327 100 c 25
 316 100 304 100 293 100 c 25
 293 200 293 300 293 400 c 25
 271 400 249 400 227 400 c 25
 227 433 227 467 227 500 c 25
 249 500 271 500 293 500 c 25
 293 567 293 633 293 700 c 13
EndSplineSet
EndChar

StartChar: u
Encoding: 117 117 74
Width: 760
Flags: HW
HStem: 0 100<360 560> 100 100<560 610> 480 20G<260 360 610 710>
VStem: 260 100<100 500> 560 150<100 200> 610 100<0 100 200 500>
LayerCount: 2
Back
Fore
SplineSet
227 500 m 13
 249 500 271 500 293 500 c 25
 293 367 293 233 293 100 c 25
 337 100 383 100 427 100 c 25
 427 133 427 167 427 200 c 25
 438 200 449 200 460 200 c 25
 460 300 460 400 460 500 c 25
 482 500 505 500 527 500 c 25
 527 333 527 167 527 0 c 25
 505 0 482 0 460 0 c 25
 460 33 460 67 460 100 c 25
 449 100 438 100 427 100 c 25
 427 67 427 33 427 0 c 25
 371 0 316 0 260 0 c 25
 260 33 260 67 260 100 c 25
 249 100 238 100 227 100 c 25
 227 233 227 367 227 500 c 13
EndSplineSet
EndChar

StartChar: v
Encoding: 118 118 75
Width: 760
Flags: HW
HStem: 0 21G<410 510> 400 100<210 260 660 710>
VStem: 210 100<400 500> 260 100<300 400> 310 100<200 300> 410 100<0 100> 510 100<200 300> 560 100<300 400> 610 100<400 500>
LayerCount: 2
Back
Fore
SplineSet
193 500 m 13
 215 500 238 500 260 500 c 25
 260 467 260 433 260 400 c 25
 271 400 282 400 293 400 c 25
 293 367 293 333 293 300 c 25
 304 300 316 300 327 300 c 25
 327 267 327 233 327 200 c 25
 349 200 371 200 393 200 c 25
 393 233 393 267 393 300 c 25
 404 300 416 300 427 300 c 25
 427 333 427 367 427 400 c 25
 438 400 449 400 460 400 c 25
 460 433 460 467 460 500 c 25
 482 500 505 500 527 500 c 25
 527 467 527 433 527 400 c 25
 516 400 504 400 493 400 c 25
 493 367 493 333 493 300 c 25
 482 300 471 300 460 300 c 25
 460 267 460 233 460 200 c 25
 449 200 438 200 427 200 c 25
 427 167 427 133 427 100 c 25
 416 100 404 100 393 100 c 25
 393 67 393 33 393 0 c 25
 371 0 349 0 327 0 c 25
 327 33 327 67 327 100 c 25
 316 100 304 100 293 100 c 25
 293 133 293 167 293 200 c 25
 282 200 271 200 260 200 c 25
 260 233 260 267 260 300 c 25
 249 300 238 300 227 300 c 25
 227 333 227 367 227 400 c 25
 216 400 204 400 193 400 c 25
 193 433 193 467 193 500 c 13
EndSplineSet
EndChar

StartChar: w
Encoding: 119 119 76
Width: 760
Flags: HW
HStem: 0 100<360 410 510 560> 480 20G<210 310 610 710>
VStem: 210 100<200 500> 260 100<100 200> 410 100<100 400> 560 100<100 200> 610 100<200 500>
LayerCount: 2
Back
Fore
SplineSet
460 500 m 13
 482 500 505 500 527 500 c 25
 527 400 527 300 527 200 c 25
 516 200 504 200 493 200 c 25
 493 167 493 133 493 100 c 25
 482 100 471 100 460 100 c 25
 460 67 460 33 460 0 c 25
 438 0 415 0 393 0 c 25
 393 33 393 67 393 100 c 25
 371 100 349 100 327 100 c 25
 327 67 327 33 327 0 c 25
 305 0 282 0 260 0 c 25
 260 33 260 67 260 100 c 25
 249 100 238 100 227 100 c 25
 227 133 227 167 227 200 c 25
 216 200 204 200 193 200 c 25
 193 300 193 400 193 500 c 25
 215 500 238 500 260 500 c 25
 260 400 260 300 260 200 c 25
 271 200 282 200 293 200 c 25
 293 167 293 133 293 100 c 25
 304 100 316 100 327 100 c 25
 327 200 327 300 327 400 c 25
 349 400 371 400 393 400 c 25
 393 300 393 200 393 100 c 25
 404 100 416 100 427 100 c 25
 427 133 427 167 427 200 c 25
 438 200 449 200 460 200 c 25
 460 300 460 400 460 500 c 13
EndSplineSet
EndChar

StartChar: x
Encoding: 120 120 77
Width: 760
Flags: HW
HStem: 0 100<210 310 610 710> 200 100<410 510> 400 100<210 310 610 710>
VStem: 210 150<0 100 400 500> 310 100<100 200 300 400> 510 100<100 200 300 400> 560 150<0 100 400 500>
CounterMasks: 1 e0
LayerCount: 2
Back
Fore
SplineSet
193 500 m 13
 226 500 260 500 293 500 c 25
 293 467 293 433 293 400 c 25
 304 400 316 400 327 400 c 25
 327 367 327 333 327 300 c 25
 349 300 371 300 393 300 c 25
 393 333 393 367 393 400 c 25
 404 400 416 400 427 400 c 25
 427 433 427 467 427 500 c 25
 460 500 494 500 527 500 c 25
 527 467 527 433 527 400 c 25
 505 400 482 400 460 400 c 25
 460 367 460 333 460 300 c 25
 449 300 438 300 427 300 c 25
 427 267 427 233 427 200 c 25
 438 200 449 200 460 200 c 25
 460 167 460 133 460 100 c 25
 482 100 505 100 527 100 c 25
 527 67 527 33 527 0 c 25
 494 0 460 0 427 0 c 25
 427 33 427 67 427 100 c 25
 416 100 404 100 393 100 c 25
 393 133 393 167 393 200 c 25
 371 200 349 200 327 200 c 25
 327 167 327 133 327 100 c 25
 316 100 304 100 293 100 c 25
 293 67 293 33 293 0 c 25
 260 0 226 0 193 0 c 25
 193 33 193 67 193 100 c 25
 215 100 238 100 260 100 c 25
 260 133 260 167 260 200 c 25
 271 200 282 200 293 200 c 25
 293 233 293 267 293 300 c 25
 282 300 271 300 260 300 c 25
 260 333 260 367 260 400 c 25
 238 400 215 400 193 400 c 25
 193 433 193 467 193 500 c 13
EndSplineSet
EndChar

StartChar: y
Encoding: 121 121 78
Width: 760
Flags: HW
HStem: -200 100<260 360> 400 100<260 310 660 710>
VStem: 260 100<400 500> 310 100<300 400> 360 100<-100 0 200 300> 410 150<100 200> 410 100<0 100> 510 100<200 300> 560 100<300 400> 610 100<400 500>
LayerCount: 2
Back
Fore
SplineSet
227 500 m 13
 249 500 271 500 293 500 c 25
 293 467 293 433 293 400 c 25
 304 400 316 400 327 400 c 25
 327 367 327 333 327 300 c 25
 338 300 349 300 360 300 c 25
 360 267 360 233 360 200 c 25
 371 200 382 200 393 200 c 25
 393 233 393 267 393 300 c 25
 404 300 416 300 427 300 c 25
 427 333 427 367 427 400 c 25
 438 400 449 400 460 400 c 25
 460 433 460 467 460 500 c 25
 482 500 505 500 527 500 c 25
 527 467 527 433 527 400 c 25
 516 400 504 400 493 400 c 25
 493 367 493 333 493 300 c 25
 482 300 471 300 460 300 c 25
 460 267 460 233 460 200 c 25
 449 200 438 200 427 200 c 25
 427 167 427 133 427 100 c 25
 416 100 404 100 393 100 c 25
 393 67 393 33 393 0 c 25
 382 0 371 0 360 0 c 25
 360 -33 360 -67 360 -100 c 25
 349 -100 338 -100 327 -100 c 25
 327 -133 327 -167 327 -200 c 25
 294 -200 260 -200 227 -200 c 25
 227 -167 227 -133 227 -100 c 25
 249 -100 271 -100 293 -100 c 25
 293 -67 293 -33 293 0 c 25
 304 0 316 0 327 0 c 25
 327 67 327 133 327 200 c 25
 316 200 304 200 293 200 c 25
 293 233 293 267 293 300 c 25
 282 300 271 300 260 300 c 25
 260 333 260 367 260 400 c 25
 249 400 238 400 227 400 c 25
 227 433 227 467 227 500 c 13
EndSplineSet
EndChar

StartChar: z
Encoding: 122 122 79
Width: 760
Flags: HW
HStem: 0 100<260 360 460 660> 400 100<260 460 560 660>
VStem: 360 100<100 200> 410 100<200 300> 460 100<300 400>
LayerCount: 2
Back
Fore
SplineSet
227 500 m 13
 316 500 404 500 493 500 c 25
 493 467 493 433 493 400 c 25
 471 400 449 400 427 400 c 25
 427 367 427 333 427 300 c 25
 416 300 404 300 393 300 c 25
 393 267 393 233 393 200 c 25
 382 200 371 200 360 200 c 25
 360 167 360 133 360 100 c 25
 404 100 449 100 493 100 c 25
 493 67 493 33 493 0 c 25
 404 0 316 0 227 0 c 25
 227 33 227 67 227 100 c 25
 249 100 271 100 293 100 c 25
 293 133 293 167 293 200 c 25
 304 200 316 200 327 200 c 25
 327 233 327 267 327 300 c 25
 338 300 349 300 360 300 c 25
 360 333 360 367 360 400 c 25
 316 400 271 400 227 400 c 25
 227 433 227 467 227 500 c 13
EndSplineSet
EndChar

StartChar: edieresis
Encoding: 235 235 82
Width: 760
Flags: HW
HStem: 0 100<310 660> 200 100<310 610> 400 101<310 610> 600 100<310 410 510 610>
VStem: 210 100<100 200 300 400> 310 100<600 700> 510 100<600 700> 610 100<300 400>
LayerCount: 2
Back
Fore
SplineSet
393 700 m 13
 415 700 438 700 460 700 c 25
 460 667 460 633 460 600 c 25
 438 600 415 600 393 600 c 25
 393 633 393 667 393 700 c 13
260 700 m 9
 282 700 305 700 327 700 c 25
 327 667 327 633 327 600 c 25
 305 600 282 600 260 600 c 25
 260 633 260 667 260 700 c 9
260 400 m 9
 260 367 260 333 260 300 c 25
 327 300 393 300 460 300 c 25
 460 333 460 367 460 400 c 25
 393 400 327 400 260 400 c 9
227 400 m 9
 227 434 227 467 227 501 c 25
 316 501 404 500 493 500 c 25
 493 467 493 433 493 400 c 25
 504 400 516 400 527 400 c 25
 527 333 527 267 527 200 c 25
 438 200 349 200 260 200 c 25
 260 167 260 133 260 100 c 25
 338 100 415 100 493 100 c 25
 493 67 493 33 493 0 c 25
 404 0 316 0 227 0 c 25
 227 33 227 67 227 100 c 25
 216 100 204 100 193 100 c 25
 193 200 193 300 193 400 c 25
 204 400 216 400 227 400 c 9
EndSplineSet
EndChar

StartChar: uni0401
Encoding: 1025 1025 97
Width: 760
Flags: HW
HStem: 0 100<360 710> 300 100<360 610> 500 100<360 710> 700 100<310 410 560 660>
VStem: 260 100<100 300 400 500> 310 100<700 800> 560 100<700 800>
LayerCount: 2
Back
Fore
SplineSet
427 700 m 9
 427 733 427 767 427 800 c 25
 449 800 471 800 493 800 c 25
 493 767 493 733 493 700 c 25
 471 700 449 700 427 700 c 9
260 700 m 9
 260 733 260 767 260 800 c 25
 282 800 305 800 327 800 c 25
 327 767 327 733 327 700 c 25
 305 700 282 700 260 700 c 9
527 500 m 1
 449 500 371 500 293 500 c 1
 293 467 293 433 293 400 c 1
 349 400 404 400 460 400 c 25
 460 367 460 333 460 300 c 25
 404 300 349 300 293 300 c 25
 293 233 293 167 293 100 c 25
 371 100 449 100 527 100 c 25
 527 67 527 33 527 0 c 25
 427 0 327 0 227 0 c 1
 227 200 227 400 227 600 c 1
 327 600 427 600 527 600 c 1
 527 567 527 533 527 500 c 1
EndSplineSet
EndChar

StartChar: uni0404
Encoding: 1028 1028 100
Width: 760
Flags: HW
HStem: 0 100<360 560> 100 100<610 660> 300 100<310 510> 500 100<610 660> 600 100<360 560>
VStem: 210 100<200 300 400 500> 260 100<100 200 500 600> 310 300<0 100 600 700> 560 100<100 200 500 600>
LayerCount: 2
Back
Fore
SplineSet
293 500 m 13
 282 500 271 500 260 500 c 25
 260 467 260 433 260 400 c 25
 304 400 349 400 393 400 c 25
 393 367 393 333 393 300 c 25
 349 300 304 300 260 300 c 25
 260 267 260 233 260 200 c 25
 271 200 282 200 293 200 c 25
 293 167 293 133 293 100 c 25
 337 100 383 100 427 100 c 25
 427 133 427 167 427 200 c 25
 449 200 471 200 493 200 c 25
 493 167 493 133 493 100 c 25
 482 100 471 100 460 100 c 25
 460 67 460 33 460 0 c 25
 393 0 327 0 260 0 c 25
 260 33 260 67 260 100 c 25
 249 100 238 100 227 100 c 25
 227 133 227 167 227 200 c 25
 216 200 204 200 193 200 c 25
 193 300 193 400 193 500 c 25
 204 500 216 500 227 500 c 25
 227 533 227 567 227 600 c 25
 238 600 249 600 260 600 c 25
 260 633 260 667 260 700 c 25
 327 700 393 700 460 700 c 25
 460 667 460 633 460 600 c 25
 471 600 482 600 493 600 c 25
 493 567 493 533 493 500 c 25
 471 500 449 500 427 500 c 25
 427 533 427 567 427 600 c 25
 383 600 337 600 293 600 c 25
 293 567 293 533 293 500 c 13
EndSplineSet
EndChar

StartChar: uni0406
Encoding: 1030 1030 102
Width: 760
Flags: HW
HStem: 0 100<260 410 510 660> 600 100<260 410 510 660>
VStem: 410 100<100 600>
LayerCount: 2
Back
Fore
SplineSet
227 700 m 13
 316 700 404 700 493 700 c 25
 493 667 493 633 493 600 c 25
 460 600 426 600 393 600 c 25
 393 433 393 267 393 100 c 25
 426 100 460 100 493 100 c 25
 493 67 493 33 493 0 c 25
 404 0 316 0 227 0 c 25
 227 33 227 67 227 100 c 25
 260 100 294 100 327 100 c 25
 327 267 327 433 327 600 c 25
 294 600 260 600 227 600 c 25
 227 633 227 667 227 700 c 13
EndSplineSet
EndChar

StartChar: uni0407
Encoding: 1031 1031 103
Width: 760
Flags: HMW
LayerCount: 2
Back
Fore
SplineSet
393 650 m 13
 393 683 393 717 393 750 c 25
 415 750 438 750 460 750 c 25
 460 717 460 683 460 650 c 25
 438 650 415 650 393 650 c 13
260 650 m 9
 260 683 260 717 260 750 c 25
 282 750 305 750 327 750 c 25
 327 717 327 683 327 650 c 25
 305 650 282 650 260 650 c 9
227 500 m 9
 227 533 227 567 227 600 c 25
 316 600 404 600 493 600 c 25
 493 567 493 533 493 500 c 25
 460 500 426 500 393 500 c 25
 393 367 393 233 393 100 c 25
 426 100 460 100 493 100 c 25
 493 67 493 33 493 0 c 25
 404 0 316 0 227 0 c 25
 227 33 227 67 227 100 c 25
 260 100 294 100 327 100 c 25
 327 233 327 367 327 500 c 25
 294 500 260 500 227 500 c 9
EndSplineSet
EndChar

StartChar: uni040E
Encoding: 1038 1038 109
Width: 760
Flags: HW
HStem: 0 100<360 610> 100 100<260 310> 300 100<360 610> 680 20G<260 360 610 710> 700 100<460 510>
VStem: 260 100<100 200 400 700> 460 50<700 800> 610 100<100 300 400 700>
CounterMasks: 1 07
LayerCount: 2
Back
Fore
SplineSet
360 700 m 13
 360 733 360 767 360 800 c 25
 371 800 382 800 393 800 c 25
 393 767 393 733 393 700 c 25
 382 700 371 700 360 700 c 13
227 700 m 9
 249 700 271 700 293 700 c 25
 293 600 293 500 293 400 c 25
 349 400 404 400 460 400 c 25
 460 500 460 600 460 700 c 25
 482 700 505 700 527 700 c 25
 527 500 527 300 527 100 c 25
 516 100 504 100 493 100 c 25
 493 67 493 33 493 0 c 25
 415 0 338 0 260 0 c 25
 260 33 260 67 260 100 c 25
 249 100 238 100 227 100 c 25
 227 133 227 167 227 200 c 25
 249 200 271 200 293 200 c 25
 293 167 293 133 293 100 c 25
 349 100 404 100 460 100 c 25
 460 167 460 233 460 300 c 25
 393 300 327 300 260 300 c 25
 260 333 260 367 260 400 c 25
 249 400 238 400 227 400 c 25
 227 500 227 600 227 700 c 9
EndSplineSet
EndChar

StartChar: uni0410
Encoding: 1040 1040 111
Width: 760
Flags: HW
HStem: 0 21G<210 310 610 710> 200 100<310 610> 600 100<410 510>
VStem: 210 100<0 200 300 400> 260 100<400 500> 310 100<500 600> 510 100<500 600> 560 100<400 500> 610 100<0 200 300 400>
LayerCount: 2
Back
Fore
SplineSet
260 400 m 13
 260 367 260 333 260 300 c 25
 327 300 393 300 460 300 c 25
 460 333 460 367 460 400 c 25
 449 400 438 400 427 400 c 25
 427 433 427 467 427 500 c 25
 416 500 404 500 393 500 c 25
 393 533 393 567 393 600 c 25
 371 600 349 600 327 600 c 25
 327 567 327 533 327 500 c 25
 316 500 304 500 293 500 c 25
 293 467 293 433 293 400 c 25
 282 400 271 400 260 400 c 13
260 0 m 9
 238 0 215 0 193 0 c 25
 193 133 193 267 193 400 c 25
 204 400 216 400 227 400 c 25
 227 433 227 467 227 500 c 25
 238 500 249 500 260 500 c 25
 260 533 260 567 260 600 c 25
 271 600 282 600 293 600 c 25
 293 633 293 667 293 700 c 25
 337 700 382 700 426 700 c 25
 426 667 427 633 427 600 c 25
 438 600 449 600 460 600 c 25
 460 567 460 533 460 500 c 25
 471 500 482 500 493 500 c 25
 493 467 493 433 493 400 c 25
 504 400 516 400 527 400 c 25
 527 267 527 133 527 0 c 25
 505 0 482 0 460 0 c 25
 460 67 460 133 460 200 c 25
 393 200 327 200 260 200 c 25
 260 133 260 67 260 0 c 9
EndSplineSet
EndChar

StartChar: uni0411
Encoding: 1041 1041 112
Width: 760
Flags: HW
HStem: 0 100<360 610> 300 100<360 610> 600 100<360 660>
VStem: 260 400<0 100 300 400 600 700> 260 100<100 300 400 600> 610 100<100 300>
CounterMasks: 1 e0
LayerCount: 2
Back
Fore
SplineSet
293 100 m 13
 349 100 404 100 460 100 c 25
 460 167 460 233 460 300 c 25
 404 300 349 300 293 300 c 25
 293 233 293 167 293 100 c 13
227 700 m 9
 316 700 404 700 493 700 c 25
 493 667 493 633 493 600 c 25
 426 600 360 600 293 600 c 25
 293 533 293 467 293 400 c 25
 360 400 426 400 493 400 c 25
 493 367 493 333 493 300 c 25
 504 300 516 300 527 300 c 25
 527 233 527 167 527 100 c 25
 516 100 504 100 493 100 c 25
 493 67 493 33 493 0 c 25
 404 0 316 0 227 0 c 25
 227 233 227 467 227 700 c 9
EndSplineSet
EndChar

StartChar: uni0412
Encoding: 1042 1042 113
Width: 760
Flags: HW
HStem: 0 100<360 610> 300 100<360 610> 600 100<360 610>
VStem: 260 400<0 100 300 400 600 700> 260 100<100 300 400 600> 610 100<100 300 400 600>
CounterMasks: 1 e0
LayerCount: 2
Back
Fore
SplineSet
293 600 m 13
 293 533 293 467 293 400 c 25
 349 400 404 400 460 400 c 25
 460 467 460 533 460 600 c 25
 404 600 349 600 293 600 c 13
293 300 m 9
 293 233 293 167 293 100 c 25
 349 100 404 100 460 100 c 25
 460 167 460 233 460 300 c 25
 404 300 349 300 293 300 c 9
227 0 m 9
 227 233 227 467 227 700 c 25
 316 700 404 700 493 700 c 25
 493 667 493 633 493 600 c 25
 504 600 516 600 527 600 c 25
 527 533 527 467 527 400 c 25
 516 400 504 400 493 400 c 25
 493 367 493 333 493 300 c 25
 504 300 516 300 527 300 c 25
 527 233 527 167 527 100 c 25
 516 100 504 100 493 100 c 25
 493 67 493 33 493 0 c 25
 404 0 316 0 227 0 c 9
EndSplineSet
EndChar

StartChar: uni0413
Encoding: 1043 1043 114
Width: 760
Flags: HW
HStem: 0 21G<260 360> 600 100<360 710>
VStem: 260 100<0 600>
LayerCount: 2
Back
Fore
SplineSet
227 700 m 13
 327 700 427 700 527 700 c 25
 527 667 527 633 527 600 c 25
 449 600 371 600 293 600 c 25
 293 400 293 200 293 0 c 25
 271 0 249 0 227 0 c 25
 227 233 227 467 227 700 c 13
EndSplineSet
EndChar

StartChar: uni0414
Encoding: 1044 1044 115
Width: 760
Flags: HW
HStem: 0 100<410 560> 600 100<460 560>
VStem: 260 100<-100 0> 310 100<100 500> 360 100<500 600> 560 100<100 600> 610 100<-100 0>
LayerCount: 2
Back
Fore
SplineSet
360 600 m 13
 360 567 360 533 360 500 c 25
 349 500 338 500 327 500 c 25
 327 367 327 233 327 100 c 25
 360 100 394 100 427 100 c 25
 427 267 427 433 427 600 c 25
 405 600 382 600 360 600 c 13
293 500 m 9
 293 533 293 567 293 600 c 25
 304 600 316 600 327 600 c 25
 327 633 327 667 327 700 c 25
 383 700 437 700 493 700 c 25
 493 500 493 300 493 100 c 25
 504 100 516 100 527 100 c 25
 527 33 527 -33 527 -100 c 25
 505 -100 482 -100 460 -100 c 25
 460 -67 460 -33 460 0 c 25
 404 0 349 0 293 0 c 25
 293 -33 293 -67 293 -100 c 25
 271 -100 249 -100 227 -100 c 25
 227 -33 227 33 227 100 c 25
 238 100 249 100 260 100 c 25
 260 233 260 367 260 500 c 25
 271 500 282 500 293 500 c 9
EndSplineSet
EndChar

StartChar: uni0415
Encoding: 1045 1045 116
Width: 760
Flags: HW
HStem: 0 100<360 710> 300 100<360 610> 600 100<360 710>
VStem: 260 100<100 300 400 600>
CounterMasks: 1 e0
LayerCount: 2
Back
Fore
SplineSet
527 600 m 13
 449 600 371 600 293 600 c 29
 293 533 293 467 293 400 c 29
 349 400 404 400 460 400 c 29
 460 367 460 333 460 300 c 29
 404 300 349 300 293 300 c 29
 293 233 293 167 293 100 c 29
 371 100 449 100 527 100 c 29
 527 67 527 33 527 0 c 29
 427 0 327 0 227 0 c 29
 227 233 227 467 227 700 c 29
 327 700 427 700 527 700 c 29
 527 667 527 633 527 600 c 13
EndSplineSet
EndChar

StartChar: uni0416
Encoding: 1046 1046 117
Width: 760
Flags: HW
HStem: 0 21G<210 310 410 510 610 710> 300 100<360 410 510 560> 680 20G<210 309.1 410 510 610 710>
VStem: 210 100<0 200 500 700> 260 100<200 300 400 500> 410 100<0 300 400 700> 560 100<200 300 400 500> 610 100<0 200 500 700>
LayerCount: 2
Back
Fore
SplineSet
193 700 m 13
 215 700 237 700 259 700 c 25
 259 633 260 567 260 500 c 25
 271 500 282 500 293 500 c 25
 293 467 293 433 293 400 c 25
 304 400 316 400 327 400 c 25
 327 500 327 600 327 700 c 25
 349 700 371 700 393 700 c 25
 393 600 393 500 393 400 c 25
 404 400 416 400 427 400 c 25
 427 433 427 467 427 500 c 25
 438 500 449 500 460 500 c 25
 460 567 460 633 460 700 c 25
 482 700 505 700 527 700 c 25
 527 633 527 567 527 500 c 25
 516 500 504 500 493 500 c 25
 493 467 493 433 493 400 c 25
 482 400 471 400 460 400 c 25
 460 367 459 333 459 300 c 25
 470 300 482 300 493 300 c 25
 493 267 493 233 493 200 c 25
 504 200 516 200 527 200 c 25
 527 133 527 67 527 0 c 25
 505 0 482 0 460 0 c 25
 460 67 460 133 460 200 c 25
 449 200 438 200 427 200 c 25
 427 233 427 267 427 300 c 25
 416 300 404 300 393 300 c 25
 393 200 393 100 393 0 c 25
 371 0 349 0 327 0 c 25
 327 100 327 200 327 300 c 25
 316 300 304 300 293 300 c 25
 293 267 293 233 293 200 c 25
 282 200 271 200 260 200 c 25
 260 133 260 67 260 0 c 25
 238 0 215 0 193 0 c 25
 193 67 193 133 193 200 c 25
 204 200 216 200 227 200 c 25
 227 233 227 267 227 300 c 25
 238 300 249 300 260 300 c 25
 260 333 260 367 260 400 c 25
 249 400 238 400 227 400 c 25
 227 433 227 467 227 500 c 25
 216 500 204 500 193 500 c 25
 193 567 193 633 193 700 c 13
EndSplineSet
EndChar

StartChar: uni0417
Encoding: 1047 1047 118
Width: 760
Flags: HW
HStem: 0 100<360 610> 100 100<260 310> 300 100<410 610> 500 100<260 310> 600 100<360 610>
VStem: 260 100<100 200 500 600> 610 100<100 300 400 600>
LayerCount: 2
Back
Fore
SplineSet
227 500 m 13
 227 533 227 567 227 600 c 1
 238 600 249 600 260 600 c 25
 260 633 260 667 260 700 c 25
 338 700 415 700 493 700 c 25
 493 667 493 633 493 600 c 25
 504 600 516 600 527 600 c 25
 527 533 527 467 527 400 c 25
 516 400 504 400 493 400 c 25
 493 367 493 333 493 300 c 25
 504 300 516 300 527 300 c 25
 527 233 527 167 527 100 c 25
 516 100 504 100 493 100 c 25
 493 67 493 33 493 0 c 25
 415 0 338 0 260 0 c 25
 260 33 260 67 260 100 c 25
 249 100 238 100 227 100 c 25
 227 133 227 167 227 200 c 25
 249 200 271 200 293 200 c 25
 293 167 293 133 293 100 c 25
 349 100 404 100 460 100 c 25
 460 167 460 233 460 300 c 25
 416 300 371 300 327 300 c 25
 327 333 327 367 327 400 c 25
 371 400 416 400 460 400 c 25
 460 467 460 533 460 600 c 25
 404 600 349 600 293 600 c 25
 293 567 293 533 293 500 c 1
 271 500 249 500 227 500 c 13
EndSplineSet
EndChar

StartChar: uni0418
Encoding: 1048 1048 119
Width: 760
Flags: HW
HStem: 0 21G<210 360 610 710> 680 20G<210 310 560 710>
VStem: 210 150<0 100> 210 100<200 700> 360 100<200 300> 410 100<300 400> 460 100<400 500> 560 150<600 700> 610 100<0 500>
LayerCount: 2
Back
Fore
SplineSet
193 700 m 13
 215 700 238 700 260 700 c 29
 260 533 260 367 260 200 c 29
 271 200 282 200 293 200 c 29
 293 233 293 267 293 300 c 29
 304 300 316 300 327 300 c 29
 327 333 327 367 327 400 c 29
 338 400 349 400 360 400 c 29
 360 433 360 467 360 500 c 29
 371 500 382 500 393 500 c 29
 393 533 393 567 393 600 c 29
 404 600 416 600 427 600 c 29
 427 633 427 667 427 700 c 29
 460 700 494 700 527 700 c 29
 527 467 527 233 527 0 c 29
 505 0 482 0 460 0 c 29
 460 167 460 333 460 500 c 29
 449 500 438 500 427 500 c 29
 427 467 427 433 427 400 c 29
 416 400 404 400 393 400 c 29
 393 367 393 333 393 300 c 29
 382 300 371 300 360 300 c 29
 360 267 360 233 360 200 c 29
 349 200 338 200 327 200 c 29
 327 167 327 133 327 100 c 29
 316 100 304 100 293 100 c 29
 293 67 293 33 293 0 c 29
 260 0 226 0 193 0 c 29
 193 233 193 467 193 700 c 13
EndSplineSet
EndChar

StartChar: uni0419
Encoding: 1049 1049 120
Width: 760
Flags: HW
HStem: 0 21G<210 360 610 710> 680 20G<210 310 560 710> 700 100<410 460>
VStem: 210 150<0 100> 210 100<200 700> 360 100<200 300> 410 100<300 400> 410 50<700 800> 460 100<400 500> 560 150<600 700> 610 100<0 500>
LayerCount: 2
Back
Fore
SplineSet
327 700 m 13
 327 733 327 767 327 800 c 25
 338 800 349 800 360 800 c 25
 360 767 360 733 360 700 c 25
 349 700 338 700 327 700 c 13
193 700 m 9
 215 700 238 700 260 700 c 25
 260 533 260 367 260 200 c 25
 271 200 282 200 293 200 c 25
 293 233 293 267 293 300 c 25
 304 300 316 300 327 300 c 25
 327 333 327 367 327 400 c 25
 338 400 349 400 360 400 c 25
 360 433 360 467 360 500 c 25
 371 500 382 500 393 500 c 25
 393 533 393 567 393 600 c 25
 404 600 416 600 427 600 c 25
 427 633 427 667 427 700 c 25
 460 700 494 700 527 700 c 25
 527 467 527 233 527 0 c 25
 505 0 482 0 460 0 c 25
 460 167 460 333 460 500 c 25
 449 500 438 500 427 500 c 25
 427 467 427 433 427 400 c 25
 416 400 404 400 393 400 c 25
 393 367 393 333 393 300 c 25
 382 300 371 300 360 300 c 25
 360 267 360 233 360 200 c 25
 349 200 338 200 327 200 c 25
 327 167 327 133 327 100 c 25
 316 100 304 100 293 100 c 25
 293 67 293 33 293 0 c 25
 260 0 226 0 193 0 c 25
 193 233 193 467 193 700 c 9
EndSplineSet
EndChar

StartChar: uni041A
Encoding: 1050 1050 121
Width: 760
Flags: HW
HStem: 0 100<610 710> 200 100<460 510> 300 100<360 410> 400 100<460 510> 600 100<610 710>
VStem: 260 100<0 300 400 700> 410 150<200 300 400 500> 510 100<100 200 500 600> 560 150<0 100 600 700>
LayerCount: 2
Back
Fore
SplineSet
227 700 m 13
 249 700 271 700 293 700 c 25
 293 600 293 500 293 400 c 25
 304 400 316 400 327 400 c 25
 327 433 327 467 327 500 c 25
 349 500 371 500 393 500 c 25
 393 533 393 567 393 600 c 25
 404 600 416 600 427 600 c 25
 427 633 427 667 427 700 c 25
 460 700 494 700 527 700 c 25
 527 667 527 633 527 600 c 25
 505 600 482 600 460 600 c 25
 460 567 460 533 460 500 c 25
 449 500 438 500 427 500 c 25
 427 467 427 433 427 400 c 25
 405 400 382 400 360 400 c 25
 360 367 360 333 360 300 c 25
 382 300 405 300 427 300 c 25
 427 267 427 233 427 200 c 25
 438 200 449 200 460 200 c 25
 460 167 460 133 460 100 c 25
 482 100 505 100 527 100 c 25
 527 67 527 33 527 0 c 25
 494 0 460 0 427 0 c 25
 427 33 427 67 427 100 c 25
 416 100 404 100 393 100 c 25
 393 133 393 167 393 200 c 25
 371 200 349 200 327 200 c 25
 327 233 327 267 327 300 c 25
 316 300 304 300 293 300 c 25
 293 200 293 100 293 0 c 25
 271 0 249 0 227 0 c 25
 227 233 227 467 227 700 c 13
EndSplineSet
EndChar

StartChar: uni041B
Encoding: 1051 1051 122
Width: 760
Flags: HW
HStem: 0 100<260 310> 600 100<460 610>
VStem: 260 100<0 100> 310 100<100 200> 360 100<200 600> 610 100<0 600>
LayerCount: 2
Back
Fore
SplineSet
227 0 m 13
 227 33 227 67 227 100 c 25
 238 100 249 100 260 100 c 25
 260 133 260 167 260 200 c 25
 271 200 282 200 293 200 c 25
 293 333 293 467 293 600 c 25
 304 600 316 600 327 600 c 25
 327 633 327 667 327 700 c 25
 394 700 460 700 527 700 c 25
 527 467 527 233 527 0 c 25
 505 0 482 0 460 0 c 25
 460 200 460 400 460 600 c 25
 427 600 393 600 360 600 c 25
 360 467 360 333 360 200 c 25
 349 200 338 200 327 200 c 25
 327 167 327 133 327 100 c 25
 316 100 304 100 293 100 c 25
 293 67 293 33 293 0 c 25
 271 0 249 0 227 0 c 13
EndSplineSet
EndChar

StartChar: uni041C
Encoding: 1052 1052 123
Width: 760
Flags: HW
HStem: 0 21G<210 310 610 710> 680 20G<210 360 560 710>
VStem: 210 150<600 700> 210 100<0 500> 410 100<300 400> 560 150<600 700> 610 100<0 500>
LayerCount: 2
Back
Fore
SplineSet
260 0 m 13
 238 0 215 0 193 0 c 25
 193 233 193 467 193 700 c 25
 226 700 260 700 293 700 c 25
 293 667 293 633 293 600 c 25
 304 600 316 600 327 600 c 25
 327 567 327 533 327 500 c 25
 349 500 371 500 393 500 c 25
 393 533 393 567 393 600 c 25
 404 600 416 600 427 600 c 25
 427 633 427 667 427 700 c 25
 460 700 494 700 527 700 c 25
 527 467 527 233 527 0 c 25
 505 0 482 0 460 0 c 25
 460 167 460 333 460 500 c 25
 449 500 438 500 427 500 c 25
 427 467 427 433 427 400 c 25
 416 400 404 400 393 400 c 25
 393 367 393 333 393 300 c 25
 371 300 349 300 327 300 c 25
 327 333 327 367 327 400 c 25
 316 400 304 400 293 400 c 25
 293 433 293 467 293 500 c 25
 282 500 271 500 260 500 c 25
 260 333 260 167 260 0 c 13
EndSplineSet
EndChar

StartChar: uni041D
Encoding: 1053 1053 124
Width: 760
Flags: HW
HStem: 0 21G<260 360 610 710> 300 100<360 610> 680 20G<260 360 610 710>
VStem: 260 100<0 300 400 700> 610 100<0 300 400 700>
LayerCount: 2
Back
Fore
SplineSet
227 700 m 13
 249 700 271 700 293 700 c 25
 293 600 293 500 293 400 c 25
 349 400 404 400 460 400 c 25
 460 500 460 600 460 700 c 25
 482 700 505 700 527 700 c 25
 527 467 527 233 527 0 c 25
 505 0 482 0 460 0 c 25
 460 100 460 200 460 300 c 25
 404 300 349 300 293 300 c 25
 293 200 293 100 293 0 c 25
 271 0 249 0 227 0 c 25
 227 233 227 467 227 700 c 13
EndSplineSet
EndChar

StartChar: uni041E
Encoding: 1054 1054 125
Width: 760
Flags: HW
HStem: 0 100<360 560> 600 100<360 560>
VStem: 210 100<200 500> 260 100<100 200 500 600> 310 300<0 100 600 700> 560 100<100 200 500 600> 610 100<200 500>
LayerCount: 2
Back
Fore
SplineSet
427 100 m 13
 427 133 427 167 427 200 c 25
 438 200 449 200 460 200 c 25
 460 300 460 400 460 500 c 25
 449 500 438 500 427 500 c 25
 427 533 427 567 427 600 c 25
 383 600 337 600 293 600 c 25
 293 567 293 533 293 500 c 25
 282 500 271 500 260 500 c 25
 260 400 260 300 260 200 c 25
 271 200 282 200 293 200 c 25
 293 167 293 133 293 100 c 25
 337 100 383 100 427 100 c 13
460 0 m 9
 393 0 327 0 260 0 c 25
 260 33 260 67 260 100 c 25
 249 100 238 100 227 100 c 25
 227 133 227 167 227 200 c 25
 216 200 204 200 193 200 c 25
 193 300 193 400 193 500 c 25
 204 500 216 500 227 500 c 25
 227 533 227 567 227 600 c 25
 238 600 249 600 260 600 c 25
 260 633 260 667 260 700 c 25
 327 700 393 700 460 700 c 25
 460 667 460 633 460 600 c 25
 471 600 482 600 493 600 c 25
 493 567 493 533 493 500 c 25
 504 500 516 500 527 500 c 25
 527 400 527 300 527 200 c 25
 516 200 504 200 493 200 c 25
 493 167 493 133 493 100 c 25
 482 100 471 100 460 100 c 25
 460 67 460 33 460 0 c 9
EndSplineSet
EndChar

StartChar: uni041F
Encoding: 1055 1055 126
Width: 760
Flags: HW
HStem: 0 21G<260 360 610 710> 600 100<360 610>
VStem: 260 100<0 600> 610 100<0 600>
LayerCount: 2
Back
Fore
SplineSet
227 700 m 13
 327 700 427 700 527 700 c 25
 527 467 527 233 527 0 c 25
 505 0 482 0 460 0 c 25
 460 200 460 400 460 600 c 25
 404 600 349 600 293 600 c 25
 293 400 293 200 293 0 c 25
 271 0 249 0 227 0 c 25
 227 233 227 467 227 700 c 13
EndSplineSet
EndChar

StartChar: uni0420
Encoding: 1056 1056 127
Width: 760
Flags: HW
HStem: 0 21G<260 360> 300 100<360 610> 600 100<360 610>
VStem: 260 100<0 300 400 600> 610 100<400 600>
LayerCount: 2
Back
Fore
SplineSet
293 600 m 13
 293 533 293 467 293 400 c 25
 349 400 404 400 460 400 c 25
 460 467 460 533 460 600 c 25
 404 600 349 600 293 600 c 13
227 700 m 9
 316 700 404 700 493 700 c 25
 493 683 493 667 493 650 c 25
 504 650 516 650 527 650 c 25
 527 567 527 483 527 400 c 25
 516 400 504 400 493 400 c 25
 493 367 493 333 493 300 c 25
 426 300 360 300 293 300 c 25
 293 200 293 100 293 0 c 25
 271 0 249 0 227 0 c 25
 227 233 227 467 227 700 c 9
EndSplineSet
EndChar

StartChar: uni0421
Encoding: 1057 1057 128
Width: 760
Flags: HW
HStem: 0 100<410 610> 100 100<660 710> 500 100<660 710> 600 100<410 610>
VStem: 260 100<200 500> 310 100<100 200 500 600> 360 300<0 100 600 700> 610 100<100 200 500 600>
LayerCount: 2
Back
Fore
SplineSet
293 700 m 13
 360 700 426 700 493 700 c 25
 493 667 493 633 493 600 c 25
 504 600 516 600 527 600 c 25
 527 567 527 533 527 500 c 25
 505 500 482 500 460 500 c 25
 460 533 460 567 460 600 c 25
 416 600 371 600 327 600 c 25
 327 567 327 533 327 500 c 25
 316 500 304 500 293 500 c 25
 293 400 293 300 293 200 c 25
 304 200 316 200 327 200 c 25
 327 167 327 133 327 100 c 25
 371 100 416 100 460 100 c 25
 460 133 460 167 460 200 c 25
 482 200 505 200 527 200 c 25
 527 167 527 133 527 100 c 25
 516 100 504 100 493 100 c 25
 493 67 493 33 493 0 c 25
 426 0 360 0 293 0 c 25
 293 33 293 67 293 100 c 25
 282 100 271 100 260 100 c 25
 260 133 260 167 260 200 c 25
 249 200 238 200 227 200 c 25
 227 300 227 400 227 500 c 25
 238 500 249 500 260 500 c 25
 260 533 260 567 260 600 c 25
 271 600 282 600 293 600 c 25
 293 633 293 667 293 700 c 13
EndSplineSet
EndChar

StartChar: uni0422
Encoding: 1058 1058 129
Width: 760
Flags: HW
HStem: 0 21G<410 510> 600 100<210 410 510 710>
VStem: 410 100<0 600>
LayerCount: 2
Back
Fore
SplineSet
193 700 m 1
 304 700 416 700 527 700 c 5
 527 667 527 633 527 600 c 1
 483 600 437 600 393 600 c 1
 393 400 393 200 393 0 c 25
 371 0 349 0 327 0 c 25
 327 200 327 400 327 600 c 1
 283 600 237 600 193 600 c 1
 193 633 193 667 193 700 c 1
EndSplineSet
EndChar

StartChar: uni0423
Encoding: 1059 1059 130
Width: 760
Flags: HW
HStem: 0 100<360 610> 100 100<260 310> 300 100<360 610> 680 20G<260 360 610 710>
VStem: 260 100<100 200 400 700> 610 100<100 300 400 700>
LayerCount: 2
Back
Fore
SplineSet
227 700 m 13
 249 700 271 700 293 700 c 25
 293 600 293 500 293 400 c 25
 349 400 404 400 460 400 c 25
 460 500 460 600 460 700 c 25
 482 700 505 700 527 700 c 25
 527 500 527 300 527 100 c 25
 516 100 504 100 493 100 c 25
 493 67 493 33 493 0 c 25
 415 0 338 0 260 0 c 25
 260 33 260 67 260 100 c 25
 249 100 238 100 227 100 c 25
 227 133 227 167 227 200 c 25
 249 200 271 200 293 200 c 25
 293 167 293 133 293 100 c 25
 349 100 404 100 460 100 c 25
 460 167 460 233 460 300 c 25
 393 300 327 300 260 300 c 25
 260 333 260 367 260 400 c 25
 249 400 238 400 227 400 c 25
 227 500 227 600 227 700 c 13
EndSplineSet
EndChar

StartChar: uni0424
Encoding: 1060 1060 131
Width: 760
Flags: HW
HStem: 0 21G<410 510> 100 100<310 410 510 610> 500 100<310 410 510 610> 680 20G<410 510>
VStem: 210 100<200 500> 410 100<0 100 200 500 600 700> 610 100<200 500>
CounterMasks: 1 0e
LayerCount: 2
Back
Fore
SplineSet
393 500 m 13
 393 400 393 300 393 200 c 25
 415 200 438 200 460 200 c 25
 460 300 460 400 460 500 c 25
 438 500 415 500 393 500 c 13
260 500 m 9
 260 400 260 300 260 200 c 25
 282 200 305 200 327 200 c 25
 327 300 327 400 327 500 c 25
 305 500 282 500 260 500 c 9
327 600 m 9
 327 633 327 667 327 700 c 1
 349 700 371 700 393 700 c 25
 393 667 393 633 393 600 c 25
 426 600 460 600 493 600 c 25
 493 567 493 533 493 500 c 25
 504 500 516 500 527 500 c 25
 527 400 527 300 527 200 c 25
 516 200 504 200 493 200 c 25
 493 167 493 133 493 100 c 25
 460 100 426 100 393 100 c 25
 393 67 393 33 393 0 c 25
 371 0 349 0 327 0 c 25
 327 33 327 67 327 100 c 25
 294 100 260 100 227 100 c 25
 227 133 227 167 227 200 c 25
 216 200 204 200 193 200 c 25
 193 300 193 400 193 500 c 25
 204 500 216 500 227 500 c 25
 227 533 227 567 227 600 c 1
 260 600 294 600 327 600 c 9
EndSplineSet
EndChar

StartChar: uni0425
Encoding: 1061 1061 132
Width: 760
Flags: HW
HStem: 0 100<260 310 610 660> 600 100<260 310 610 660>
VStem: 260 100<0 100 600 700> 310 100<100 200 500 600> 360 200<200 300 400 500> 510 100<100 200 500 600> 560 100<0 100 600 700>
LayerCount: 2
Back
Fore
SplineSet
227 700 m 13
 249 700 271 700 293 700 c 25
 293 667 293 633 293 600 c 25
 304 600 316 600 327 600 c 25
 327 567 327 533 327 500 c 25
 349 500 371 500 393 500 c 25
 393 533 393 567 393 600 c 25
 404 600 416 600 427 600 c 25
 427 633 427 667 427 700 c 25
 449 700 471 700 493 700 c 25
 493 667 493 633 493 600 c 25
 482 600 471 600 460 600 c 25
 460 567 460 533 460 500 c 25
 449 500 438 500 427 500 c 25
 427 467 427 433 427 400 c 25
 416 400 404 400 393 400 c 25
 393 367 393 333 393 300 c 25
 404 300 416 300 427 300 c 25
 427 267 427 233 427 200 c 25
 438 200 449 200 460 200 c 25
 460 167 460 133 460 100 c 25
 471 100 482 100 493 100 c 25
 493 67 493 33 493 0 c 25
 471 0 449 0 427 0 c 25
 427 33 427 67 427 100 c 25
 416 100 404 100 393 100 c 25
 393 133 393 167 393 200 c 25
 371 200 349 200 327 200 c 25
 327 167 327 133 327 100 c 25
 316 100 304 100 293 100 c 25
 293 67 293 33 293 0 c 25
 271 0 249 0 227 0 c 25
 227 33 227 67 227 100 c 25
 238 100 249 100 260 100 c 25
 260 133 260 167 260 200 c 25
 271 200 282 200 293 200 c 25
 293 233 293 267 293 300 c 25
 304 300 316 300 327 300 c 25
 327 333 327 367 327 400 c 25
 316 400 304 400 293 400 c 25
 293 433 293 467 293 500 c 25
 282 500 271 500 260 500 c 25
 260 533 260 567 260 600 c 25
 249 600 238 600 227 600 c 25
 227 633 227 667 227 700 c 13
EndSplineSet
EndChar

StartChar: uni0426
Encoding: 1062 1062 133
Width: 760
Flags: HW
HStem: 0 100<360 510> 680 20G<260 360 510 610>
VStem: 260 100<100 700> 510 100<100 700> 610 100<-100 0>
LayerCount: 2
Back
Fore
SplineSet
227 700 m 13
 249 700 271 700 293 700 c 25
 293 500 293 300 293 100 c 25
 326 100 360 100 393 100 c 25
 393 300 393 500 393 700 c 25
 415 700 438 700 460 700 c 25
 460 500 460 300 460 100 c 25
 482 100 505 100 527 100 c 25
 527 33 527 -33 527 -100 c 25
 505 -100 482 -100 460 -100 c 25
 460 -67 460 -33 460 0 c 25
 382 0 305 0 227 0 c 25
 227 233 227 467 227 700 c 13
EndSplineSet
EndChar

StartChar: uni0427
Encoding: 1063 1063 134
Width: 760
Flags: HW
HStem: 0 21G<610 710> 300 100<410 610> 680 20G<260 360 610 710>
VStem: 260 100<500 700> 310 100<400 500> 610 100<0 300 400 700>
LayerCount: 2
Back
Fore
SplineSet
227 700 m 13
 249 700 271 700 293 700 c 25
 293 633 293 567 293 500 c 25
 304 500 316 500 327 500 c 25
 327 467 327 433 327 400 c 25
 371 400 416 400 460 400 c 25
 460 500 460 600 460 700 c 25
 482 700 505 700 527 700 c 25
 527 467 527 233 527 0 c 25
 505 0 482 0 460 0 c 25
 460 100 460 200 460 300 c 25
 404 300 349 300 293 300 c 25
 293 333 293 367 293 400 c 25
 282 400 271 400 260 400 c 25
 260 433 260 467 260 500 c 25
 249 500 238 500 227 500 c 25
 227 567 227 633 227 700 c 13
EndSplineSet
EndChar

StartChar: uni0428
Encoding: 1064 1064 135
Width: 760
Flags: HW
HStem: 0 100<310 410 510 610> 680 20G<210 310 410 510 610 710>
VStem: 210 100<100 700> 410 100<100 700> 610 100<100 700>
CounterMasks: 1 38
LayerCount: 2
Back
Fore
SplineSet
193 700 m 13
 215 700 238 700 260 700 c 25
 260 500 260 300 260 100 c 25
 282 100 305 100 327 100 c 25
 327 300 327 500 327 700 c 25
 349 700 371 700 393 700 c 25
 393 500 393 300 393 100 c 25
 415 100 438 100 460 100 c 25
 460 300 460 500 460 700 c 25
 482 700 505 700 527 700 c 25
 527 467 527 233 527 0 c 25
 416 0 304 0 193 0 c 25
 193 233 193 467 193 700 c 13
EndSplineSet
EndChar

StartChar: uni0429
Encoding: 1065 1065 136
Width: 760
Flags: HW
HStem: 0 100<310 410 510 610> 680 20G<210 310 410 510 610 710>
VStem: 210 100<100 700> 410 100<100 700> 610 100<100 700> 660 100<-100 0>
LayerCount: 2
Back
Fore
SplineSet
193 700 m 13
 215 700 238 700 260 700 c 25
 260 500 260 300 260 100 c 25
 282 100 305 100 327 100 c 25
 327 300 327 500 327 700 c 25
 349 700 371 700 393 700 c 25
 393 500 393 300 393 100 c 25
 415 100 438 100 460 100 c 25
 460 300 460 500 460 700 c 25
 482 700 505 700 527 700 c 25
 527 500 527 300 527 100 c 25
 538 100 549 100 560 100 c 25
 560 33 560 -33 560 -100 c 25
 538 -100 515 -100 493 -100 c 25
 493 -67 493 -33 493 0 c 25
 393 0 293 0 193 0 c 25
 193 233 193 467 193 700 c 13
EndSplineSet
EndChar

StartChar: uni042A
Encoding: 1066 1066 137
Width: 760
Flags: HW
HStem: 0 100<410 610> 300 100<410 610> 600 100<210 310>
VStem: 310 100<100 300 400 600> 610 100<100 300>
CounterMasks: 1 e0
LayerCount: 2
Back
Fore
SplineSet
327 300 m 13
 327 233 327 167 327 100 c 25
 371 100 416 100 460 100 c 25
 460 167 460 233 460 300 c 25
 416 300 371 300 327 300 c 13
193 700 m 9
 237 700 283 700 327 700 c 25
 327 600 327 500 327 400 c 25
 383 400 437 400 493 400 c 25
 493 367 493 333 493 300 c 25
 504 300 516 300 527 300 c 25
 527 233 527 167 527 100 c 25
 516 100 504 100 493 100 c 25
 493 67 493 33 493 0 c 25
 415 0 338 0 260 0 c 25
 260 200 260 400 260 600 c 25
 238 600 215 600 193 600 c 25
 193 633 193 667 193 700 c 9
EndSplineSet
EndChar

StartChar: uni042B
Encoding: 1067 1067 138
Width: 760
Flags: HW
HStem: 0 100<310 460> 300 100<310 460> 680 20G<210 310 610 710>
VStem: 210 300<0 100 300 400> 210 100<100 300 400 700> 460 100<100 300> 610 100<0 700>
LayerCount: 2
Back
Fore
SplineSet
360 300 m 13
 327 300 293 300 260 300 c 25
 260 233 260 167 260 100 c 25
 293 100 327 100 360 100 c 25
 360 167 360 233 360 300 c 13
460 700 m 9
 482 700 505 700 527 700 c 25
 527 467 527 233 527 0 c 25
 505 0 482 0 460 0 c 25
 460 233 460 467 460 700 c 9
193 700 m 9
 215 700 238 700 260 700 c 25
 260 600 260 500 260 400 c 25
 304 400 349 400 393 400 c 25
 393 367 393 333 393 300 c 25
 404 300 416 300 427 300 c 25
 427 233 427 167 427 100 c 25
 416 100 404 100 393 100 c 25
 393 67 393 33 393 0 c 25
 326 0 260 0 193 0 c 25
 193 233 193 467 193 700 c 9
EndSplineSet
EndChar

StartChar: uni042C
Encoding: 1068 1068 139
Width: 760
Flags: HW
HStem: 0 100<410 610> 300 100<410 610> 680 20G<310 409>
VStem: 310 99<100 300 400 700> 610 100<101 300>
LayerCount: 2
Back
Fore
SplineSet
327 100 m 13
 371 100 416 100 460 100 c 25
 460 167 460 233 460 300 c 25
 416 300 371 300 327 300 c 25
 327 233 327 167 327 100 c 13
260 700 m 9
 282 700 304 700 326 700 c 25
 326 600 326 500 326 400 c 25
 382 400 437 400 493 400 c 25
 493 367 493 333 493 300 c 25
 504 300 514 300 525 300 c 25
 525 234 527 167 527 101 c 25
 516 101 504 100 493 100 c 25
 493 67 493 33 493 0 c 25
 415 0 338 0 260 0 c 25
 260 233 260 467 260 700 c 9
EndSplineSet
EndChar

StartChar: uni042D
Encoding: 1069 1069 140
Width: 760
Flags: HW
HStem: 0 100<360 560> 100 100<260 310> 300 100<410 610> 500 100<260 310> 600 100<360 560>
VStem: 260 100<100 200 500 600> 310 300<0 100 600 700> 560 100<100 200 500 600> 610 100<200 300 400 500>
LayerCount: 2
Back
Fore
SplineSet
227 500 m 13
 227 533 227 567 227 600 c 25
 238 600 249 600 260 600 c 25
 260 633 260 667 260 700 c 25
 327 700 393 700 460 700 c 25
 460 667 460 633 460 600 c 25
 471 600 482 600 493 600 c 25
 493 567 493 533 493 500 c 25
 504 500 516 500 527 500 c 25
 527 400 527 300 527 200 c 25
 516 200 504 200 493 200 c 25
 493 167 493 133 493 100 c 25
 482 100 471 100 460 100 c 25
 460 67 460 33 460 0 c 25
 393 0 327 0 260 0 c 25
 260 33 260 67 260 100 c 25
 249 100 238 100 227 100 c 25
 227 133 227 167 227 200 c 25
 249 200 271 200 293 200 c 25
 293 167 293 133 293 100 c 25
 337 100 383 100 427 100 c 25
 427 133 427 167 427 200 c 25
 438 200 449 200 460 200 c 25
 460 233 460 267 460 300 c 25
 416 300 371 300 327 300 c 25
 327 333 327 367 327 400 c 25
 371 400 416 400 460 400 c 25
 460 433 460 467 460 500 c 25
 449 500 438 500 427 500 c 25
 427 533 427 567 427 600 c 25
 383 600 337 600 293 600 c 25
 293 567 293 533 293 500 c 25
 271 500 249 500 227 500 c 13
EndSplineSet
EndChar

StartChar: uni042E
Encoding: 1070 1070 141
Width: 760
Flags: HW
HStem: 0 100<510 610> 300 100<360 410> 600 100<510 610>
VStem: 260 100<0 300 400 700> 410 100<100 300 400 600> 460 200<0 100 600 700> 610 100<100 600>
CounterMasks: 1 e0
LayerCount: 2
Back
Fore
SplineSet
393 600 m 13
 393 433 393 267 393 100 c 25
 415 100 438 100 460 100 c 25
 460 267 460 433 460 600 c 25
 438 600 415 600 393 600 c 13
227 700 m 9
 249 700 271 700 293 700 c 25
 293 600 293 500 293 400 c 25
 304 400 316 400 327 400 c 25
 327 467 327 533 327 600 c 25
 338 600 349 600 360 600 c 25
 360 633 360 667 360 700 c 25
 404 700 449 700 493 700 c 25
 493 667 493 633 493 600 c 25
 504 600 516 600 527 600 c 25
 527 433 527 267 527 100 c 25
 516 100 504 100 493 100 c 25
 493 67 493 33 493 0 c 25
 449 0 404 0 360 0 c 25
 360 33 360 67 360 100 c 25
 349 100 338 100 327 100 c 25
 327 167 327 233 327 300 c 25
 316 300 304 300 293 300 c 25
 293 200 293 100 293 0 c 25
 271 0 249 0 227 0 c 25
 227 233 227 467 227 700 c 9
EndSplineSet
EndChar

StartChar: uni042F
Encoding: 1071 1071 142
Width: 760
Flags: HW
HStem: 0 100<260 360> 300 100<360 460> 600 100<360 610>
VStem: 260 100<400 600> 360 150<100 200> 610 100<0 200 400 600>
CounterMasks: 1 e0
LayerCount: 2
Back
Fore
SplineSet
293 600 m 13
 293 533 293 467 293 400 c 25
 349 400 404 400 460 400 c 25
 460 467 460 533 460 600 c 25
 404 600 349 600 293 600 c 13
260 700 m 9
 349 700 438 700 527 700 c 25
 527 467 527 233 527 0 c 25
 505 0 482 0 460 0 c 25
 460 67 460 133 460 200 c 25
 438 200 415 200 393 200 c 25
 393 167 393 133 393 100 c 25
 382 100 371 100 360 100 c 25
 360 67 360 33 360 0 c 25
 316 0 271 0 227 0 c 25
 227 33 227 67 227 100 c 25
 249 100 271 100 293 100 c 25
 293 133 293 167 293 200 c 25
 315 200 338 200 360 200 c 25
 360 233 360 267 360 300 c 25
 327 300 293 300 260 300 c 25
 260 333 260 367 260 400 c 25
 249 400 238 400 227 400 c 25
 227 467 227 533 227 600 c 25
 238 600 249 600 260 600 c 25
 260 633 260 667 260 700 c 9
EndSplineSet
EndChar

StartChar: uni0430
Encoding: 1072 1072 143
Width: 760
Flags: HW
HStem: 0 100<310 560 660 709> 100 100<210 260> 200 100<310 560> 400 100<260 560>
VStem: 210 100<100 200> 560 100<100 200 300 400>
LayerCount: 2
Back
Fore
SplineSet
260 200 m 13
 260 167 260 133 260 100 c 25
 316 100 371 100 427 100 c 25
 427 133 427 167 427 200 c 25
 371 200 316 200 260 200 c 13
227 500 m 9
 305 500 382 500 460 500 c 25
 460 467 460 433 460 400 c 25
 471 400 482 400 493 400 c 25
 493 300 493 200 493 100 c 25
 504 100 515 100 526 100 c 25
 526 67 527 33 527 0 c 25
 427 0 327 0 227 0 c 25
 227 33 227 67 227 100 c 25
 216 100 204 100 193 100 c 25
 193 133 193 167 193 200 c 25
 204 200 216 200 227 200 c 25
 227 233 227 267 227 300 c 25
 294 300 360 300 427 300 c 25
 427 333 427 367 427 400 c 25
 360 400 294 400 227 400 c 25
 227 433 227 467 227 500 c 9
EndSplineSet
EndChar

StartChar: uni0431
Encoding: 1073 1073 144
Width: 760
Flags: HW
HStem: 0 100<360 610> 300 200<460 610> 300 100<360 460> 600 100<310 360 460 710>
VStem: 260 100<100 300> 360 100<500 600> 460 150<400 500> 610 100<100 300>
LayerCount: 2
Back
Fore
SplineSet
293 300 m 13
 293 233 293 167 293 100 c 25
 349 100 404 100 460 100 c 25
 460 167 460 233 460 300 c 25
 404 300 349 300 293 300 c 13
260 700 m 9
 349 700 438 700 527 700 c 25
 527 667 527 633 527 600 c 25
 471 600 416 600 360 600 c 25
 360 567 360 533 360 500 c 25
 393 500 427 500 460 500 c 25
 460 467 460 433 460 400 c 25
 471 400 482 400 493 400 c 25
 493 367 493 333 493 300 c 25
 504 300 516 300 527 300 c 25
 527 233 527 167 527 100 c 25
 516 100 504 100 493 100 c 25
 493 67 493 33 493 0 c 25
 415 0 338 0 260 0 c 25
 260 33 260 67 260 100 c 25
 249 100 238 100 227 100 c 25
 227 167 227 233 227 300 c 25
 238 300 249 300 260 300 c 25
 260 333 260 367 260 400 c 25
 293 400 327 400 360 400 c 25
 360 433 360 467 360 500 c 25
 338 500 315 500 293 500 c 25
 293 533 293 567 293 600 c 25
 282 600 271 600 260 600 c 25
 260 633 260 667 260 700 c 9
EndSplineSet
EndChar

StartChar: uni0432
Encoding: 1074 1074 145
Width: 760
Flags: HW
HStem: 0 100<360 610> 100 100<660 710> 200 100<360 610> 300 100<660 710> 400 100<360 610>
VStem: 260 400<0 100 200 300 400 500> 260 100<100 200 300 400> 610 100<100 200 300 400>
LayerCount: 2
Back
Fore
SplineSet
293 200 m 13
 293 167 293 133 293 100 c 25
 349 100 404 100 460 100 c 25
 460 133 460 167 460 200 c 25
 404 200 349 200 293 200 c 13
293 400 m 9
 293 367 293 333 293 300 c 25
 349 300 404 300 460 300 c 25
 460 333 460 367 460 400 c 25
 404 400 349 400 293 400 c 9
227 500 m 9
 316 500 404 500 493 500 c 25
 493 467 493 433 493 400 c 25
 504 400 516 400 527 400 c 25
 527 367 527 333 527 300 c 25
 516 300 504 300 493 300 c 25
 493 267 493 233 493 200 c 25
 504 200 516 200 527 200 c 25
 527 167 527 133 527 100 c 25
 516 100 504 100 493 100 c 25
 493 67 493 33 493 0 c 25
 404 0 316 0 227 0 c 25
 227 167 227 333 227 500 c 9
EndSplineSet
EndChar

StartChar: uni0433
Encoding: 1075 1075 146
Width: 760
Flags: HW
HStem: 0 21G<260 360> 400 100<360 710>
VStem: 260 100<0 400>
LayerCount: 2
Back
Fore
SplineSet
227 0 m 13
 227 167 227 333 227 500 c 25
 327 500 427 500 527 500 c 25
 527 467 527 434 527 401 c 25
 449 401 371 400 293 400 c 25
 293 267 293 133 293 0 c 25
 271 0 249 0 227 0 c 13
EndSplineSet
EndChar

StartChar: uni0434
Encoding: 1076 1076 147
Width: 760
Flags: HW
HStem: -100 200<210 309 610 710> -1 101<309 310 410 510> 400 100<410 510>
VStem: 210 100<-100 -1> 310 100<100 400> 510 100<100 400> 610 100<-100 0>
LayerCount: 2
Back
Fore
SplineSet
327 400 m 13
 327 300 327 200 327 100 c 25
 349 100 371 100 393 100 c 25
 393 200 393 300 393 400 c 25
 371 400 349 400 327 400 c 13
293 500 m 9
 349 500 404 500 460 500 c 25
 460 367 460 233 460 100 c 25
 482 100 505 100 527 100 c 25
 527 33 527 -33 527 -100 c 25
 505 -100 482 -100 460 -100 c 25
 460 -67 460 -33 460 0 c 25
 393 0 326 -1 259 -1 c 25
 259 -34 260 -67 260 -100 c 25
 238 -100 215 -100 193 -100 c 25
 193 -33 193 33 193 100 c 25
 215 100 238 100 260 100 c 25
 260 200 260 300 260 400 c 25
 271 400 282 400 293 400 c 25
 293 433 293 467 293 500 c 9
EndSplineSet
EndChar

StartChar: uni0435
Encoding: 1077 1077 148
Width: 760
Flags: HW
HStem: 0 100<310 660> 200 100<310 610> 400 101<310 610>
VStem: 210 100<100 200 300 400> 610 100<300 400>
LayerCount: 2
Back
Fore
SplineSet
260 400 m 13
 260 367 260 333 260 300 c 25
 327 300 393 300 460 300 c 25
 460 333 460 367 460 400 c 25
 393 400 327 400 260 400 c 13
227 400 m 9
 227 434 227 467 227 501 c 25
 316 501 404 500 493 500 c 25
 493 467 493 433 493 400 c 25
 504 400 516 400 527 400 c 25
 527 333 527 267 527 200 c 25
 438 200 349 200 260 200 c 25
 260 167 260 133 260 100 c 25
 338 100 415 100 493 100 c 25
 493 67 493 33 493 0 c 25
 404 0 316 0 227 0 c 25
 227 33 227 67 227 100 c 25
 216 100 204 100 193 100 c 25
 193 200 193 300 193 400 c 25
 204 400 216 400 227 400 c 9
EndSplineSet
EndChar

StartChar: uni0436
Encoding: 1078 1078 149
Width: 760
Flags: HW
HStem: 0 100<210 260 660 710> 200 100<360 410 510 560> 400 100<210 260 660 710>
VStem: 210 100<0 100 400 500> 260 100<100 200 300 400> 410 100<0 200 300 500> 560 100<100 200 300 400> 610 100<0 100 400 500>
CounterMasks: 1 e0
LayerCount: 2
Back
Fore
SplineSet
193 500 m 13
 215 500 238 500 260 500 c 25
 260 467 260 433 260 400 c 25
 271 400 282 400 293 400 c 25
 293 367 293 333 293 300 c 25
 304 300 316 300 327 300 c 25
 327 367 327 433 327 500 c 25
 349 500 371 500 393 500 c 25
 393 433 393 367 393 300 c 25
 404 300 416 300 427 300 c 25
 427 333 427 367 427 400 c 25
 438 400 449 400 460 400 c 25
 460 433 460 467 460 500 c 25
 482 500 505 500 527 500 c 25
 527 467 527 433 527 400 c 25
 516 400 504 400 493 400 c 25
 493 367 493 333 493 300 c 25
 482 300 471 300 460 300 c 25
 460 267 460 233 460 200 c 25
 471 200 482 200 493 200 c 25
 493 167 493 133 493 100 c 25
 504 100 516 100 527 100 c 25
 527 67 527 33 527 0 c 25
 505 0 482 0 460 0 c 25
 460 33 460 67 460 100 c 25
 449 100 438 100 427 100 c 25
 427 133 427 167 427 200 c 25
 416 200 404 200 393 200 c 25
 393 133 393 67 393 0 c 25
 371 0 349 0 327 0 c 25
 327 67 327 133 327 200 c 25
 316 200 304 200 293 200 c 25
 293 167 293 133 293 100 c 25
 282 100 271 100 260 100 c 25
 260 67 260 33 260 0 c 25
 238 0 215 0 193 0 c 25
 193 33 193 67 193 100 c 25
 204 100 216 100 227 100 c 25
 227 133 227 167 227 200 c 25
 238 200 249 200 260 200 c 25
 260 233 260 267 260 300 c 25
 249 300 238 300 227 300 c 25
 227 333 227 367 227 400 c 25
 216 400 204 400 193 400 c 25
 193 433 193 467 193 500 c 13
EndSplineSet
EndChar

StartChar: uni0437
Encoding: 1079 1079 150
Width: 760
Flags: HW
HStem: 0 100<360 610> 100 100<260 310 660 710> 300 100<260 310 660 710> 400 100<360 610>
VStem: 260 100<100 200 300 400> 610 100<100 200 300 400>
LayerCount: 2
Back
Fore
SplineSet
227 400 m 13
 238 400 249 400 260 400 c 1
 260 433 260 467 260 500 c 25
 338 500 415 500 493 500 c 25
 493 467 493 433 493 400 c 25
 504 400 516 400 527 400 c 25
 527 367 527 333 527 300 c 25
 516 300 504 300 493 300 c 25
 493 267 493 233 493 200 c 25
 504 200 516 200 527 200 c 25
 527 167 527 133 527 100 c 25
 516 100 504 100 493 100 c 25
 493 67 493 33 493 0 c 25
 415 0 338 0 260 0 c 25
 260 33 260 67 260 100 c 25
 249 100 238 100 227 100 c 25
 227 133 227 167 227 200 c 25
 249 200 271 200 293 200 c 25
 293 167 293 133 293 100 c 25
 349 100 404 100 460 100 c 25
 460 133 460 167 460 200 c 25
 427 200 393 200 360 200 c 25
 360 233 360 267 360 300 c 25
 393 300 427 300 460 300 c 25
 460 333 460 367 460 400 c 25
 404 400 349 400 293 400 c 25
 293 367 293 333 293 300 c 25
 271 300 249 300 227 300 c 1
 227 333 227 367 227 400 c 13
EndSplineSet
EndChar

StartChar: uni0438
Encoding: 1080 1080 151
Width: 760
Flags: HW
HStem: 0 100<360 410> 100 100<410 460> 200 100<460 510> 300 100<510 560> 400 100<560 610>
VStem: 260 150<0 100> 260 100<100 500> 410 50<100 200> 460 50<200 300> 510 50<300 400> 560 150<400 500> 610 100<0 400>
LayerCount: 2
Back
Fore
SplineSet
227 0 m 13
 227 167 227 333 227 500 c 5
 249 500 271 500 293 500 c 29
 293 367 293 233 293 100 c 29
 304 100 316 100 327 100 c 29
 327 133 327 167 327 200 c 29
 338 200 349 200 360 200 c 29
 360 233 360 267 360 300 c 29
 371 300 382 300 393 300 c 29
 393 333 393 367 393 400 c 29
 404 400 416 400 427 400 c 29
 427 433 427 467 427 500 c 29
 460 500 494 500 527 500 c 29
 527 333 527 167 527 0 c 29
 505 0 482 0 460 0 c 29
 460 133 460 267 460 400 c 29
 449 400 438 400 427 400 c 29
 427 367 427 333 427 300 c 29
 416 300 404 300 393 300 c 29
 393 267 393 233 393 200 c 29
 382 200 371 200 360 200 c 29
 360 167 360 133 360 100 c 29
 349 100 338 100 327 100 c 29
 327 67 327 33 327 0 c 5
 294 0 260 0 227 0 c 13
EndSplineSet
EndChar

StartChar: uni0439
Encoding: 1081 1081 152
Width: 760
Flags: HW
HStem: 0 100<360 410> 100 100<410 460> 200 100<460 510> 300 100<510 560> 400 100<560 610> 600 100<410 560> 700 100<310 360 610 660>
VStem: 260 100<100 500> 310 100<700 800> 410 50<100 200> 460 50<200 300> 510 50<300 400> 560 100<700 800> 610 100<0 400>
LayerCount: 2
Back
Fore
SplineSet
260 800 m 13
 282 800 305 800 327 800 c 25
 327 767 327 733 327 700 c 25
 360 700 394 700 427 700 c 25
 427 733 427 767 427 800 c 25
 449 800 471 800 493 800 c 25
 493 767 493 733 493 700 c 25
 482 700 471 700 460 700 c 25
 460 667 460 633 460 600 c 25
 404 600 349 600 293 600 c 25
 293 633 293 667 293 700 c 25
 282 700 271 700 260 700 c 25
 260 733 260 767 260 800 c 13
227 0 m 9
 227 167 227 333 227 500 c 1
 249 500 271 500 293 500 c 25
 293 367 293 233 293 100 c 25
 304 100 316 100 327 100 c 25
 327 133 327 167 327 200 c 25
 338 200 349 200 360 200 c 25
 360 233 360 267 360 300 c 25
 371 300 382 300 393 300 c 25
 393 333 393 367 393 400 c 25
 404 400 416 400 427 400 c 25
 427 433 427 467 427 500 c 25
 460 500 494 500 527 500 c 25
 527 333 527 167 527 0 c 25
 505 0 482 0 460 0 c 25
 460 133 460 267 460 400 c 25
 449 400 438 400 427 400 c 25
 427 367 427 333 427 300 c 25
 416 300 404 300 393 300 c 25
 393 267 393 233 393 200 c 25
 382 200 371 200 360 200 c 25
 360 167 360 133 360 100 c 25
 349 100 338 100 327 100 c 25
 327 67 327 33 327 0 c 1
 294 0 260 0 227 0 c 9
EndSplineSet
EndChar

StartChar: uni043A
Encoding: 1082 1082 153
Width: 760
Flags: HW
HStem: 0 100<610 710> 200 100<360 510> 400 100<610 710>
VStem: 260 100<0 200 300 500> 510 100<100 200 300 400> 560 150<0 100 400 500>
CounterMasks: 1 e0
LayerCount: 2
Back
Fore
SplineSet
227 500 m 13
 249 500 271 500 293 500 c 25
 293 433 293 367 293 300 c 25
 326 300 360 300 393 300 c 25
 393 333 393 367 393 400 c 25
 404 400 416 400 427 400 c 25
 427 433 427 467 427 500 c 25
 460 500 494 500 527 500 c 25
 527 467 527 433 527 400 c 25
 505 400 482 400 460 400 c 25
 460 367 460 333 460 300 c 25
 449 300 438 300 427 300 c 25
 427 267 427 233 427 200 c 25
 438 200 449 200 460 200 c 25
 460 167 460 133 460 100 c 25
 482 100 505 100 527 100 c 25
 527 67 527 33 527 0 c 25
 494 0 460 0 427 0 c 25
 427 33 427 67 427 100 c 25
 416 100 404 100 393 100 c 25
 393 133 393 167 393 200 c 25
 360 200 326 200 293 200 c 25
 293 133 293 67 293 0 c 25
 271 0 249 0 227 0 c 25
 227 167 227 333 227 500 c 13
EndSplineSet
EndChar

StartChar: uni043B
Encoding: 1083 1083 154
Width: 760
Flags: HW
HStem: 0 100<260 310> 400 100<410 610>
VStem: 260 100<0 100> 310 100<100 400> 610 100<0 400>
LayerCount: 2
Back
Fore
SplineSet
227 100 m 13
 238 100 249 100 260 100 c 25
 260 200 260 300 260 400 c 25
 271 400 282 400 293 400 c 25
 293 433 293 467 293 500 c 25
 371 500 449 500 527 500 c 25
 527 333 527 167 527 0 c 25
 505 0 482 0 460 0 c 25
 460 133 460 267 460 400 c 25
 416 400 371 400 327 400 c 25
 327 300 327 200 327 100 c 25
 316 100 304 100 293 100 c 25
 293 67 293 33 293 0 c 25
 271 0 249 0 227 0 c 25
 227 33 227 67 227 100 c 13
EndSplineSet
EndChar

StartChar: uni043C
Encoding: 1084 1084 155
Width: 760
Flags: HW
HStem: 0 21G<260 360 610 710> 480 20G<260 410 560 710>
VStem: 260 150<400 500> 260 100<0 300> 410 150<200 300> 560 150<400 500> 610 100<0 300>
LayerCount: 2
Back
Fore
SplineSet
227 0 m 13
 227 167 227 333 227 500 c 25
 260 500 294 500 327 500 c 25
 327 467 327 433 327 400 c 25
 338 400 349 400 360 400 c 25
 360 367 360 333 360 300 c 25
 371 300 382 300 393 300 c 25
 393 333 393 367 393 400 c 25
 404 400 416 400 427 400 c 25
 427 433 427 467 427 500 c 25
 460 500 494 500 527 500 c 25
 527 333 527 167 527 0 c 25
 505 0 482 0 460 0 c 25
 460 100 460 200 460 300 c 25
 449 300 438 300 427 300 c 25
 427 267 427 233 427 200 c 25
 416 200 404 200 393 200 c 25
 393 167 393 133 393 100 c 25
 382 100 371 100 360 100 c 25
 360 133 360 167 360 200 c 25
 349 200 338 200 327 200 c 25
 327 233 327 267 327 300 c 25
 316 300 304 300 293 300 c 25
 293 200 293 100 293 0 c 25
 271 0 249 0 227 0 c 13
EndSplineSet
EndChar

StartChar: uni043D
Encoding: 1085 1085 156
Width: 760
Flags: HW
HStem: 0 21G<260 360 610 710> 200 100<360 610> 480 20G<260 360 610 710>
VStem: 260 100<0 200 300 500> 610 100<0 200 300 500>
LayerCount: 2
Back
Fore
SplineSet
227 500 m 13
 249 500 271 500 293 500 c 25
 293 433 293 367 293 300 c 25
 349 300 404 300 460 300 c 25
 460 367 460 433 460 500 c 25
 482 500 505 500 527 500 c 25
 527 333 527 167 527 0 c 25
 505 0 482 0 460 0 c 25
 460 67 460 133 460 200 c 25
 404 200 349 200 293 200 c 25
 293 133 293 67 293 0 c 25
 271 0 249 0 227 0 c 25
 227 167 227 333 227 500 c 13
EndSplineSet
EndChar

StartChar: uni043E
Encoding: 1086 1086 157
Width: 760
Flags: HW
HStem: 0 100<360 610> 400 100<360 610>
VStem: 260 100<100 400> 610 100<100 400>
LayerCount: 2
Back
Fore
SplineSet
293 400 m 13
 293 300 293 200 293 100 c 25
 349 100 404 100 460 100 c 25
 460 200 460 300 460 400 c 25
 404 400 349 400 293 400 c 13
260 500 m 9
 338 500 415 500 493 500 c 25
 493 467 493 433 493 400 c 25
 504 400 516 400 527 400 c 25
 527 300 527 200 527 100 c 25
 516 100 504 100 493 100 c 25
 493 67 493 33 493 0 c 25
 415 0 338 0 260 0 c 25
 260 33 260 67 260 100 c 25
 249 100 238 100 227 100 c 25
 227 200 227 300 227 400 c 25
 238 400 249 400 260 400 c 25
 260 433 260 467 260 500 c 9
EndSplineSet
EndChar

StartChar: uni043F
Encoding: 1087 1087 158
Width: 760
Flags: HW
HStem: 0 21G<260 360 610 710> 400 100<360 610>
VStem: 260 100<0 400> 610 100<0 400>
LayerCount: 2
Back
Fore
SplineSet
227 0 m 13
 227 167 227 333 227 500 c 25
 327 500 427 500 527 500 c 25
 527 333 527 167 527 0 c 25
 505 0 482 0 460 0 c 25
 460 133 460 267 460 400 c 25
 404 400 349 400 293 400 c 25
 293 267 293 133 293 0 c 25
 271 0 249 0 227 0 c 13
EndSplineSet
EndChar

StartChar: uni0440
Encoding: 1088 1088 159
Width: 760
Flags: HW
HStem: -200 21G<260 360> 0 100<410 610> 100 100<360 410> 300 100<360 410> 400 100<410 610>
VStem: 260 150<100 200 300 400> 260 100<-200 100 200 300 400 500> 410 250<0 100 400 500> 610 100<100 400>
LayerCount: 2
Back
Fore
SplineSet
327 300 m 13
 316 300 304 300 293 300 c 25
 293 267 293 233 293 200 c 25
 304 200 316 200 327 200 c 25
 327 167 327 133 327 100 c 25
 371 100 416 100 460 100 c 25
 460 200 460 300 460 400 c 25
 416 400 371 400 327 400 c 25
 327 367 327 333 327 300 c 13
227 500 m 9
 249 500 271 500 293 500 c 25
 293 467 293 433 293 400 c 25
 304 400 316 400 327 400 c 25
 327 433 327 467 327 500 c 25
 383 500 437 500 493 500 c 25
 493 467 493 433 493 400 c 25
 504 400 516 400 527 400 c 25
 527 300 527 200 527 100 c 25
 516 100 504 100 493 100 c 25
 493 67 493 33 493 0 c 25
 437 0 383 0 327 0 c 25
 327 33 327 67 327 100 c 25
 316 100 304 100 293 100 c 25
 293 0 293 -100 293 -200 c 25
 271 -200 249 -200 227 -200 c 25
 227 33 227 267 227 500 c 9
EndSplineSet
EndChar

StartChar: uni0441
Encoding: 1089 1089 160
Width: 760
Flags: HW
HStem: 0 100<410 710> 200 100<260 310> 400 100<410 710>
VStem: 260 100<200 300> 310 100<100 200 300 400>
CounterMasks: 1 e0
LayerCount: 2
Back
Fore
SplineSet
293 500 m 13
 371 500 449 500 527 500 c 25
 527 467 527 433 527 400 c 25
 460 400 394 400 327 400 c 25
 327 367 327 333 327 300 c 25
 316 300 304 300 293 300 c 25
 293 267 293 233 293 200 c 25
 304 200 316 200 327 200 c 25
 327 167 327 133 327 100 c 25
 394 100 460 100 527 100 c 25
 527 67 527 33 527 0 c 25
 449 0 371 0 293 0 c 25
 293 33 293 67 293 100 c 25
 282 100 271 100 260 100 c 25
 260 133 260 167 260 200 c 25
 249 200 238 200 227 200 c 25
 227 233 227 267 227 300 c 25
 238 300 249 300 260 300 c 25
 260 333 260 367 260 400 c 25
 271 400 282 400 293 400 c 25
 293 433 293 467 293 500 c 13
EndSplineSet
EndChar

StartChar: uni0442
Encoding: 1090 1090 161
Width: 760
Flags: HW
HStem: 0 21G<410 510> 400 100<210 410 510 710>
VStem: 410 100<0 400>
LayerCount: 2
Back
Fore
SplineSet
193 500 m 1
 304 500 416 500 527 500 c 1
 527 467 527 433 527 400 c 5
 483 400 437 400 393 400 c 1
 393 267 393 133 393 0 c 25
 371 0 349 0 327 0 c 25
 327 133 327 267 327 400 c 1
 283 400 237 400 193 400 c 1
 193 433 193 467 193 500 c 1
EndSplineSet
EndChar

StartChar: uni0443
Encoding: 1091 1091 162
Width: 760
Flags: HW
HStem: -200 100<260 360> 400 100<260 310 660 710>
VStem: 260 100<400 500> 310 100<300 400> 360 100<-100 0 200 300> 410 150<100 200> 410 100<0 100> 510 100<200 300> 560 100<300 400> 610 100<400 500>
LayerCount: 2
Back
Fore
SplineSet
227 500 m 13
 249 500 271 500 293 500 c 25
 293 467 293 433 293 400 c 25
 304 400 316 400 327 400 c 25
 327 367 327 333 327 300 c 25
 338 300 349 300 360 300 c 25
 360 267 360 233 360 200 c 25
 371 200 382 200 393 200 c 25
 393 233 393 267 393 300 c 25
 404 300 416 300 427 300 c 25
 427 333 427 367 427 400 c 25
 438 400 449 400 460 400 c 25
 460 433 460 467 460 500 c 25
 482 500 505 500 527 500 c 25
 527 467 527 433 527 400 c 25
 516 400 504 400 493 400 c 25
 493 367 493 333 493 300 c 25
 482 300 471 300 460 300 c 25
 460 267 460 233 460 200 c 25
 449 200 438 200 427 200 c 25
 427 167 427 133 427 100 c 25
 416 100 404 100 393 100 c 25
 393 67 393 33 393 0 c 25
 382 0 371 0 360 0 c 25
 360 -33 360 -67 360 -100 c 25
 349 -100 338 -100 327 -100 c 25
 327 -133 327 -167 327 -200 c 25
 294 -200 260 -200 227 -200 c 25
 227 -167 227 -133 227 -100 c 25
 249 -100 271 -100 293 -100 c 25
 293 -67 293 -33 293 0 c 25
 304 0 316 0 327 0 c 25
 327 67 327 133 327 200 c 25
 316 200 304 200 293 200 c 25
 293 233 293 267 293 300 c 25
 282 300 271 300 260 300 c 25
 260 333 260 367 260 400 c 25
 249 400 238 400 227 400 c 25
 227 433 227 467 227 500 c 13
EndSplineSet
EndChar

StartChar: uni0444
Encoding: 1092 1092 163
Width: 760
Flags: HW
HStem: -200 21G<410 510> 0 100<310 410 510 610> 400 100<310 410 510 610> 680 20G<410 510>
VStem: 210 100<100 400> 410 100<-200 0 100 400 500 700> 610 100<100 400>
CounterMasks: 1 0e
LayerCount: 2
Back
Fore
SplineSet
327 400 m 13
 305 400 282 400 260 400 c 25
 260 300 260 200 260 100 c 25
 282 100 305 100 327 100 c 25
 327 200 327 300 327 400 c 13
393 400 m 9
 393 300 393 200 393 100 c 25
 415 100 438 100 460 100 c 25
 460 200 460 300 460 400 c 25
 438 400 415 400 393 400 c 9
327 700 m 9
 349 700 371 700 393 700 c 25
 393 633 393 567 393 500 c 25
 426 500 460 500 493 500 c 25
 493 467 493 433 493 400 c 25
 504 400 516 400 527 400 c 25
 527 300 527 200 527 100 c 25
 516 100 504 100 493 100 c 25
 493 67 493 33 493 0 c 25
 460 0 426 0 393 0 c 25
 393 -67 393 -133 393 -200 c 25
 371 -200 349 -200 327 -200 c 25
 327 -133 327 -67 327 0 c 25
 294 0 260 0 227 0 c 25
 227 33 227 67 227 100 c 25
 216 100 204 100 193 100 c 25
 193 200 193 300 193 400 c 25
 204 400 216 400 227 400 c 25
 227 433 227 467 227 500 c 25
 260 500 294 500 327 500 c 25
 327 567 327 633 327 700 c 9
EndSplineSet
EndChar

StartChar: uni0445
Encoding: 1093 1093 164
Width: 760
Flags: HW
HStem: 0 100<210 310 610 710> 200 100<410 510> 400 100<210 310 610 710>
VStem: 210 150<0 100 400 500> 310 100<100 200 300 400> 510 100<100 200 300 400> 560 150<0 100 400 500>
CounterMasks: 1 e0
LayerCount: 2
Back
Fore
SplineSet
193 500 m 13
 226 500 260 500 293 500 c 25
 293 467 293 433 293 400 c 25
 304 400 316 400 327 400 c 25
 327 367 327 333 327 300 c 25
 349 300 371 300 393 300 c 25
 393 333 393 367 393 400 c 25
 404 400 416 400 427 400 c 25
 427 433 427 467 427 500 c 25
 460 500 494 500 527 500 c 25
 527 467 527 433 527 400 c 25
 505 400 482 400 460 400 c 25
 460 367 460 333 460 300 c 25
 449 300 438 300 427 300 c 25
 427 267 427 233 427 200 c 25
 438 200 449 200 460 200 c 25
 460 167 460 133 460 100 c 25
 482 100 505 100 527 100 c 25
 527 67 527 33 527 0 c 25
 494 0 460 0 427 0 c 25
 427 33 427 67 427 100 c 25
 416 100 404 100 393 100 c 25
 393 133 393 167 393 200 c 25
 371 200 349 200 327 200 c 25
 327 167 327 133 327 100 c 25
 316 100 304 100 293 100 c 25
 293 67 293 33 293 0 c 25
 260 0 226 0 193 0 c 25
 193 33 193 67 193 100 c 25
 215 100 238 100 260 100 c 25
 260 133 260 167 260 200 c 25
 271 200 282 200 293 200 c 25
 293 233 293 267 293 300 c 25
 282 300 271 300 260 300 c 25
 260 333 260 367 260 400 c 25
 238 400 215 400 193 400 c 25
 193 433 193 467 193 500 c 13
EndSplineSet
EndChar

StartChar: uni0446
Encoding: 1094 1094 165
Width: 760
Flags: HW
HStem: 0 100<360 510> 480 20G<260 360 510 610>
VStem: 260 100<100 500> 510 100<100 500> 610 100<-100 0>
LayerCount: 2
Back
Fore
SplineSet
227 500 m 13
 249 500 271 500 293 500 c 25
 293 367 293 233 293 100 c 25
 326 100 360 100 393 100 c 25
 393 233 393 367 393 500 c 25
 415 500 438 500 460 500 c 25
 460 367 460 233 460 100 c 25
 482 100 505 100 527 100 c 25
 527 33 527 -33 527 -100 c 25
 505 -100 482 -100 460 -100 c 25
 460 -67 460 -33 460 0 c 25
 382 0 305 0 227 0 c 25
 227 167 227 333 227 500 c 13
EndSplineSet
EndChar

StartChar: uni0447
Encoding: 1095 1095 166
Width: 760
Flags: HW
HStem: 0 21G<610 710> 200 100<360 610> 480 20G<260 360 610 710>
VStem: 260 100<300 500> 610 100<0 200 300 500>
LayerCount: 2
Back
Fore
SplineSet
227 500 m 13
 249 500 271 500 293 500 c 25
 293 433 293 367 293 300 c 25
 349 300 404 300 460 300 c 25
 460 367 460 433 460 500 c 25
 482 500 505 500 527 500 c 25
 527 333 527 167 527 0 c 25
 505 0 482 0 460 0 c 25
 460 67 460 133 460 200 c 25
 393 200 327 200 260 200 c 25
 260 233 260 267 260 300 c 25
 249 300 238 300 227 300 c 25
 227 367 227 433 227 500 c 13
EndSplineSet
EndChar

StartChar: uni0448
Encoding: 1096 1096 167
Width: 760
Flags: HW
HStem: 0 100<310 410 510 610> 480 20G<210 310 410 510 610 710>
VStem: 210 100<100 500> 410 100<100 500> 610 100<100 500>
CounterMasks: 1 38
LayerCount: 2
Back
Fore
SplineSet
193 500 m 13
 215 500 238 500 260 500 c 25
 260 367 260 233 260 100 c 25
 282 100 305 100 327 100 c 25
 327 233 327 367 327 500 c 25
 349 500 371 500 393 500 c 25
 393 367 393 233 393 100 c 25
 415 100 438 100 460 100 c 25
 460 233 460 367 460 500 c 25
 482 500 505 500 527 500 c 25
 527 333 527 167 527 0 c 25
 416 0 304 0 193 0 c 25
 193 167 193 333 193 500 c 13
EndSplineSet
EndChar

StartChar: uni0449
Encoding: 1097 1097 168
Width: 760
Flags: HW
HStem: 0 100<310 410 510 610> 480 20G<210 310 410 510 610 710>
VStem: 210 100<100 500> 410 100<100 500> 610 100<100 500> 660 100<-100 0>
LayerCount: 2
Back
Fore
SplineSet
193 500 m 13
 215 500 238 500 260 500 c 25
 260 367 260 233 260 100 c 25
 282 100 305 100 327 100 c 25
 327 233 327 367 327 500 c 25
 349 500 371 500 393 500 c 25
 393 367 393 233 393 100 c 25
 415 100 438 100 460 100 c 25
 460 233 460 367 460 500 c 25
 482 500 505 500 527 500 c 25
 527 367 527 233 527 100 c 25
 538 100 549 100 560 100 c 25
 560 33 560 -33 560 -100 c 25
 538 -100 515 -100 493 -100 c 25
 493 -67 493 -33 493 0 c 25
 393 0 293 0 193 0 c 25
 193 167 193 333 193 500 c 13
EndSplineSet
EndChar

StartChar: uni044A
Encoding: 1098 1098 169
Width: 760
Flags: HW
HStem: 0 100<410 610> 100 100<660 710> 200 100<410 610> 400 100<210 310>
VStem: 310 100<100 200 300 400> 610 100<100 200>
LayerCount: 2
Back
Fore
SplineSet
327 200 m 13
 327 167 327 133 327 100 c 25
 371 100 416 100 460 100 c 25
 460 133 460 167 460 200 c 25
 416 200 371 200 327 200 c 13
193 500 m 9
 237 500 283 500 327 500 c 25
 327 433 327 367 327 300 c 25
 383 300 437 300 493 300 c 25
 493 267 493 233 493 200 c 25
 504 200 516 200 527 200 c 25
 527 167 527 133 527 100 c 25
 516 100 504 100 493 100 c 25
 493 67 493 33 493 0 c 25
 415 0 338 0 260 0 c 25
 260 133 260 267 260 400 c 25
 238 400 215 400 193 400 c 25
 193 433 193 467 193 500 c 9
EndSplineSet
EndChar

StartChar: uni044B
Encoding: 1099 1099 170
Width: 760
Flags: HW
HStem: 0 100<310 460> 100 100<510 560> 200 100<310 460> 480 20G<210 310 610 710>
VStem: 210 300<0 100 200 300> 210 100<100 200 300 500> 460 100<100 200> 610 100<0 500>
LayerCount: 2
Back
Fore
SplineSet
460 0 m 13
 460 167 460 333 460 500 c 25
 482 500 505 500 527 500 c 25
 527 333 527 167 527 0 c 25
 505 0 482 0 460 0 c 13
260 200 m 9
 260 167 260 133 260 100 c 25
 293 100 327 100 360 100 c 25
 360 133 360 167 360 200 c 25
 327 200 293 200 260 200 c 9
193 500 m 9
 215 500 238 500 260 500 c 25
 260 433 260 367 260 300 c 25
 304 300 349 300 393 300 c 25
 393 267 393 233 393 200 c 25
 404 200 416 200 427 200 c 25
 427 167 427 133 427 100 c 25
 416 100 404 100 393 100 c 25
 393 67 393 33 393 0 c 25
 326 0 260 0 193 0 c 25
 193 167 193 333 193 500 c 9
EndSplineSet
EndChar

StartChar: uni044C
Encoding: 1100 1100 171
Width: 760
Flags: HW
HStem: 0 100<360 610> 100 100<660 710> 200 100<360 610> 480 20G<260 360>
VStem: 260 100<100 200 300 500> 610 100<100 200>
LayerCount: 2
Back
Fore
SplineSet
293 100 m 1
 349 100 404 100 460 100 c 1
 460 133 460 167 460 200 c 1
 404 200 349 200 293 200 c 1
 293 167 293 133 293 100 c 1
227 500 m 1
 249 500 271 500 293 500 c 1
 293 433 293 367 293 300 c 5
 360 300 426 300 493 300 c 1
 493 267 493 233 493 200 c 25
 504 200 516 200 527 200 c 25
 527 167 527 133 527 100 c 25
 516 100 504 100 493 100 c 25
 493 67 493 33 493 0 c 1
 404 0 316 0 227 0 c 1
 227 167 227 333 227 500 c 1
EndSplineSet
EndChar

StartChar: uni044D
Encoding: 1101 1101 172
Width: 760
Flags: HW
HStem: 0 100<360 610> 100 100<260 310> 200 100<460 610> 300 100<260 310> 400 100<360 610>
VStem: 260 100<100 200 300 400> 610 100<100 200 300 400>
LayerCount: 2
Back
Fore
SplineSet
227 300 m 13
 227 333 227 367 227 400 c 25
 238 400 249 400 260 400 c 25
 260 433 260 467 260 500 c 25
 338 500 415 500 493 500 c 25
 493 467 493 433 493 400 c 25
 504 400 516 400 527 400 c 25
 527 300 527 200 527 100 c 25
 516 100 504 100 493 100 c 25
 493 67 493 33 493 0 c 25
 415 0 338 0 260 0 c 25
 260 33 260 67 260 100 c 25
 249 100 238 100 227 100 c 25
 227 133 227 167 227 200 c 25
 249 200 271 200 293 200 c 25
 293 167 293 133 293 100 c 25
 349 100 404 100 460 100 c 25
 460 133 460 167 460 200 c 25
 427 200 393 200 360 200 c 25
 360 233 360 267 360 300 c 25
 393 300 427 300 460 300 c 25
 460 333 460 367 460 400 c 25
 404 400 349 400 293 400 c 25
 293 367 293 333 293 300 c 25
 271 300 249 300 227 300 c 13
EndSplineSet
EndChar

StartChar: uni044E
Encoding: 1102 1102 173
Width: 760
Flags: HW
HStem: 0 100<510 610> 200 100<360 410> 400 100<510 610>
VStem: 260 100<0 200 300 500> 410 100<100 200 300 400> 460 200<0 100 400 500> 610 100<100 400>
CounterMasks: 1 e0
LayerCount: 2
Back
Fore
SplineSet
393 100 m 13
 415 100 438 100 460 100 c 25
 460 200 460 300 460 400 c 25
 438 400 415 400 393 400 c 25
 393 300 393 200 393 100 c 13
227 0 m 9
 227 167 227 333 227 500 c 25
 249 500 271 500 293 500 c 25
 293 433 293 367 293 300 c 25
 304 300 316 300 327 300 c 25
 327 333 327 367 327 400 c 25
 338 400 349 400 360 400 c 25
 360 433 360 467 360 500 c 25
 404 500 449 500 493 500 c 25
 493 467 493 433 493 400 c 25
 504 400 516 400 527 400 c 25
 527 300 527 200 527 100 c 25
 516 100 504 100 493 100 c 25
 493 67 493 33 493 0 c 25
 449 0 404 0 360 0 c 25
 360 33 360 67 360 100 c 25
 349 100 338 100 327 100 c 25
 327 133 327 167 327 200 c 25
 316 200 304 200 293 200 c 25
 293 133 293 67 293 0 c 25
 271 0 249 0 227 0 c 9
EndSplineSet
EndChar

StartChar: uni044F
Encoding: 1103 1103 174
Width: 760
Flags: HW
HStem: 0 100<260 360> 200 100<310 360 510 560> 300 100<210 260> 400 100<310 560>
VStem: 210 100<300 400> 260 150<0 100> 360 150<100 200> 560 100<0 200 300 400>
LayerCount: 2
Back
Fore
SplineSet
260 400 m 13
 260 367 260 333 260 300 c 25
 316 300 371 300 427 300 c 25
 427 333 427 367 427 400 c 25
 371 400 316 400 260 400 c 13
193 400 m 9
 204 400 216 400 227 400 c 25
 227 433 227 467 227 500 c 25
 316 500 404 500 493 500 c 25
 493 333 493 167 493 0 c 25
 471 0 449 0 427 0 c 25
 427 67 427 133 427 200 c 25
 416 200 404 200 393 200 c 25
 393 167 393 133 393 100 c 25
 371 100 349 100 327 100 c 25
 327 67 327 33 327 0 c 25
 294 0 260 0 227 0 c 25
 227 33 227 67 227 100 c 25
 249 100 271 100 293 100 c 25
 293 133 293 167 293 200 c 25
 271 200 249 200 227 200 c 25
 227 233 227 267 227 300 c 25
 216 300 204 300 193 300 c 25
 193 333 193 367 193 400 c 9
EndSplineSet
EndChar

StartChar: uni2116
Encoding: 8470 8470 175
Width: 760
Flags: HW
HStem: 0 21G<160 260 360 460> 200 100<510 760> 400 100<610 660> 500 100<510 560 710 760> 600 100<610 660>
VStem: 160 150<400 600> 160 100<0 250 600 700> 310 150<100 250> 360 100<0 100 400 700> 510 100<500 600> 560 150<400 500 600 700> 660 100<500 600>
LayerCount: 2
Back
Fore
SplineSet
393 300 m 13
 449 300 504 300 560 300 c 25
 560 267 560 233 560 200 c 25
 504 200 449 200 393 200 c 25
 393 233 393 267 393 300 c 13
460 600 m 9
 460 567 460 533 460 500 c 25
 471 500 482 500 493 500 c 25
 493 533 493 567 493 600 c 25
 482 600 471 600 460 600 c 9
427 600 m 9
 427 633 427 667 427 700 c 25
 460 700 494 700 527 700 c 25
 527 667 527 633 527 600 c 25
 538 600 549 600 560 600 c 25
 560 567 560 533 560 500 c 25
 549 500 538 500 527 500 c 25
 527 467 527 433 527 400 c 25
 494 400 460 400 427 400 c 25
 427 433 427 467 427 500 c 25
 416 500 404 500 393 500 c 25
 393 533 393 567 393 600 c 25
 404 600 416 600 427 600 c 9
160 0 m 9
 160 233 160 467 160 700 c 25
 182 700 205 700 227 700 c 25
 227 667 227 633 227 600 c 25
 238 600 249 600 260 600 c 25
 260 533 260 467 260 400 c 25
 271 400 282 400 293 400 c 25
 293 500 293 600 293 700 c 25
 315 700 338 700 360 700 c 25
 360 467 360 233 360 0 c 25
 338 0 315 0 293 0 c 25
 293 33 293 67 293 100 c 25
 282 100 271 100 260 100 c 25
 260 150 260 200 260 250 c 25
 249 250 238 250 227 250 c 25
 227 167 227 83 227 0 c 25
 205 0 182 0 160 0 c 9
EndSplineSet
EndChar

StartChar: asciitilde
Encoding: 126 126 176
Width: 760
Flags: HW
HStem: 500 100<260 310 510 610> 600 100<360 460 660 710>
VStem: 260 100<501 600> 610 100<600 700>
LayerCount: 2
Back
Fore
SplineSet
227 600 m 13
 238 600 249 600 260 600 c 25
 260 633 260 667 260 700 c 25
 304 700 349 700 393 700 c 25
 393 667 393 633 393 600 c 25
 415 600 438 600 460 600 c 25
 460 633 460 667 460 700 c 25
 482 700 505 700 527 700 c 25
 527 667 527 633 527 600 c 25
 516 600 504 600 493 600 c 25
 493 567 493 533 493 500 c 25
 449 500 404 500 360 500 c 25
 360 533 360 567 360 600 c 25
 338 600 315 600 293 600 c 25
 293 567 293 533 293 500 c 25
 271 500 249 501 227 501 c 25
 227 534 227 567 227 600 c 13
EndSplineSet
EndChar

StartChar: section
Encoding: 167 167 177
Width: 760
Flags: HW
HStem: 0 100<310 460> 100 100<210 260> 200 100<410 460> 300 100<310 360 560 610> 400 100<460 510> 500 100<660 710> 600 100<460 610>
VStem: 210 100<100 200> 310 100<300 400> 360 100<500 600> 460 100<100 200> 510 100<300 400> 610 100<500 600>
LayerCount: 2
Back
Fore
SplineSet
393 400 m 13
 371 400 349 400 327 400 c 25
 327 367 327 333 327 300 c 25
 349 300 371 300 393 300 c 25
 393 333 393 367 393 400 c 13
460 500 m 9
 460 533 460 567 460 600 c 25
 427 600 393 600 360 600 c 25
 360 567 360 533 360 500 c 25
 382 500 405 500 427 500 c 25
 427 467 427 433 427 400 c 25
 438 400 449 400 460 400 c 25
 460 367 460 333 460 300 c 25
 449 300 438 300 427 300 c 25
 427 233 427 167 427 100 c 25
 416 100 404 100 393 100 c 25
 393 67 393 33 393 0 c 25
 337 0 283 0 227 0 c 25
 227 33 227 67 227 100 c 25
 216 100 204 100 193 100 c 25
 193 133 193 167 193 200 c 25
 215 200 238 200 260 200 c 25
 260 167 260 133 260 100 c 25
 293 100 327 100 360 100 c 25
 360 133 360 167 360 200 c 25
 338 200 315 200 293 200 c 25
 293 233 293 267 293 300 c 25
 282 300 271 300 260 300 c 25
 260 333 260 367 260 400 c 25
 271 400 282 400 293 400 c 25
 293 467 293 533 293 600 c 25
 304 600 316 600 327 600 c 25
 327 633 327 667 327 700 c 25
 383 700 437 700 493 700 c 25
 493 667 493 633 493 600 c 25
 504 600 516 600 527 600 c 25
 527 567 527 533 527 500 c 25
 505 500 482 500 460 500 c 9
EndSplineSet
EndChar

StartChar: parenleft
Encoding: 40 40 178
Width: 760
Flags: HW
HStem: 0 100<460 560> 600 100<460 560>
VStem: 310 100<200 500> 360 100<100 200 500 600> 410 150<0 100 600 700>
LayerCount: 2
Back
Fore
SplineSet
327 600 m 13
 327 633 327 667 327 700 c 25
 360 700 394 700 427 700 c 25
 427 667 427 633 427 600 c 25
 405 600 382 600 360 600 c 25
 360 567 360 533 360 500 c 25
 349 500 338 500 327 500 c 25
 327 400 327 300 327 200 c 25
 338 200 349 200 360 200 c 25
 360 167 360 133 360 100 c 25
 382 100 405 100 427 100 c 25
 427 67 427 33 427 0 c 25
 394 0 360 0 327 0 c 25
 327 33 327 67 327 100 c 25
 316 100 304 100 293 100 c 25
 293 133 293 167 293 200 c 25
 282 200 271 200 260 200 c 25
 260 300 260 400 260 500 c 25
 271 500 282 500 293 500 c 25
 293 533 293 567 293 600 c 25
 304 600 316 600 327 600 c 13
EndSplineSet
EndChar

StartChar: quotedbl
Encoding: 34 34 179
Width: 760
Flags: HW
HStem: 400 100<260 310 510 560> 600 100<260 310 510 560>
VStem: 260 100<400 500> 310 100<500 600> 510 100<400 500> 560 100<500 600>
LayerCount: 2
Back
Fore
SplineSet
393 400 m 13
 393 433 393 467 393 500 c 25
 404 500 416 500 427 500 c 25
 427 533 427 567 427 600 c 25
 416 600 404 600 393 600 c 25
 393 633 393 667 393 700 c 25
 426 700 460 700 493 700 c 25
 493 633 493 567 493 500 c 25
 482 500 471 500 460 500 c 25
 460 467 460 433 460 400 c 25
 438 400 415 400 393 400 c 13
227 600 m 9
 227 633 227 667 227 700 c 25
 260 700 294 700 327 700 c 25
 327 633 327 567 327 500 c 25
 316 500 304 500 293 500 c 25
 293 467 293 433 293 400 c 25
 271 400 249 400 227 400 c 25
 227 433 227 467 227 500 c 25
 238 500 249 500 260 500 c 25
 260 533 260 567 260 600 c 25
 249 600 238 600 227 600 c 9
EndSplineSet
EndChar

StartChar: numbersign
Encoding: 35 35 180
Width: 760
Flags: HW
HStem: 0 21G<310 410 510 610> 200 100<210 310 410 510 610 710> 400 100<210 310 410 510 610 710> 680 20G<310 410 510 610>
VStem: 310 100<0 200 300 400 500 700> 510 100<0 200 300 400 500 700>
LayerCount: 2
Back
Fore
SplineSet
327 300 m 13
 349 300 371 300 393 300 c 25
 393 333 393 367 393 400 c 25
 371 400 349 400 327 400 c 25
 327 367 327 333 327 300 c 13
260 700 m 9
 282 700 305 700 327 700 c 25
 327 633 327 567 327 500 c 25
 349 500 371 500 393 500 c 25
 393 567 393 633 393 700 c 25
 415 700 438 700 460 700 c 25
 460 633 460 567 460 500 c 25
 482 500 505 500 527 500 c 25
 527 467 527 433 527 400 c 25
 505 400 482 400 460 400 c 25
 460 367 460 333 460 300 c 25
 482 300 505 300 527 300 c 25
 527 267 527 233 527 200 c 25
 505 200 482 200 460 200 c 25
 460 133 460 67 460 0 c 25
 438 0 415 0 393 0 c 25
 393 67 393 133 393 200 c 25
 371 200 349 200 327 200 c 25
 327 133 327 67 327 0 c 25
 305 0 282 0 260 0 c 25
 260 67 260 133 260 200 c 25
 238 200 215 200 193 200 c 25
 193 233 193 267 193 300 c 25
 215 300 238 300 260 300 c 25
 260 333 260 367 260 400 c 25
 238 400 215 400 193 400 c 25
 193 433 193 467 193 500 c 25
 215 500 238 500 260 500 c 25
 260 567 260 633 260 700 c 9
EndSplineSet
EndChar

StartChar: dollar
Encoding: 36 36 181
Width: 760
Flags: HW
HStem: 0 100<310 410 510 610> 100 100<210 260> 300 100<310 410 510 610> 500 100<660 710> 600 100<310 410 510 610>
VStem: 210 100<100 200 400 600> 260 400<0 100 300 400 600 700> 410 100<-100 0 100 300 400 600 700 800> 610 100<100 300 500 600>
LayerCount: 2
Back
Fore
SplineSet
460 100 m 13
 460 167 460 233 460 300 c 25
 438 300 415 300 393 300 c 25
 393 233 393 167 393 100 c 25
 415 100 438 100 460 100 c 13
327 600 m 9
 305 600 282 600 260 600 c 25
 260 533 260 467 260 400 c 25
 282 400 305 400 327 400 c 25
 327 467 327 533 327 600 c 9
393 800 m 9
 393 767 393 733 393 700 c 1
 426 700 460 700 493 700 c 25
 493 667 493 633 493 600 c 25
 504 600 516 600 527 600 c 25
 527 567 527 533 527 500 c 25
 505 500 482 500 460 500 c 25
 460 533 460 567 460 600 c 25
 438 600 415 600 393 600 c 25
 393 533 393 467 393 400 c 25
 426 400 460 400 493 400 c 25
 493 367 493 333 493 300 c 25
 504 300 516 300 527 300 c 25
 527 233 527 167 527 100 c 25
 516 100 504 100 493 100 c 25
 493 67 493 33 493 0 c 25
 460 0 426 0 393 0 c 25
 393 -33 393 -67 393 -100 c 25
 371 -100 349 -100 327 -100 c 25
 327 -67 327 -33 327 0 c 25
 294 0 260 0 227 0 c 25
 227 33 227 67 227 100 c 25
 216 100 204 100 193 100 c 25
 193 133 193 167 193 200 c 25
 215 200 238 200 260 200 c 25
 260 167 260 133 260 100 c 25
 282 100 305 100 327 100 c 25
 327 167 327 233 327 300 c 25
 294 300 260 300 227 300 c 25
 227 333 227 367 227 400 c 25
 216 400 204 400 193 400 c 25
 193 467 193 533 193 600 c 25
 204 600 216 600 227 600 c 25
 227 633 227 667 227 700 c 25
 260 700 294 700 327 700 c 25
 327 733 327 767 327 800 c 1
 349 800 371 800 393 800 c 9
EndSplineSet
EndChar

StartChar: percent
Encoding: 37 37 182
Width: 760
Flags: HW
HStem: 0 100<260 310 610 660> 100 100<510 560 710 760> 200 100<610 660> 400 100<260 310> 500 100<160 210 360 410> 600 100<260 310 610 660>
VStem: 160 100<500 600> 210 150<400 500 600 700> 260 100<0 100> 310 100<100 200 500 600> 360 100<200 300> 410 100<300 400> 460 100<400 500> 510 100<100 200 500 600> 560 150<0 100 200 300> 560 100<600 700> 660 100<100 200>
LayerCount: 2
Back
Fore
SplineSet
427 700 m 13
 449 700 471 700 493 700 c 25
 493 667 493 633 493 600 c 25
 482 600 471 600 460 600 c 25
 460 567 460 533 460 500 c 25
 449 500 438 500 427 500 c 25
 427 467 427 433 427 400 c 25
 416 400 404 400 393 400 c 25
 393 367 393 333 393 300 c 25
 382 300 371 300 360 300 c 25
 360 267 360 233 360 200 c 25
 349 200 338 200 327 200 c 25
 327 167 327 133 327 100 c 25
 316 100 304 100 293 100 c 25
 293 67 293 33 293 0 c 25
 271 0 249 0 227 0 c 25
 227 33 227 67 227 100 c 25
 238 100 249 100 260 100 c 25
 260 133 260 167 260 200 c 25
 271 200 282 200 293 200 c 25
 293 233 293 267 293 300 c 25
 304 300 316 300 327 300 c 25
 327 333 327 367 327 400 c 25
 338 400 349 400 360 400 c 25
 360 433 360 467 360 500 c 25
 371 500 382 500 393 500 c 25
 393 533 393 567 393 600 c 25
 404 600 416 600 427 600 c 25
 427 633 427 667 427 700 c 13
460 100 m 9
 471 100 482 100 493 100 c 25
 493 133 493 167 493 200 c 25
 482 200 471 200 460 200 c 25
 460 167 460 133 460 100 c 9
427 300 m 9
 460 300 494 300 527 300 c 25
 527 267 527 233 527 200 c 25
 538 200 549 200 560 200 c 25
 560 167 560 133 560 100 c 25
 549 100 538 100 527 100 c 25
 527 67 527 33 527 0 c 25
 494 0 460 0 427 0 c 25
 427 33 427 67 427 100 c 25
 416 100 404 100 393 100 c 25
 393 133 393 167 393 200 c 25
 404 200 416 200 427 200 c 25
 427 233 427 267 427 300 c 9
227 600 m 9
 227 567 227 533 227 500 c 25
 238 500 249 500 260 500 c 25
 260 533 260 567 260 600 c 25
 249 600 238 600 227 600 c 9
160 600 m 9
 171 600 182 600 193 600 c 25
 193 633 193 667 193 700 c 25
 226 700 260 700 293 700 c 25
 293 667 293 633 293 600 c 25
 304 600 316 600 327 600 c 25
 327 567 327 533 327 500 c 25
 316 500 304 500 293 500 c 25
 293 467 293 433 293 400 c 25
 260 400 226 400 193 400 c 25
 193 433 193 467 193 500 c 25
 182 500 171 500 160 500 c 25
 160 533 160 567 160 600 c 9
EndSplineSet
EndChar

StartChar: ampersand
Encoding: 38 38 183
Width: 760
Flags: HW
HStem: 0 100<310 510 660 760> 100 100<210 260 560 610> 200 100<660 710> 300 100<360 460> 600 100<360 460>
VStem: 210 100<100 200> 260 100<200 300 400 600> 310 200<300 400 600 700> 460 100<200 300 400 600> 610 150<0 100> 610 100<200 300>
LayerCount: 2
Back
Fore
SplineSet
293 300 m 13
 293 267 293 233 293 200 c 25
 282 200 271 200 260 200 c 25
 260 167 260 133 260 100 c 25
 304 100 349 100 393 100 c 25
 393 133 393 167 393 200 c 25
 382 200 371 200 360 200 c 25
 360 233 360 267 360 300 c 25
 338 300 315 300 293 300 c 13
293 600 m 9
 293 533 293 467 293 400 c 25
 315 400 338 400 360 400 c 25
 360 467 360 533 360 600 c 25
 338 600 315 600 293 600 c 9
260 700 m 9
 304 700 349 700 393 700 c 25
 393 667 393 633 393 600 c 25
 404 600 416 600 427 600 c 25
 427 533 427 467 427 400 c 25
 416 400 404 400 393 400 c 25
 393 367 393 333 393 300 c 25
 404 300 416 300 427 300 c 25
 427 267 427 233 427 200 c 25
 438 200 449 200 460 200 c 25
 460 233 460 267 460 300 c 25
 482 300 505 300 527 300 c 25
 527 267 527 233 527 200 c 25
 516 200 504 200 493 200 c 25
 493 167 493 133 493 100 c 25
 515 100 538 100 560 100 c 25
 560 67 560 33 560 0 c 25
 527 0 493 0 460 0 c 25
 460 33 460 67 460 100 c 25
 449 100 438 100 427 100 c 25
 427 67 427 33 427 0 c 25
 360 0 294 0 227 0 c 25
 227 33 227 67 227 100 c 25
 216 100 204 100 193 100 c 25
 193 133 193 167 193 200 c 25
 204 200 216 200 227 200 c 25
 227 233 227 267 227 300 c 25
 238 300 249 300 260 300 c 25
 260 333 260 367 260 400 c 25
 249 400 238 400 227 400 c 25
 227 467 227 533 227 600 c 25
 238 600 249 600 260 600 c 25
 260 633 260 667 260 700 c 9
EndSplineSet
EndChar

StartChar: quotesingle
Encoding: 39 39 184
Width: 760
Flags: HW
HStem: 400 100<410 460> 600 100<410 460>
VStem: 410 100<400 500> 460 100<500 600>
LayerCount: 2
Back
Fore
SplineSet
327 600 m 13
 327 633 327 667 327 700 c 25
 360 700 394 700 427 700 c 25
 427 633 427 567 427 500 c 25
 416 500 404 500 393 500 c 25
 393 467 393 433 393 400 c 25
 371 400 349 400 327 400 c 25
 327 433 327 467 327 500 c 25
 338 500 349 500 360 500 c 25
 360 533 360 567 360 600 c 25
 349 600 338 600 327 600 c 13
EndSplineSet
EndChar

StartChar: parenright
Encoding: 41 41 185
Width: 760
Flags: HW
HStem: 0 100<360 460> 600 100<360 460>
VStem: 360 150<0 100 600 700> 460 100<100 200 500 600> 510 100<200 500>
LayerCount: 2
Back
Fore
SplineSet
293 700 m 13
 326 700 360 700 393 700 c 25
 393 667 393 633 393 600 c 25
 404 600 416 600 427 600 c 25
 427 567 427 533 427 500 c 25
 438 500 449 500 460 500 c 25
 460 400 460 300 460 200 c 25
 449 200 438 200 427 200 c 25
 427 167 427 133 427 100 c 25
 416 100 404 100 393 100 c 25
 393 67 393 33 393 0 c 25
 360 0 326 0 293 0 c 25
 293 33 293 67 293 100 c 25
 315 100 338 100 360 100 c 25
 360 133 360 167 360 200 c 25
 371 200 382 200 393 200 c 25
 393 300 393 400 393 500 c 25
 382 500 371 500 360 500 c 25
 360 533 360 567 360 600 c 25
 338 600 315 600 293 600 c 25
 293 633 293 667 293 700 c 13
EndSplineSet
EndChar

StartChar: braceleft
Encoding: 123 123 186
Width: 760
Flags: HW
HStem: 0 100<510 610> 300 100<310 410> 600 100<510 610>
VStem: 310 150<300 400> 410 100<100 300 400 600> 460 150<0 100 600 700>
CounterMasks: 1 e0
LayerCount: 2
Back
Fore
SplineSet
460 700 m 13
 460 667 460 633 460 600 c 1
 438 600 415 600 393 600 c 25
 393 533 393 467 393 400 c 25
 382 400 371 400 360 400 c 25
 360 367 360 333 360 300 c 25
 371 300 382 300 393 300 c 25
 393 233 393 167 393 100 c 25
 415 100 438 100 460 100 c 25
 460 67 460 33 460 0 c 25
 427 0 393 0 360 0 c 25
 360 33 360 67 360 100 c 25
 349 100 338 100 327 100 c 25
 327 167 327 233 327 300 c 25
 305 300 282 300 260 300 c 25
 260 333 260 367 260 400 c 25
 282 400 305 400 327 400 c 25
 327 467 327 533 327 600 c 25
 338 600 349 600 360 600 c 25
 360 633 360 667 360 700 c 1
 393 700 427 700 460 700 c 13
EndSplineSet
EndChar

StartChar: bar
Encoding: 124 124 187
Width: 760
Flags: HW
HStem: 0 21G<410 510> 680 20G<410 510>
VStem: 410 100<0 700>
LayerCount: 2
Back
Fore
SplineSet
327 700 m 13
 349 700 371 700 393 700 c 25
 393 467 393 233 393 0 c 25
 371 0 349 0 327 0 c 25
 327 233 327 467 327 700 c 13
EndSplineSet
EndChar

StartChar: braceright
Encoding: 125 125 188
Width: 760
Flags: HW
HStem: 0 100<310 410> 300 100<510 610> 600 100<310 410>
VStem: 310 150<0 100 600 700> 410 100<100 300 400 600> 460 150<300 400>
CounterMasks: 1 e0
LayerCount: 2
Back
Fore
SplineSet
260 700 m 13
 293 700 327 700 360 700 c 25
 360 667 360 633 360 600 c 25
 371 600 382 600 393 600 c 25
 393 533 393 467 393 400 c 25
 415 400 438 400 460 400 c 25
 460 367 460 333 460 300 c 25
 438 300 415 300 393 300 c 25
 393 233 393 167 393 100 c 25
 382 100 371 100 360 100 c 25
 360 67 360 33 360 0 c 25
 327 0 293 0 260 0 c 25
 260 33 260 67 260 100 c 25
 282 100 305 100 327 100 c 25
 327 167 327 233 327 300 c 25
 338 300 349 300 360 300 c 25
 360 333 360 367 360 400 c 25
 349 400 338 400 327 400 c 25
 327 467 327 533 327 600 c 25
 305 600 282 600 260 600 c 25
 260 633 260 667 260 700 c 13
EndSplineSet
EndChar

StartChar: uni0451
Encoding: 1105 1105 189
Width: 760
Flags: HW
HStem: 0 100<310 660> 200 100<310 610> 400 101<310 610> 600 100<310 410 510 610>
VStem: 210 100<100 200 300 400> 310 100<600 700> 510 100<600 700> 610 100<300 400>
LayerCount: 2
Back
Fore
SplineSet
393 700 m 13
 415 700 438 700 460 700 c 25
 460 667 460 633 460 600 c 25
 438 600 415 600 393 600 c 25
 393 633 393 667 393 700 c 13
260 700 m 9
 282 700 305 700 327 700 c 25
 327 667 327 633 327 600 c 25
 305 600 282 600 260 600 c 25
 260 633 260 667 260 700 c 9
260 400 m 9
 260 367 260 333 260 300 c 25
 327 300 393 300 460 300 c 25
 460 333 460 367 460 400 c 25
 393 400 327 400 260 400 c 9
227 400 m 9
 227 434 227 467 227 501 c 25
 316 501 404 500 493 500 c 25
 493 467 493 433 493 400 c 25
 504 400 516 400 527 400 c 25
 527 333 527 267 527 200 c 25
 438 200 349 200 260 200 c 25
 260 167 260 133 260 100 c 25
 338 100 415 100 493 100 c 25
 493 67 493 33 493 0 c 25
 404 0 316 0 227 0 c 25
 227 33 227 67 227 100 c 25
 216 100 204 100 193 100 c 25
 193 200 193 300 193 400 c 25
 204 400 216 400 227 400 c 9
EndSplineSet
EndChar

StartChar: underscore
Encoding: 95 95 190
Width: 760
Flags: HW
HStem: -100 100<210 710>
LayerCount: 2
Back
Fore
SplineSet
193 -100 m 13
 193 -67 193 -33 193 0 c 1
 304 0 416 0 527 0 c 25
 527 -33 527 -67 527 -100 c 1
 416 -100 304 -100 193 -100 c 13
EndSplineSet
EndChar

StartChar: asciicircum
Encoding: 94 94 191
Width: 760
Flags: HW
HStem: 400 100<310 360 610 660> 600 100<460 510>
VStem: 310 100<400 500> 360 100<500 600> 510 100<500 600> 560 100<400 500>
LayerCount: 2
Back
Fore
SplineSet
260 400 m 13
 260 433 260 467 260 500 c 25
 271 500 282 500 293 500 c 25
 293 533 293 567 293 600 c 25
 304 600 316 600 327 600 c 25
 327 633 327 667 327 700 c 25
 360 700 394 700 427 700 c 25
 427 667 427 633 427 600 c 25
 438 600 449 600 460 600 c 25
 460 567 460 533 460 500 c 25
 471 500 482 500 493 500 c 25
 493 467 493 433 493 400 c 25
 471 400 449 400 427 400 c 25
 427 433 427 467 427 500 c 25
 416 500 404 500 393 500 c 25
 393 533 393 567 393 600 c 25
 382 600 371 600 360 600 c 25
 360 567 360 533 360 500 c 25
 349 500 338 500 327 500 c 25
 327 467 327 433 327 400 c 25
 305 400 282 400 260 400 c 13
EndSplineSet
EndChar

StartChar: grave
Encoding: 96 96 192
Width: 760
Flags: HW
HStem: 400 100<460 510> 600 100<310 360>
VStem: 310 100<600 700> 360 100<500 600> 410 100<400 500>
LayerCount: 2
Back
Fore
SplineSet
260 700 m 13
 282 700 305 700 327 700 c 25
 327 667 327 633 327 600 c 25
 338 600 349 600 360 600 c 25
 360 567 360 533 360 500 c 25
 371 500 382 500 393 500 c 25
 393 467 393 433 393 400 c 25
 371 400 349 400 327 400 c 25
 327 433 327 467 327 500 c 25
 316 500 304 500 293 500 c 25
 293 533 293 567 293 600 c 25
 282 600 271 600 260 600 c 25
 260 633 260 667 260 700 c 13
EndSplineSet
EndChar

StartChar: bracketleft
Encoding: 91 91 193
Width: 760
Flags: HW
HStem: 0 100<460 560> 600 100<460 560>
VStem: 360 200<0 100 600 700> 360 100<100 600>
LayerCount: 2
Back
Fore
SplineSet
427 600 m 13
 405 600 382 600 360 600 c 25
 360 433 360 267 360 100 c 25
 382 100 405 100 427 100 c 25
 427 67 427 33 427 0 c 25
 383 0 337 0 293 0 c 25
 293 233 293 467 293 700 c 25
 337 700 383 700 427 700 c 25
 427 667 427 633 427 600 c 13
EndSplineSet
EndChar

StartChar: bracketright
Encoding: 93 93 194
Width: 760
Flags: HW
HStem: 0 100<360 460> 600 100<360 460>
VStem: 360 200<0 100 600 700> 460 100<100 600>
LayerCount: 2
Back
Fore
SplineSet
293 700 m 13
 337 700 382 700 426 700 c 1
 426 467 427 233 427 0 c 25
 383 0 337 0 293 0 c 25
 293 33 293 67 293 100 c 25
 315 100 338 100 360 100 c 25
 360 267 360 433 360 600 c 25
 338 600 315 600 293 600 c 1
 293 633 293 667 293 700 c 13
EndSplineSet
EndChar

StartChar: backslash
Encoding: 92 92 195
Width: 760
Flags: HW
HStem: 0 100<610 660> 600 100<260 310>
VStem: 260 100<600 700> 310 100<500 600> 360 100<400 500> 410 100<300 400> 460 100<200 300> 510 100<100 200> 560 100<0 100>
LayerCount: 2
Back
Fore
SplineSet
227 600 m 13
 227 633 227 667 227 700 c 25
 249 700 271 700 293 700 c 25
 293 667 293 633 293 600 c 25
 304 600 316 600 327 600 c 25
 327 567 327 533 327 500 c 25
 338 500 349 500 360 500 c 25
 360 467 360 433 360 400 c 25
 371 400 382 400 393 400 c 25
 393 367 393 333 393 300 c 25
 404 300 416 300 427 300 c 25
 427 267 427 233 427 200 c 25
 438 200 449 200 460 200 c 25
 460 167 460 133 460 100 c 25
 471 100 482 100 493 100 c 25
 493 67 493 33 493 0 c 25
 471 0 449 0 427 0 c 25
 427 33 427 67 427 100 c 25
 416 100 404 100 393 100 c 25
 393 133 393 167 393 200 c 25
 382 200 371 200 360 200 c 25
 360 233 360 267 360 300 c 25
 349 300 338 300 327 300 c 25
 327 333 327 367 327 400 c 25
 316 400 304 400 293 400 c 25
 293 433 293 467 293 500 c 25
 282 500 271 500 260 500 c 25
 260 533 260 567 260 600 c 25
 249 600 238 600 227 600 c 13
EndSplineSet
EndChar

StartChar: Odieresis
Encoding: 214 214 196
Width: 760
Flags: HW
HStem: 0 100<360 560> 500 100<360 560> 700 100<310 410 510 610>
VStem: 210 100<200 400> 260 100<100 200 400 500> 310 100<700 800> 510 100<700 800> 560 100<100 200 400 500> 610 100<200 400>
LayerCount: 2
Back
Fore
SplineSet
293 500 m 13
 293 467 293 433 293 400 c 25
 282 400 271 400 260 400 c 25
 260 333 260 267 260 200 c 25
 271 200 282 200 293 200 c 25
 293 167 293 133 293 100 c 25
 337 100 383 100 427 100 c 25
 427 133 427 167 427 200 c 25
 438 200 449 200 460 200 c 25
 460 267 460 333 460 400 c 25
 449 400 438 400 427 400 c 25
 427 433 427 467 427 500 c 25
 383 500 337 500 293 500 c 13
260 600 m 9
 327 600 393 600 460 600 c 25
 460 567 460 533 460 500 c 25
 471 500 482 500 493 500 c 25
 493 467 493 433 493 400 c 25
 504 400 516 400 527 400 c 25
 527 333 527 267 527 200 c 25
 516 200 504 200 493 200 c 25
 493 167 493 133 493 100 c 25
 482 100 471 100 460 100 c 25
 460 67 460 33 460 0 c 25
 393 0 327 0 260 0 c 25
 260 33 260 67 260 100 c 25
 249 100 238 100 227 100 c 25
 227 133 227 167 227 200 c 25
 216 200 204 200 193 200 c 25
 193 267 193 333 193 400 c 25
 204 400 216 400 227 400 c 25
 227 433 227 467 227 500 c 25
 238 500 249 500 260 500 c 25
 260 533 260 567 260 600 c 9
393 700 m 9
 393 733 393 767 393 800 c 25
 415 800 438 800 460 800 c 25
 460 767 460 733 460 700 c 25
 438 700 415 700 393 700 c 9
260 700 m 9
 260 733 260 767 260 800 c 25
 282 800 305 800 327 800 c 25
 327 767 327 733 327 700 c 25
 305 700 282 700 260 700 c 9
EndSplineSet
EndChar

StartChar: acute
Encoding: 180 180 197
Width: 760
Flags: HW
HStem: 400 100<310 360> 600 100<460 510>
VStem: 310 100<400 500> 360 100<500 600> 410 100<600 700>
LayerCount: 2
Back
Fore
SplineSet
327 600 m 13
 327 633 327 667 327 700 c 25
 349 700 371 700 393 700 c 25
 393 667 393 633 393 600 c 25
 382 600 371 600 360 600 c 25
 360 567 360 533 360 500 c 25
 349 500 338 500 327 500 c 25
 327 467 327 433 327 400 c 25
 305 400 282 400 260 400 c 25
 260 433 260 467 260 500 c 25
 271 500 282 500 293 500 c 25
 293 533 293 567 293 600 c 25
 304 600 316 600 327 600 c 13
EndSplineSet
EndChar

StartChar: plusminus
Encoding: 177 177 198
Width: 760
Flags: HW
HStem: 100 100<260 660> 451 99<260 410 510 660> 680 20G<410 510>
VStem: 410 100<300 450 550 700>
LayerCount: 2
Back
Fore
SplineSet
227 200 m 13
 316 200 404 200 493 200 c 25
 493 167 493 134 493 101 c 25
 404 101 316 100 227 100 c 25
 227 133 227 167 227 200 c 13
227 550 m 9
 260 550 294 550 327 550 c 25
 327 600 327 650 327 700 c 25
 349 700 371 700 393 700 c 25
 393 650 393 600 393 550 c 25
 426 550 460 551 493 551 c 25
 493 517 493 484 493 450 c 25
 460 450 426 450 393 450 c 25
 393 400 393 350 393 300 c 25
 371 300 349 300 327 300 c 25
 327 350 327 401 327 451 c 25
 294 451 260 451 227 451 c 25
 227 484 227 517 227 550 c 9
EndSplineSet
EndChar

StartChar: uni20BD
Encoding: 8381 8381 199
Width: 760
Flags: HW
HStem: 0 21G<260 360> 150 100<160 260 360 560> 300 100<160 260 360 610> 600 100<360 610>
VStem: 260 100<0 150 250 300 400 600> 610 100<400 600>
LayerCount: 2
Back
Fore
SplineSet
293 400 m 9
 349 400 404 400 460 400 c 25
 460 467 460 533 460 600 c 25
 404 600 349 600 293 600 c 25
 293 533 293 467 293 400 c 9
227 700 m 9
 316 700 404 700 493 700 c 25
 493 683 493 667 493 650 c 25
 504 650 516 650 527 650 c 25
 527 567 527 483 527 400 c 25
 516 400 504 400 493 400 c 25
 493 367 493 333 493 300 c 25
 426 300 360 300 293 300 c 25
 293 283 293 267 293 250 c 1
 337 250 383 250 427 250 c 5
 427 217 427 183 427 150 c 1
 383 150 337 150 293 150 c 1
 293 100 293 50 293 0 c 25
 271 0 249 0 227 0 c 25
 227 50 227 100 227 150 c 25
 205 150 182 150 160 150 c 25
 160 183 160 217 160 250 c 25
 182 250 205 250 227 250 c 25
 227 267 227 283 227 300 c 25
 205 300 182 300 160 300 c 25
 160 333 160 367 160 400 c 25
 182 400 205 400 227 400 c 25
 227 500 227 600 227 700 c 9
EndSplineSet
EndChar

StartChar: Udieresis
Encoding: 220 220 200
Width: 760
Flags: HW
HStem: 0 100<360 610> 700 100<310 410 560 660>
VStem: 260 100<100 600> 310 100<700 800> 560 100<700 800> 610 100<100 600>
LayerCount: 2
Back
Fore
SplineSet
427 800 m 13
 449 800 471 800 493 800 c 25
 493 767 493 733 493 700 c 25
 471 700 449 700 427 700 c 25
 427 733 427 767 427 800 c 13
260 700 m 9
 260 733 260 767 260 800 c 25
 282 800 305 800 327 800 c 25
 327 767 327 733 327 700 c 25
 305 700 282 700 260 700 c 9
227 600 m 1
 249 600 271 600 293 600 c 1
 293 433 293 267 293 100 c 1
 349 100 404 100 460 100 c 1
 460 267 460 433 460 600 c 1
 482 600 505 600 527 600 c 1
 527 433 527 267 527 100 c 1
 516 100 504 100 493 100 c 25
 493 67 493 33 493 0 c 25
 415 0 338 0 260 0 c 25
 260 33 260 67 260 100 c 25
 249 100 238 100 227 100 c 1
 227 267 227 433 227 600 c 1
EndSplineSet
EndChar

StartChar: Adieresis
Encoding: 196 196 201
Width: 760
Flags: HW
HStem: 0 21G<210 310 610 710> 200 100<310 610> 500 100<360 559> 700 100<310 410 510 610>
VStem: 210 100<0 200 300 400> 260 99<400 500> 310 100<700 800> 510 100<700 800> 560 100<400 500> 610 100<0 200 300 400>
LayerCount: 2
Back
Fore
SplineSet
393 700 m 13
 393 733 393 767 393 800 c 29
 415 800 438 800 460 800 c 29
 460 767 460 733 460 700 c 29
 438 700 415 700 393 700 c 13
260 700 m 13
 260 733 260 767 260 800 c 29
 282 800 305 800 327 800 c 29
 327 767 327 733 327 700 c 29
 305 700 282 700 260 700 c 13
260 300 m 9
 327 300 393 300 460 300 c 25
 460 333 460 367 460 400 c 25
 449 400 438 400 427 400 c 25
 427 433 426 467 426 500 c 25
 382 500 337 500 293 500 c 25
 293 467 293 433 293 400 c 25
 282 400 271 400 260 400 c 25
 260 367 260 333 260 300 c 9
193 0 m 9
 193 133 193 267 193 400 c 1
 204 400 216 400 227 400 c 25
 227 433 227 467 227 500 c 25
 238 500 249 500 260 500 c 25
 260 533 260 567 260 600 c 25
 327 600 393 600 460 600 c 25
 460 567 460 533 460 500 c 25
 471 500 482 500 493 500 c 25
 493 467 493 433 493 400 c 25
 504 400 516 400 527 400 c 25
 527 267 527 133 527 0 c 25
 505 0 482 0 460 0 c 25
 460 67 460 133 460 200 c 25
 393 200 327 200 260 200 c 25
 260 133 260 67 260 0 c 1
 238 0 215 0 193 0 c 9
EndSplineSet
EndChar

StartChar: adieresis
Encoding: 228 228 202
Width: 760
Flags: HW
HStem: 0 100<310 560 660 709> 100 100<210 260> 200 100<310 560> 400 100<260 560> 600 100<310 410 510 610>
VStem: 210 100<100 200> 310 100<600 700> 510 100<600 700> 560 100<100 200 300 400>
LayerCount: 2
Back
Fore
SplineSet
393 600 m 13
 393 633 393 667 393 700 c 29
 415 700 438 700 460 700 c 29
 460 667 460 633 460 600 c 29
 438 600 415 600 393 600 c 13
260 600 m 13
 260 633 260 667 260 700 c 29
 282 700 305 700 327 700 c 29
 327 667 327 633 327 600 c 29
 305 600 282 600 260 600 c 13
260 200 m 9
 260 167 260 133 260 100 c 25
 316 100 371 100 427 100 c 25
 427 133 427 167 427 200 c 25
 371 200 316 200 260 200 c 9
227 500 m 9
 305 500 382 500 460 500 c 25
 460 467 460 433 460 400 c 25
 471 400 482 400 493 400 c 25
 493 300 493 200 493 100 c 25
 504 100 515 100 526 100 c 25
 526 67 527 33 527 0 c 25
 427 0 327 0 227 0 c 25
 227 33 227 67 227 100 c 25
 216 100 204 100 193 100 c 25
 193 133 193 167 193 200 c 25
 204 200 216 200 227 200 c 25
 227 233 227 267 227 300 c 25
 294 300 360 300 427 300 c 25
 427 333 427 367 427 400 c 25
 360 400 294 400 227 400 c 25
 227 433 227 467 227 500 c 9
EndSplineSet
EndChar

StartChar: odieresis
Encoding: 246 246 203
Width: 760
Flags: HW
HStem: 0 100<360 610> 400 100<360 610> 600 100<310 410 560 660>
VStem: 260 100<100 400> 310 100<600 700> 560 100<600 700> 610 100<100 400>
LayerCount: 2
Back
Fore
SplineSet
427 600 m 13
 427 633 427 667 427 700 c 29
 449 700 471 700 493 700 c 29
 493 667 493 633 493 600 c 29
 471 600 449 600 427 600 c 13
260 600 m 9
 260 633 260 667 260 700 c 25
 282 700 305 700 327 700 c 25
 327 667 327 633 327 600 c 25
 305 600 282 600 260 600 c 9
293 400 m 9
 293 300 293 200 293 100 c 25
 349 100 404 100 460 100 c 25
 460 200 460 300 460 400 c 25
 404 400 349 400 293 400 c 9
260 500 m 9
 338 500 415 500 493 500 c 25
 493 467 493 433 493 400 c 25
 504 400 516 400 527 400 c 25
 527 300 527 200 527 100 c 25
 516 100 504 100 493 100 c 25
 493 67 493 33 493 0 c 25
 415 0 338 0 260 0 c 25
 260 33 260 67 260 100 c 25
 249 100 238 100 227 100 c 25
 227 200 227 300 227 400 c 25
 238 400 249 400 260 400 c 25
 260 433 260 467 260 500 c 9
EndSplineSet
EndChar

StartChar: germandbls
Encoding: 223 223 204
Width: 760
Flags: HW
HStem: 0 100<410 610> 300 100<460 560> 600 100<410 560>
VStem: 260 100<0 500> 310 100<500 600> 460 150<300 400> 560 100<400 600> 610 100<100 300>
CounterMasks: 1 e0
LayerCount: 2
Back
Fore
SplineSet
293 600 m 9
 293 633 293 667 293 700 c 1
 349 700 404 700 460 700 c 25
 460 667 460 633 460 600 c 25
 471 600 482 600 493 600 c 25
 493 533 493 467 493 400 c 25
 482 400 471 400 460 400 c 25
 460 367 460 333 460 300 c 25
 482 300 505 300 527 300 c 25
 527 233 527 167 527 100 c 25
 516 100 504 100 493 100 c 25
 493 67 493 33 493 0 c 25
 437 0 383 0 327 0 c 25
 327 33 327 67 327 100 c 25
 371 100 416 100 460 100 c 25
 460 167 460 233 460 300 c 25
 427 300 393 300 360 300 c 25
 360 333 360 367 360 400 c 25
 382 400 405 400 427 400 c 25
 427 467 427 533 427 600 c 25
 394 600 360 600 327 600 c 25
 327 567 327 533 327 500 c 25
 316 500 304 500 293 500 c 25
 293 333 293 167 293 0 c 25
 271 0 249 0 227 0 c 25
 227 167 227 333 227 500 c 25
 238 500 249 500 260 500 c 25
 260 533 260 567 260 600 c 1
 271 600 282 600 293 600 c 9
EndSplineSet
EndChar

StartChar: uniFFFD
Encoding: 65533 65533 205
Width: 760
Flags: HW
HStem: -200 21G<360 560> 100 100<410 510> 480 20G<410 510> 600 200<360 560>
VStem: 210 100<400 500> 260 150<0 100> 260 100<500 600> 310 300<-100 0 600 700> 360 200<-200 -100 700 800> 410 100<400 500> 510 150<0 100> 560 100<500 600> 610 150<300 400> 610 100<400 500>
LayerCount: 2
Back
Fore
SplineSet
327 200 m 13
 360 200 394 200 427 200 c 25
 427 233 427 267 427 300 c 25
 438 300 449 300 460 300 c 25
 460 367 460 433 460 500 c 25
 449 500 438 500 427 500 c 25
 427 533 427 567 427 600 c 25
 383 600 337 600 293 600 c 25
 293 567 293 533 293 500 c 25
 282 500 271 500 260 500 c 25
 260 467 260 433 260 400 c 25
 282 400 305 400 327 400 c 25
 327 433 327 467 327 500 c 25
 349 500 371 500 393 500 c 25
 393 433 393 367 393 300 c 25
 371 300 349 300 327 300 c 25
 327 267 327 233 327 200 c 13
327 0 m 9
 349 0 371 0 393 0 c 25
 393 33 393 67 393 100 c 25
 371 100 349 100 327 100 c 25
 327 67 327 33 327 0 c 9
160 200 m 9
 160 267 160 333 160 400 c 25
 171 400 182 400 193 400 c 25
 193 433 193 467 193 500 c 25
 204 500 216 500 227 500 c 25
 227 533 227 567 227 600 c 25
 238 600 249 600 260 600 c 25
 260 633 260 667 260 700 c 25
 271 700 282 700 293 700 c 25
 293 733 293 767 293 800 c 25
 337 800 383 800 427 800 c 25
 427 767 427 733 427 700 c 25
 438 700 449 700 460 700 c 25
 460 667 460 633 460 600 c 25
 471 600 482 600 493 600 c 25
 493 567 493 533 493 500 c 25
 504 500 516 500 527 500 c 25
 527 467 527 433 527 400 c 25
 538 400 549 400 560 400 c 25
 560 333 560 267 560 200 c 25
 549 200 538 200 527 200 c 25
 527 167 527 133 527 100 c 25
 516 100 504 100 493 100 c 25
 493 67 493 33 493 0 c 25
 482 0 471 0 460 0 c 25
 460 -33 460 -67 460 -100 c 25
 449 -100 438 -100 427 -100 c 25
 427 -133 427 -167 427 -200 c 25
 383 -200 337 -200 293 -200 c 25
 293 -167 293 -133 293 -100 c 25
 282 -100 271 -100 260 -100 c 25
 260 -67 260 -33 260 0 c 25
 249 0 238 0 227 0 c 25
 227 33 227 67 227 100 c 25
 216 100 204 100 193 100 c 25
 193 133 193 167 193 200 c 25
 182 200 171 200 160 200 c 9
EndSplineSet
EndChar

StartChar: Oslash
Encoding: 216 216 206
Width: 760
Flags: HW
HStem: 0 100<360 560> 600 100<360 560>
VStem: 210 100<200 500> 260 100<100 200 500 600> 310 300<0 100 600 700> 560 100<100 200 500 600> 610 100<200 500>
LayerCount: 2
Back
Fore
SplineSet
427 100 m 13
 427 133 427 167 427 200 c 25
 438 200 449 200 460 200 c 25
 460 300 460 400 460 500 c 25
 449 500 438 500 427 500 c 25
 427 533 427 567 427 600 c 25
 383 600 337 600 293 600 c 25
 293 567 293 533 293 500 c 25
 282 500 271 500 260 500 c 25
 260 400 260 300 260 200 c 25
 271 200 282 200 293 200 c 25
 293 167 293 133 293 100 c 25
 337 100 383 100 427 100 c 13
460 0 m 9
 393 0 327 0 260 0 c 25
 260 33 260 67 260 100 c 25
 249 100 238 100 227 100 c 25
 227 133 227 167 227 200 c 25
 216 200 204 200 193 200 c 25
 193 300 193 400 193 500 c 25
 204 500 216 500 227 500 c 25
 227 533 227 567 227 600 c 25
 238 600 249 600 260 600 c 25
 260 633 260 667 260 700 c 25
 327 700 393 700 460 700 c 25
 460 667 460 633 460 600 c 25
 471 600 482 600 493 600 c 25
 493 567 493 533 493 500 c 25
 504 500 516 500 527 500 c 25
 527 400 527 300 527 200 c 25
 516 200 504 200 493 200 c 25
 493 167 493 133 493 100 c 25
 482 100 471 100 460 100 c 25
 460 67 460 33 460 0 c 9
EndSplineSet
EndChar

StartChar: multiply
Encoding: 215 215 207
Width: 760
Flags: HW
HStem: 0 100<210 310 610 710> 200 100<410 510> 400 100<210 310 610 710>
VStem: 210 150<0 100 400 500> 310 100<100 200 300 400> 510 100<100 200 300 400> 560 150<0 100 400 500>
LayerCount: 2
Back
Fore
SplineSet
193 500 m 13
 226 500 260 500 293 500 c 25
 293 467 293 433 293 400 c 25
 304 400 316 400 327 400 c 25
 327 367 327 333 327 300 c 25
 349 300 371 300 393 300 c 25
 393 333 393 367 393 400 c 25
 404 400 416 400 427 400 c 25
 427 433 427 467 427 500 c 25
 460 500 494 500 527 500 c 25
 527 467 527 433 527 400 c 25
 505 400 482 400 460 400 c 25
 460 367 460 333 460 300 c 25
 449 300 438 300 427 300 c 25
 427 267 427 233 427 200 c 25
 438 200 449 200 460 200 c 25
 460 167 460 133 460 100 c 25
 482 100 505 100 527 100 c 25
 527 67 527 33 527 0 c 25
 494 0 460 0 427 0 c 25
 427 33 427 67 427 100 c 25
 416 100 404 100 393 100 c 25
 393 133 393 167 393 200 c 25
 371 200 349 200 327 200 c 25
 327 167 327 133 327 100 c 25
 316 100 304 100 293 100 c 25
 293 67 293 33 293 0 c 25
 260 0 226 0 193 0 c 25
 193 33 193 67 193 100 c 25
 215 100 238 100 260 100 c 25
 260 133 260 167 260 200 c 25
 271 200 282 200 293 200 c 25
 293 233 293 267 293 300 c 25
 282 300 271 300 260 300 c 25
 260 333 260 367 260 400 c 25
 238 400 215 400 193 400 c 25
 193 433 193 467 193 500 c 13
EndSplineSet
EndChar

StartChar: divide
Encoding: 247 247 208
Width: 760
Flags: HW
HStem: 0 100<210 310 610 710> 200 100<410 510> 400 100<210 310 610 710>
VStem: 210 150<0 100 400 500> 310 100<100 200 300 400> 510 100<100 200 300 400> 560 150<0 100 400 500>
LayerCount: 2
Back
Fore
SplineSet
193 500 m 13
 226 500 260 500 293 500 c 25
 293 467 293 433 293 400 c 25
 304 400 316 400 327 400 c 25
 327 367 327 333 327 300 c 25
 349 300 371 300 393 300 c 25
 393 333 393 367 393 400 c 25
 404 400 416 400 427 400 c 25
 427 433 427 467 427 500 c 25
 460 500 494 500 527 500 c 25
 527 467 527 433 527 400 c 25
 505 400 482 400 460 400 c 25
 460 367 460 333 460 300 c 25
 449 300 438 300 427 300 c 25
 427 267 427 233 427 200 c 25
 438 200 449 200 460 200 c 25
 460 167 460 133 460 100 c 25
 482 100 505 100 527 100 c 25
 527 67 527 33 527 0 c 25
 494 0 460 0 427 0 c 25
 427 33 427 67 427 100 c 25
 416 100 404 100 393 100 c 25
 393 133 393 167 393 200 c 25
 371 200 349 200 327 200 c 25
 327 167 327 133 327 100 c 25
 316 100 304 100 293 100 c 25
 293 67 293 33 293 0 c 25
 260 0 226 0 193 0 c 25
 193 33 193 67 193 100 c 25
 215 100 238 100 260 100 c 25
 260 133 260 167 260 200 c 25
 271 200 282 200 293 200 c 25
 293 233 293 267 293 300 c 25
 282 300 271 300 260 300 c 25
 260 333 260 367 260 400 c 25
 238 400 215 400 193 400 c 25
 193 433 193 467 193 500 c 13
EndSplineSet
EndChar

StartChar: brokenbar
Encoding: 166 166 209
Width: 760
Flags: HW
HStem: 0 21G<410 510> 680 20G<410 510>
VStem: 410 100<0 700>
LayerCount: 2
Back
Fore
SplineSet
327 700 m 13
 349 700 371 700 393 700 c 25
 393 467 393 233 393 0 c 25
 371 0 349 0 327 0 c 25
 327 233 327 467 327 700 c 13
EndSplineSet
EndChar

StartChar: degree
Encoding: 176 176 210
Width: 760
Flags: HMW
LayerCount: 2
Back
Fore
SplineSet
327 600 m 13
 327 567 327 533 327 500 c 25
 349 500 371 500 393 500 c 25
 393 533 393 567 393 600 c 25
 371 600 349 600 327 600 c 13
293 600 m 9
 293 633 293 667 293 700 c 25
 337 700 383 700 427 700 c 25
 427 667 427 633 427 600 c 25
 438 600 449 600 460 600 c 25
 460 567 460 533 460 500 c 25
 449 500 438 500 427 500 c 25
 427 467 427 433 427 400 c 25
 383 400 337 400 293 400 c 25
 293 433 293 467 293 500 c 25
 282 500 271 500 260 500 c 25
 260 533 260 567 260 600 c 25
 271 600 282 600 293 600 c 9
EndSplineSet
EndChar

StartChar: arrowright
Encoding: 8594 8594 211
Width: 760
Flags: HW
HStem: 100 100<410 460> 300 100<160 460 610 710> 500 100<410 460>
VStem: 410 100<100 200 500 600> 460 150<200 300 400 500>
CounterMasks: 1 e0
LayerCount: 2
Back
Fore
SplineSet
327 500 m 13
 327 533 327 567 327 600 c 25
 349 600 371 600 393 600 c 25
 393 567 393 533 393 500 c 25
 415 500 438 500 460 500 c 25
 460 467 460 433 460 400 c 25
 482 400 505 400 527 400 c 25
 527 367 527 333 527 300 c 25
 505 300 482 300 460 300 c 25
 460 267 460 233 460 200 c 25
 438 200 415 200 393 200 c 25
 393 167 393 133 393 100 c 25
 371 100 349 100 327 100 c 25
 327 133 327 167 327 200 c 25
 338 200 349 200 360 200 c 25
 360 233 360 267 360 300 c 25
 293 300 227 300 160 300 c 25
 160 333 160 367 160 400 c 25
 227 400 293 400 360 400 c 25
 360 433 360 467 360 500 c 25
 349 500 338 500 327 500 c 13
EndSplineSet
EndChar

StartChar: arrowleft
Encoding: 8592 8592 212
Width: 760
Flags: HW
HStem: 100 100<510 560> 300 100<260 360 510 760> 500 100<510 560>
VStem: 360 150<200 300 400 500> 460 100<100 200 500 600>
CounterMasks: 1 e0
LayerCount: 2
Back
Fore
SplineSet
360 500 m 13
 360 533 360 567 360 600 c 25
 382 600 405 600 427 600 c 25
 427 567 427 533 427 500 c 25
 416 500 404 500 393 500 c 25
 393 467 393 433 393 400 c 25
 449 400 504 400 560 400 c 25
 560 367 560 333 560 300 c 25
 504 300 449 300 393 300 c 25
 393 267 393 233 393 200 c 25
 404 200 416 200 427 200 c 25
 427 167 427 133 427 100 c 25
 405 100 382 100 360 100 c 25
 360 133 360 167 360 200 c 25
 338 200 315 200 293 200 c 25
 293 233 293 267 293 300 c 25
 271 300 249 300 227 300 c 25
 227 333 227 367 227 400 c 25
 249 400 271 400 293 400 c 25
 293 433 293 467 293 500 c 25
 315 500 338 500 360 500 c 13
EndSplineSet
EndChar

StartChar: arrowup
Encoding: 8593 8593 213
Width: 760
Flags: HW
HStem: 0 21G<410 510> 300 100<260 310 610 660> 680 20G<410 510>
VStem: 260 100<300 400> 410 100<0 400 600 700> 560 100<300 400>
CounterMasks: 1 1c
LayerCount: 2
Back
Fore
SplineSet
293 300 m 13
 271 300 249 300 227 300 c 25
 227 333 227 367 227 400 c 25
 238 400 249 400 260 400 c 25
 260 433 260 467 260 500 c 25
 271 500 282 500 293 500 c 25
 293 533 293 567 293 600 c 25
 304 600 316 600 327 600 c 25
 327 633 327 667 327 700 c 25
 349 700 371 700 393 700 c 25
 393 667 393 633 393 600 c 25
 404 600 416 600 427 600 c 25
 427 567 427 533 427 500 c 25
 438 500 449 500 460 500 c 25
 460 467 460 433 460 400 c 25
 471 400 482 400 493 400 c 25
 493 367 493 333 493 300 c 25
 471 300 449 300 427 300 c 25
 427 333 427 367 427 400 c 25
 416 400 404 400 393 400 c 25
 393 267 393 133 393 0 c 25
 371 0 349 0 327 0 c 25
 327 133 327 267 327 400 c 25
 316 400 304 400 293 400 c 25
 293 367 293 333 293 300 c 13
EndSplineSet
EndChar

StartChar: arrowdown
Encoding: 8595 8595 214
Width: 760
Flags: HW
HStem: 0 21G<410 510> 300 100<260 310 610 660> 680 20G<410 510>
VStem: 260 100<300 400> 410 100<0 100 300 700> 560 100<300 400>
CounterMasks: 1 1c
LayerCount: 2
Back
Fore
SplineSet
327 300 m 13
 327 433 327 567 327 700 c 1
 349 700 371 700 393 700 c 25
 393 567 393 433 393 300 c 25
 404 300 416 300 427 300 c 25
 427 333 427 367 427 400 c 25
 449 400 471 400 493 400 c 25
 493 367 493 333 493 300 c 25
 482 300 471 300 460 300 c 25
 460 267 460 233 460 200 c 25
 449 200 438 200 427 200 c 25
 427 167 427 133 427 100 c 25
 416 100 404 100 393 100 c 25
 393 67 393 33 393 0 c 25
 371 0 349 0 327 0 c 25
 327 33 327 67 327 100 c 25
 316 100 304 100 293 100 c 25
 293 133 293 167 293 200 c 25
 282 200 271 200 260 200 c 25
 260 233 260 267 260 300 c 25
 249 300 238 300 227 300 c 25
 227 333 227 367 227 400 c 25
 249 400 271 400 293 400 c 25
 293 367 293 333 293 300 c 1
 304 300 316 300 327 300 c 13
EndSplineSet
EndChar

StartChar: arrowboth
Encoding: 8596 8596 215
Width: 1360
Flags: HW
HStem: 100 100<560 660 860 960> 200 300<460 560 960 1060> 300 100<360 460 560 960 1060 1160> 500 100<560 660 860 960>
VStem: 460 100<200 300 400 500> 560 100<100 200 500 600> 860 100<100 200 500 600> 960 100<200 300 400 500>
LayerCount: 2
Back
Fore
SplineSet
293 300 m 13
 293 333 293 367 293 400 c 25
 315 400 338 400 360 400 c 25
 360 433 360 467 360 500 c 25
 382 500 405 500 427 500 c 25
 427 533 427 567 427 600 c 25
 449 600 471 600 493 600 c 25
 493 567 493 533 493 500 c 25
 471 500 449 500 427 500 c 25
 427 467 427 433 427 400 c 25
 516 400 604 400 693 400 c 25
 693 433 693 467 693 500 c 25
 671 500 649 500 627 500 c 25
 627 533 627 567 627 600 c 25
 649 600 671 600 693 600 c 25
 693 567 693 533 693 500 c 25
 715 500 738 500 760 500 c 25
 760 467 760 433 760 400 c 25
 782 400 805 400 827 400 c 25
 827 367 827 333 827 300 c 25
 805 300 782 300 760 300 c 25
 760 267 760 233 760 200 c 25
 738 200 715 200 693 200 c 25
 693 167 693 133 693 100 c 25
 671 100 649 100 627 100 c 25
 627 133 627 167 627 200 c 25
 649 200 671 200 693 200 c 25
 693 233 693 267 693 300 c 25
 604 300 516 300 427 300 c 25
 427 267 427 233 427 200 c 25
 449 200 471 200 493 200 c 25
 493 167 493 133 493 100 c 25
 471 100 449 100 427 100 c 25
 427 133 427 167 427 200 c 25
 405 200 382 200 360 200 c 25
 360 233 360 267 360 300 c 25
 338 300 315 300 293 300 c 13
EndSplineSet
EndChar

StartChar: arrowupdn
Encoding: 8597 8597 216
Width: 760
Flags: HW
HStem: 0 21G<360 560> 200 100<260 310 610 660> 400 100<260 310 610 660> 680 20G<360 560>
VStem: 260 100<200 300 400 500> 310 300<100 200 500 600> 360 200<0 100 600 700> 560 100<200 300 400 500>
LayerCount: 2
Back
Fore
SplineSet
227 200 m 13
 227 233 227 267 227 300 c 25
 249 300 271 300 293 300 c 25
 293 267 293 233 293 200 c 25
 304 200 316 200 327 200 c 25
 327 300 327 400 327 500 c 25
 316 500 304 500 293 500 c 25
 293 467 293 433 293 400 c 25
 271 400 249 400 227 400 c 25
 227 433 227 467 227 500 c 25
 238 500 249 500 260 500 c 25
 260 533 260 567 260 600 c 25
 271 600 282 600 293 600 c 25
 293 633 293 667 293 700 c 25
 337 700 383 700 427 700 c 25
 427 667 427 633 427 600 c 25
 438 600 449 600 460 600 c 25
 460 567 460 533 460 500 c 25
 471 500 482 500 493 500 c 25
 493 467 493 433 493 400 c 25
 471 400 449 400 427 400 c 25
 427 433 427 467 427 500 c 25
 416 500 404 500 393 500 c 25
 393 400 393 300 393 200 c 25
 404 200 416 200 427 200 c 25
 427 233 427 267 427 300 c 25
 449 300 471 300 493 300 c 25
 493 267 493 233 493 200 c 25
 482 200 471 200 460 200 c 25
 460 167 460 133 460 100 c 25
 449 100 438 100 427 100 c 25
 427 67 427 33 427 0 c 25
 383 0 337 0 293 0 c 25
 293 33 293 67 293 100 c 25
 282 100 271 100 260 100 c 25
 260 133 260 167 260 200 c 25
 249 200 238 200 227 200 c 13
EndSplineSet
EndChar

StartChar: uni2600
Encoding: 9728 9728 217
Width: 1360
Flags: HW
HStem: -100 100<710 810> 0 100<460 560 960 1060> 200 300<610 710 810 910> 300 100<260 410 510 610 910 1010 1110 1260> 600 100<410 510 1010 1110> 700 100<710 810>
VStem: 260 150<300 400> 410 100<600 700> 460 100<0 100> 610 300<200 300 400 500> 710 100<-100 0 100 200 500 600 700 800> 960 100<0 100> 1010 100<600 700> 1110 150<300 400>
LayerCount: 2
Back
Fore
SplineSet
727 600 m 9
 727 633 727 667 727 700 c 25
 749 700 771 700 793 700 c 25
 793 667 793 633 793 600 c 25
 771 600 749 600 727 600 c 9
527 700 m 9
 527 733 527 767 527 800 c 25
 549 800 571 800 593 800 c 25
 593 767 593 733 593 700 c 25
 571 700 549 700 527 700 c 9
327 600 m 9
 327 633 327 667 327 700 c 25
 349 700 371 700 393 700 c 25
 393 667 393 633 393 600 c 25
 371 600 349 600 327 600 c 9
793 300 m 1
 793 333 793 367 793 400 c 25
 826 400 860 400 893 400 c 1
 893 367 893 333 893 300 c 25
 860 300 826 300 793 300 c 1
227 300 m 1
 227 333 227 367 227 400 c 25
 260 400 294 400 327 400 c 1
 327 367 327 333 327 300 c 25
 294 300 260 300 227 300 c 1
693 0 m 9
 693 33 693 67 693 100 c 25
 715 100 738 100 760 100 c 25
 760 67 760 33 760 0 c 25
 738 0 715 0 693 0 c 9
527 -100 m 9
 527 -67 527 -33 527 0 c 25
 549 0 571 0 593 0 c 25
 593 -33 593 -67 593 -100 c 25
 571 -100 549 -100 527 -100 c 9
360 0 m 9
 360 33 360 67 360 100 c 25
 382 100 405 100 427 100 c 25
 427 67 427 33 427 0 c 25
 405 0 382 0 360 0 c 9
393 300 m 9
 393 333 393 367 393 400 c 1
 415 400 438 400 460 400 c 25
 460 433 460 467 460 500 c 1
 482 500 505 500 527 500 c 1
 527 533 527 567 527 600 c 1
 549 600 571 600 593 600 c 1
 593 567 593 533 593 500 c 25
 615 500 638 500 660 500 c 25
 660 467 660 433 660 400 c 25
 682 400 705 400 727 400 c 25
 727 367 727 333 727 300 c 25
 705 300 682 300 660 300 c 25
 660 267 660 233 660 200 c 25
 638 200 615 200 593 200 c 25
 593 167 593 133 593 100 c 25
 571 100 549 100 527 100 c 25
 527 133 527 167 527 200 c 25
 505 200 482 200 460 200 c 25
 460 233 460 267 460 300 c 1
 438 300 415 300 393 300 c 9
EndSplineSet
EndChar

StartChar: uni2601
Encoding: 9729 9729 218
Width: 760
Flags: HW
HStem: 100 300<260 360 510 660> 200 100<160 260 710 760> 480 20G<360 510>
VStem: 360 150<400 500>
LayerCount: 2
Back
Fore
SplineSet
160 200 m 13
 160 233 160 267 160 300 c 25
 182 300 205 300 227 300 c 25
 227 333 227 367 227 400 c 25
 249 400 271 400 293 400 c 25
 293 433 293 467 293 500 c 25
 326 500 360 500 393 500 c 25
 393 467 393 433 393 400 c 25
 426 400 460 400 493 400 c 25
 493 367 493 333 493 300 c 25
 515 300 538 300 560 300 c 25
 560 267 560 233 560 200 c 25
 549 200 538 200 527 200 c 25
 527 167 527 133 527 100 c 25
 427 100 327 100 227 100 c 25
 227 133 227 167 227 200 c 25
 205 200 182 200 160 200 c 13
EndSplineSet
EndChar

StartChar: uni2602
Encoding: 9730 9730 219
Width: 760
Flags: HW
HStem: -100 100<310 410> 400 200<260 360 560 660> 400 100<160 260 660 760> 680 20G<360 560>
VStem: 310 150<-100 0> 410 100<0 400>
LayerCount: 2
Back
Fore
SplineSet
160 400 m 13
 160 433 160 467 160 500 c 25
 182 500 205 500 227 500 c 25
 227 533 227 567 227 600 c 25
 249 600 271 600 293 600 c 25
 293 633 293 667 293 700 c 25
 337 700 383 700 427 700 c 25
 427 667 427 633 427 600 c 25
 449 600 471 600 493 600 c 25
 493 567 493 533 493 500 c 25
 515 500 538 500 560 500 c 25
 560 467 560 433 560 400 c 25
 504 400 449 400 393 400 c 25
 393 267 393 133 393 0 c 25
 382 0 371 0 360 0 c 25
 360 -33 360 -67 360 -100 c 25
 327 -100 293 -100 260 -100 c 25
 260 -67 260 -33 260 0 c 25
 282 0 305 0 327 0 c 25
 327 133 327 267 327 400 c 25
 271 400 216 400 160 400 c 13
EndSplineSet
EndChar

StartChar: uni2603
Encoding: 9731 9731 220
Width: 760
Flags: HW
HStem: -100 100<210 310 660 760> -100 50<410 460 510 560> 0 100<360 610> 50 50<160 210 710 760> 100 100<260 310 660 710> 150 50<160 210> 200 100<410 460 510 560> 250 50<210 260 710 760> 350 50<160 210 710 760> 400 100<260 310 410 460 510 560 660 710> 500 100<210 260 310 360 610 660 710 760> 600 200<410 560> 650 50<210 260 660 710> 750 50<160 210 310 360 610 660 710 760>
VStem: 160 50<50 100 150 200 350 400 750 800> 210 50<250 300 500 600 650 700> 260 50<400 500> 310 100<300 400 500 600> 310 50<750 800> 360 100<400 500> 410 50<-100 -50> 510 100<400 500> 510 50<-100 -50> 560 100<300 400 500 600> 610 50<750 800> 660 50<400 500 650 700> 710 50<50 100 250 300 350 400 500 600 750 800>
LayerCount: 2
Back
Fore
SplineSet
327 500 m 13
 338 500 349 500 360 500 c 29
 360 467 360 433 360 400 c 29
 349 400 338 400 327 400 c 29
 327 367 327 333 327 300 c 29
 338 300 349 300 360 300 c 29
 360 267 360 233 360 200 c 29
 338 200 315 200 293 200 c 29
 293 167 293 133 293 100 c 29
 349 100 404 100 460 100 c 29
 460 133 460 167 460 200 c 29
 438 200 415 200 393 200 c 29
 393 233 393 267 393 300 c 29
 404 300 416 300 427 300 c 29
 427 333 427 367 427 400 c 29
 416 400 404 400 393 400 c 29
 393 433 393 467 393 500 c 29
 404 500 416 500 427 500 c 29
 427 533 427 567 427 600 c 29
 394 600 360 600 327 600 c 29
 327 567 327 533 327 500 c 13
193 -100 m 13
 193 -67 193 -33 193 0 c 29
 215 0 238 0 260 0 c 29
 260 33 260 67 260 100 c 29
 249 100 238 100 227 100 c 29
 227 133 227 167 227 200 c 29
 238 200 249 200 260 200 c 29
 260 267 260 333 260 400 c 29
 271 400 282 400 293 400 c 29
 293 433 293 467 293 500 c 29
 282 500 271 500 260 500 c 29
 260 533 260 567 260 600 c 29
 271 600 282 600 293 600 c 29
 293 633 293 667 293 700 c 29
 304 700 316 700 327 700 c 29
 327 733 327 767 327 800 c 29
 360 800 394 800 427 800 c 29
 427 767 427 733 427 700 c 29
 438 700 449 700 460 700 c 29
 460 667 460 633 460 600 c 29
 471 600 482 600 493 600 c 29
 493 567 493 533 493 500 c 29
 482 500 471 500 460 500 c 29
 460 467 460 433 460 400 c 29
 471 400 482 400 493 400 c 29
 493 333 493 267 493 200 c 29
 504 200 516 200 527 200 c 29
 527 167 527 133 527 100 c 29
 516 100 504 100 493 100 c 29
 493 67 493 33 493 0 c 29
 515 0 538 0 560 0 c 29
 560 -33 560 -67 560 -100 c 29
 527 -100 493 -100 460 -100 c 29
 460 -67 460 -33 460 0 c 29
 404 0 349 0 293 0 c 29
 293 -33 293 -67 293 -100 c 29
 260 -100 226 -100 193 -100 c 13
227 500 m 13
 238 500 249 500 260 500 c 29
 260 467 260 433 260 400 c 29
 249 400 238 400 227 400 c 29
 227 433 227 467 227 500 c 13
193 600 m 13
 204 600 216 600 227 600 c 29
 227 567 227 533 227 500 c 29
 216 500 204 500 193 500 c 29
 193 533 193 567 193 600 c 13
160 50 m 13
 160 67 160 83 160 100 c 5
 171 100 182 100 193 100 c 29
 193 83 193 67 193 50 c 5
 182 50 171 50 160 50 c 13
160 150 m 13
 160 167 160 183 160 200 c 5
 171 200 182 200 193 200 c 29
 193 183 193 167 193 150 c 5
 182 150 171 150 160 150 c 13
193 250 m 13
 193 267 193 283 193 300 c 5
 204 300 216 300 227 300 c 29
 227 283 227 267 227 250 c 5
 216 250 204 250 193 250 c 13
160 350 m 13
 160 367 160 383 160 400 c 5
 171 400 182 400 193 400 c 29
 193 383 193 367 193 350 c 5
 182 350 171 350 160 350 c 13
327 -100 m 13
 327 -83 327 -67 327 -50 c 29
 338 -50 349 -50 360 -50 c 29
 360 -67 360 -83 360 -100 c 29
 349 -100 338 -100 327 -100 c 13
393 -100 m 13
 393 -83 393 -67 393 -50 c 29
 404 -50 416 -50 427 -50 c 29
 427 -67 427 -83 427 -100 c 29
 416 -100 404 -100 393 -100 c 13
527 50 m 13
 527 67 527 83 527 100 c 29
 538 100 549 100 560 100 c 29
 560 83 560 67 560 50 c 29
 549 50 538 50 527 50 c 13
527 250 m 13
 527 267 527 283 527 300 c 29
 538 300 549 300 560 300 c 29
 560 283 560 267 560 250 c 29
 549 250 538 250 527 250 c 13
527 350 m 13
 527 367 527 383 527 400 c 29
 538 400 549 400 560 400 c 29
 560 383 560 367 560 350 c 29
 549 350 538 350 527 350 c 13
493 400 m 13
 493 433 493 467 493 500 c 29
 504 500 516 500 527 500 c 29
 527 467 527 433 527 400 c 29
 516 400 504 400 493 400 c 13
527 500 m 13
 527 533 527 567 527 600 c 29
 538 600 549 600 560 600 c 29
 560 567 560 533 560 500 c 29
 549 500 538 500 527 500 c 13
493 650 m 13
 493 667 493 683 493 700 c 29
 504 700 516 700 527 700 c 29
 527 683 527 667 527 650 c 29
 516 650 504 650 493 650 c 13
527 750 m 13
 527 767 527 783 527 800 c 29
 538 800 549 800 560 800 c 29
 560 783 560 767 560 750 c 29
 549 750 538 750 527 750 c 13
460 750 m 13
 460 767 460 783 460 800 c 29
 471 800 482 800 493 800 c 29
 493 783 493 767 493 750 c 29
 482 750 471 750 460 750 c 13
260 750 m 13
 260 767 260 783 260 800 c 5
 271 800 282 800 293 800 c 29
 293 783 293 767 293 750 c 5
 282 750 271 750 260 750 c 13
160 750 m 13
 160 767 160 783 160 800 c 5
 171 800 182 800 193 800 c 29
 193 783 193 767 193 750 c 5
 182 750 171 750 160 750 c 13
193 650 m 13
 193 667 193 683 193 700 c 5
 204 700 216 700 227 700 c 29
 227 683 227 667 227 650 c 5
 216 650 204 650 193 650 c 13
EndSplineSet
EndChar

StartChar: uni26C4
Encoding: 9924 9924 221
Width: 760
Flags: HW
HStem: -100 100<210 310 660 760> 100 100<260 310 660 710> 200 100<410 460 510 560> 400 100<260 310 410 460 510 560 660 710> 500 100<210 260 310 360 610 660 710 760> 600 200<410 560>
VStem: 210 50<500 600> 260 100<100 200> 260 50<400 500> 310 100<300 400 500 600> 360 100<400 500> 410 150<700 800> 510 100<400 500> 560 100<300 400 500 600> 610 100<100 200> 660 50<400 500> 710 50<500 600>
LayerCount: 2
Back
Fore
SplineSet
327 500 m 13
 338 500 349 500 360 500 c 29
 360 467 360 433 360 400 c 29
 349 400 338 400 327 400 c 29
 327 367 327 333 327 300 c 29
 338 300 349 300 360 300 c 29
 360 267 360 233 360 200 c 29
 338 200 315 200 293 200 c 29
 293 167 293 133 293 100 c 29
 349 100 404 100 460 100 c 29
 460 133 460 167 460 200 c 29
 438 200 415 200 393 200 c 29
 393 233 393 267 393 300 c 29
 404 300 416 300 427 300 c 29
 427 333 427 367 427 400 c 29
 416 400 404 400 393 400 c 29
 393 433 393 467 393 500 c 29
 404 500 416 500 427 500 c 29
 427 533 427 567 427 600 c 29
 394 600 360 600 327 600 c 29
 327 567 327 533 327 500 c 13
193 -100 m 13
 193 -67 193 -33 193 0 c 29
 215 0 238 0 260 0 c 29
 260 33 260 67 260 100 c 29
 249 100 238 100 227 100 c 29
 227 133 227 167 227 200 c 29
 238 200 249 200 260 200 c 29
 260 267 260 333 260 400 c 29
 271 400 282 400 293 400 c 29
 293 433 293 467 293 500 c 29
 282 500 271 500 260 500 c 29
 260 533 260 567 260 600 c 29
 271 600 282 600 293 600 c 29
 293 633 293 667 293 700 c 29
 304 700 316 700 327 700 c 29
 327 733 327 767 327 800 c 29
 360 800 394 800 427 800 c 29
 427 767 427 733 427 700 c 29
 438 700 449 700 460 700 c 29
 460 667 460 633 460 600 c 29
 471 600 482 600 493 600 c 29
 493 567 493 533 493 500 c 29
 482 500 471 500 460 500 c 29
 460 467 460 433 460 400 c 29
 471 400 482 400 493 400 c 29
 493 333 493 267 493 200 c 29
 504 200 516 200 527 200 c 5
 527 167 527 133 527 100 c 29
 516 100 504 100 493 100 c 5
 493 67 493 33 493 0 c 29
 515 0 538 0 560 0 c 29
 560 -33 560 -67 560 -100 c 29
 527 -100 493 -100 460 -100 c 29
 460 -67 460 -33 460 0 c 29
 404 0 349 0 293 0 c 29
 293 -33 293 -67 293 -100 c 29
 260 -100 226 -100 193 -100 c 13
227 500 m 13
 238 500 249 500 260 500 c 29
 260 467 260 433 260 400 c 29
 249 400 238 400 227 400 c 29
 227 433 227 467 227 500 c 13
193 600 m 13
 204 600 216 600 227 600 c 29
 227 567 227 533 227 500 c 29
 216 500 204 500 193 500 c 29
 193 533 193 567 193 600 c 13
493 400 m 13
 493 433 493 467 493 500 c 29
 504 500 516 500 527 500 c 29
 527 467 527 433 527 400 c 29
 516 400 504 400 493 400 c 13
527 500 m 13
 527 533 527 567 527 600 c 29
 538 600 549 600 560 600 c 29
 560 567 560 533 560 500 c 29
 549 500 538 500 527 500 c 13
EndSplineSet
EndChar

StartChar: uni2614
Encoding: 9748 9748 222
Width: 760
Flags: HW
HStem: -100 100<310 410> 0 100<210 260 660 710> 150 100<160 210 710 760> 250 100<260 310 610 660> 400 200<260 360 560 660> 400 100<160 260 660 760> 600 100<160 210 710 760> 700 100<260 310 610 660>
VStem: 160 50<150 250 600 700> 210 50<0 100> 260 50<250 350 700 800> 310 150<-100 0> 410 100<0 400> 610 50<250 350 700 800> 660 50<0 100> 710 50<150 250 600 700>
LayerCount: 2
Back
Fore
SplineSet
260 -100 m 13
 260 -67 260 -33 260 0 c 25
 282 0 305 0 327 0 c 25
 327 133 327 267 327 400 c 25
 271 400 216 400 160 400 c 25
 160 433 160 467 160 500 c 25
 182 500 205 500 227 500 c 25
 227 533 227 567 227 600 c 25
 249 600 271 600 293 600 c 25
 293 633 293 667 293 700 c 25
 337 700 383 700 427 700 c 25
 427 667 427 633 427 600 c 25
 449 600 471 600 493 600 c 25
 493 567 493 533 493 500 c 25
 515 500 538 500 560 500 c 25
 560 467 560 433 560 400 c 25
 504 400 449 400 393 400 c 25
 393 267 393 133 393 0 c 25
 382 0 371 0 360 0 c 25
 360 -33 360 -67 360 -100 c 25
 327 -100 293 -100 260 -100 c 13
193 0 m 1
 193 33 193 67 193 100 c 1
 204 100 216 100 227 100 c 1
 227 67 227 33 227 0 c 1
 216 0 204 0 193 0 c 1
493 0 m 1
 493 33 493 67 493 100 c 1
 504 100 516 100 527 100 c 1
 527 67 527 33 527 0 c 1
 516 0 504 0 493 0 c 1
160 150 m 1
 160 183 160 217 160 250 c 1
 171 250 182 250 193 250 c 1
 193 217 193 183 193 150 c 1
 182 150 171 150 160 150 c 1
227 250 m 1
 227 283 227 317 227 350 c 1
 238 350 249 350 260 350 c 1
 260 317 260 283 260 250 c 1
 249 250 238 250 227 250 c 1
527 150 m 1
 527 183 527 217 527 250 c 1
 538 250 549 250 560 250 c 1
 560 217 560 183 560 150 c 1
 549 150 538 150 527 150 c 1
460 250 m 1
 460 283 460 317 460 350 c 1
 471 350 482 350 493 350 c 1
 493 317 493 283 493 250 c 1
 482 250 471 250 460 250 c 1
527 600 m 1
 527 633 527 667 527 700 c 1
 538 700 549 700 560 700 c 1
 560 667 560 633 560 600 c 1
 549 600 538 600 527 600 c 1
160 600 m 1
 160 633 160 667 160 700 c 1
 171 700 182 700 193 700 c 1
 193 667 193 633 193 600 c 1
 182 600 171 600 160 600 c 1
460 700 m 1
 460 733 460 767 460 800 c 1
 471 800 482 800 493 800 c 1
 493 767 493 733 493 700 c 1
 482 700 471 700 460 700 c 1
227 700 m 1
 227 733 227 767 227 800 c 1
 238 800 249 800 260 800 c 1
 260 767 260 733 260 700 c 1
 249 700 238 700 227 700 c 1
EndSplineSet
EndChar

StartChar: uni2669
Encoding: 9833 9833 223
Width: 760
Flags: HW
HStem: 0 300<310 510> 100 100<260 310>
VStem: 510 100<300 800>
LayerCount: 2
Back
Fore
SplineSet
260 100 m 13
 249 100 238 100 227 100 c 25
 227 133 227 167 227 200 c 25
 238 200 249 200 260 200 c 25
 260 233 260 267 260 300 c 25
 304 300 349 300 393 300 c 25
 393 467 393 633 393 800 c 25
 415 800 438 800 460 800 c 25
 460 567 460 333 460 100 c 25
 449 100 438 100 427 100 c 25
 427 67 427 33 427 0 c 25
 371 0 316 0 260 0 c 25
 260 33 260 67 260 100 c 13
EndSplineSet
EndChar

StartChar: uni2757
Encoding: 10071 10071 225
Width: 760
Flags: HW
HStem: 0 100<410 510> 680 20G<410 510>
VStem: 410 100<0 100 200 700>
LayerCount: 2
Back
Fore
SplineSet
327 700 m 13
 349 700 371 700 393 700 c 25
 393 533 393 367 393 200 c 25
 371 200 349 200 327 200 c 25
 327 367 327 533 327 700 c 13
393 0 m 9
 371 0 349 0 327 0 c 1
 327 33 327 67 327 100 c 25
 349 100 371 100 393 100 c 1
 393 67 393 33 393 0 c 9
EndSplineSet
EndChar

StartChar: uni2753
Encoding: 10067 10067 226
Width: 760
Flags: HW
HStem: 0 100<460 560> 200 100<460 560> 300 100<560 610> 600 100<360 610>
VStem: 260 100<400 600> 460 100<0 100 200 300> 560 100<300 400> 610 100<400 600>
LayerCount: 2
Back
Fore
SplineSet
360 300 m 1
 382 300 405 300 427 300 c 1
 427 267 427 233 427 200 c 1
 405 200 382 200 360 200 c 1
 360 233 360 267 360 300 c 1
427 0 m 9
 405 0 382 0 360 0 c 1
 360 33 360 67 360 100 c 25
 382 100 405 100 427 100 c 1
 427 67 427 33 427 0 c 9
227 600 m 9
 238 600 249 600 260 600 c 25
 260 633 260 667 260 700 c 25
 338 700 415 700 493 700 c 25
 493 667 493 633 493 600 c 25
 504 600 516 600 527 600 c 25
 527 533 527 467 527 400 c 25
 516 400 504 400 493 400 c 25
 493 367 493 333 493 300 c 25
 471 300 449 300 427 300 c 25
 427 333 427 367 427 400 c 25
 438 400 449 400 460 400 c 25
 460 467 460 533 460 600 c 25
 404 600 349 600 293 600 c 25
 293 533 293 467 293 400 c 25
 271 400 249 400 227 400 c 25
 227 467 227 533 227 600 c 9
EndSplineSet
EndChar

StartChar: uni2795
Encoding: 10133 10133 227
Width: 760
Flags: HW
HStem: 250 100<260 410 510 660>
VStem: 410 100<50 250 350 550>
LayerCount: 2
Back
Fore
SplineSet
327 550 m 13
 349 550 371 550 393 550 c 25
 393 483 393 417 393 350 c 25
 426 350 460 350 493 350 c 25
 493 317 493 283 493 250 c 25
 460 250 426 250 393 250 c 25
 393 183 393 117 393 50 c 25
 371 50 349 50 327 50 c 25
 327 117 327 183 327 250 c 25
 294 250 260 250 227 250 c 25
 227 283 227 317 227 350 c 25
 260 350 294 350 327 350 c 25
 327 417 327 483 327 550 c 13
EndSplineSet
EndChar

StartChar: uni2796
Encoding: 10134 10134 228
Width: 760
Flags: HW
HStem: 250 100<260 660>
LayerCount: 2
Back
Fore
SplineSet
227 250 m 13
 227 283 227 317 227 350 c 25
 316 350 404 350 493 350 c 25
 493 317 493 283 493 250 c 25
 404 250 316 250 227 250 c 13
EndSplineSet
EndChar

StartChar: uni231A
Encoding: 8986 8986 229
Width: 1360
Flags: HW
HStem: -100 200<610 910> 0 100<560 610 910 960> 300 100<810 910> 480 20G<710 810> 600 200<610 910> 600 100<560 610 910 960>
VStem: 410 100<200 500> 460 100<100 200 500 600> 610 300<-100 0 700 800> 710 100<400 500> 960 100<100 200 500 600> 1010 100<200 500>
LayerCount: 2
Back
Fore
SplineSet
527 500 m 13
 549 500 571 500 593 500 c 25
 593 467 593 433 593 400 c 25
 615 400 638 400 660 400 c 25
 660 367 660 333 660 300 c 25
 616 300 571 300 527 300 c 25
 527 367 527 433 527 500 c 13
427 600 m 9
 427 567 427 533 427 500 c 25
 416 500 404 500 393 500 c 25
 393 400 393 300 393 200 c 25
 404 200 416 200 427 200 c 25
 427 167 427 133 427 100 c 25
 516 100 604 100 693 100 c 25
 693 133 693 167 693 200 c 25
 704 200 716 200 727 200 c 25
 727 300 727 400 727 500 c 25
 716 500 704 500 693 500 c 25
 693 533 693 567 693 600 c 25
 604 600 516 600 427 600 c 9
460 700 m 9
 460 733 460 767 460 800 c 25
 527 800 593 800 660 800 c 25
 660 767 660 733 660 700 c 25
 682 700 705 700 727 700 c 25
 727 667 727 633 727 600 c 25
 738 600 749 600 760 600 c 25
 760 567 760 533 760 500 c 25
 771 500 782 500 793 500 c 25
 793 400 793 300 793 200 c 25
 782 200 771 200 760 200 c 25
 760 167 760 133 760 100 c 25
 749 100 738 100 727 100 c 25
 727 67 727 33 727 0 c 25
 705 0 682 0 660 0 c 25
 660 -33 660 -67 660 -100 c 25
 593 -100 527 -100 460 -100 c 25
 460 -67 460 -33 460 0 c 25
 438 0 415 0 393 0 c 25
 393 33 393 67 393 100 c 25
 382 100 371 100 360 100 c 25
 360 133 360 167 360 200 c 25
 349 200 338 200 327 200 c 25
 327 300 327 400 327 500 c 25
 338 500 349 500 360 500 c 25
 360 533 360 567 360 600 c 25
 371 600 382 600 393 600 c 25
 393 633 393 667 393 700 c 25
 415 700 438 700 460 700 c 9
EndSplineSet
EndChar

StartChar: uni2797
Encoding: 10135 10135 230
Width: 760
Flags: HW
HStem: 0 100<210 310 610 710> 200 100<410 510> 400 100<210 310 610 710>
VStem: 210 150<0 100 400 500> 310 100<100 200 300 400> 510 100<100 200 300 400> 560 150<0 100 400 500>
LayerCount: 2
Back
Fore
SplineSet
193 500 m 13
 226 500 260 500 293 500 c 25
 293 467 293 433 293 400 c 25
 304 400 316 400 327 400 c 25
 327 367 327 333 327 300 c 25
 349 300 371 300 393 300 c 25
 393 333 393 367 393 400 c 25
 404 400 416 400 427 400 c 25
 427 433 427 467 427 500 c 25
 460 500 494 500 527 500 c 25
 527 467 527 433 527 400 c 25
 505 400 482 400 460 400 c 25
 460 367 460 333 460 300 c 25
 449 300 438 300 427 300 c 25
 427 267 427 233 427 200 c 25
 438 200 449 200 460 200 c 25
 460 167 460 133 460 100 c 25
 482 100 505 100 527 100 c 25
 527 67 527 33 527 0 c 25
 494 0 460 0 427 0 c 25
 427 33 427 67 427 100 c 25
 416 100 404 100 393 100 c 25
 393 133 393 167 393 200 c 25
 371 200 349 200 327 200 c 25
 327 167 327 133 327 100 c 25
 316 100 304 100 293 100 c 25
 293 67 293 33 293 0 c 25
 260 0 226 0 193 0 c 25
 193 33 193 67 193 100 c 25
 215 100 238 100 260 100 c 25
 260 133 260 167 260 200 c 25
 271 200 282 200 293 200 c 25
 293 233 293 267 293 300 c 25
 282 300 271 300 260 300 c 25
 260 333 260 367 260 400 c 25
 238 400 215 400 193 400 c 25
 193 433 193 467 193 500 c 13
EndSplineSet
EndChar

StartChar: uni25B6
Encoding: 9654 9654 231
Width: 760
Flags: HMW
LayerCount: 2
Back
Fore
SplineSet
227 0 m 13
 227 233 227 467 227 700 c 25
 260 700 294 700 327 700 c 25
 327 667 327 633 327 600 c 25
 349 600 371 600 393 600 c 25
 393 567 393 533 393 500 c 25
 415 500 438 500 460 500 c 25
 460 467 460 433 460 400 c 25
 482 400 505 400 527 400 c 25
 527 367 527 333 527 300 c 25
 505 300 482 300 460 300 c 25
 460 267 460 233 460 200 c 25
 438 200 415 200 393 200 c 25
 393 167 393 133 393 100 c 25
 371 100 349 100 327 100 c 25
 327 67 327 33 327 0 c 25
 294 0 260 0 227 0 c 13
EndSplineSet
EndChar

StartChar: uni25C0
Encoding: 9664 9664 232
Width: 760
Flags: HMW
LayerCount: 2
Back
Fore
SplineSet
427 0 m 13
 427 33 427 67 427 100 c 25
 405 100 382 100 360 100 c 25
 360 133 360 167 360 200 c 25
 338 200 315 200 293 200 c 25
 293 233 293 267 293 300 c 25
 271 300 249 300 227 300 c 25
 227 333 227 367 227 400 c 25
 249 400 271 400 293 400 c 25
 293 433 293 467 293 500 c 25
 315 500 338 500 360 500 c 25
 360 533 360 567 360 600 c 25
 382 600 405 600 427 600 c 25
 427 633 427 667 427 700 c 25
 460 700 494 700 527 700 c 25
 527 467 527 233 527 0 c 25
 494 0 460 0 427 0 c 13
EndSplineSet
EndChar

StartChar: H18543
Encoding: 9642 9642 233
Width: 760
Flags: HMW
LayerCount: 2
Back
Fore
SplineSet
260 100 m 13
 260 200 260 300 260 400 c 25
 316 400 371 400 427 400 c 25
 427 300 427 200 427 100 c 25
 371 100 316 100 260 100 c 13
EndSplineSet
EndChar

StartChar: triagup
Encoding: 9650 9650 234
Width: 760
Flags: HMW
LayerCount: 2
Back
Fore
SplineSet
193 100 m 13
 193 133 193 167 193 200 c 29
 204 200 216 200 227 200 c 29
 227 233 227 267 227 300 c 29
 238 300 249 300 260 300 c 29
 260 333 260 367 260 400 c 29
 271 400 282 400 293 400 c 29
 293 433 293 467 293 500 c 29
 304 500 316 500 327 500 c 29
 327 533 327 567 327 600 c 29
 349 600 371 600 393 600 c 29
 393 567 393 533 393 500 c 29
 404 500 416 500 427 500 c 29
 427 467 427 433 427 400 c 29
 438 400 449 400 460 400 c 29
 460 367 460 333 460 300 c 29
 471 300 482 300 493 300 c 29
 493 267 493 233 493 200 c 29
 504 200 516 200 527 200 c 29
 527 167 527 133 527 100 c 29
 416 100 304 100 193 100 c 13
EndSplineSet
EndChar

StartChar: triagdn
Encoding: 9660 9660 235
Width: 760
Flags: HMW
LayerCount: 2
Back
Fore
SplineSet
193 500 m 13
 193 533 193 567 193 600 c 25
 304 600 416 600 527 600 c 25
 527 567 527 533 527 500 c 25
 516 500 504 500 493 500 c 25
 493 467 493 433 493 400 c 25
 482 400 471 400 460 400 c 25
 460 367 460 333 460 300 c 25
 449 300 438 300 427 300 c 25
 427 267 427 233 427 200 c 25
 416 200 404 200 393 200 c 25
 393 167 393 133 393 100 c 25
 371 100 349 100 327 100 c 25
 327 133 327 167 327 200 c 25
 316 200 304 200 293 200 c 25
 293 233 293 267 293 300 c 25
 282 300 271 300 260 300 c 25
 260 333 260 367 260 400 c 25
 249 400 238 400 227 400 c 25
 227 433 227 467 227 500 c 25
 216 500 204 500 193 500 c 13
EndSplineSet
EndChar

StartChar: H18551
Encoding: 9643 9643 236
Width: 760
Flags: HW
HStem: 100 100<360 510> 300 100<360 510>
VStem: 310 50<200 300> 510 50<200 300>
LayerCount: 2
Back
Fore
SplineSet
293 200 m 13
 326 200 360 200 393 200 c 25
 393 233 393 267 393 300 c 25
 360 300 326 300 293 300 c 25
 293 267 293 233 293 200 c 13
260 100 m 9
 260 200 260 300 260 400 c 25
 316 400 371 400 427 400 c 25
 427 300 427 200 427 100 c 25
 371 100 316 100 260 100 c 9
EndSplineSet
EndChar

StartChar: uni231B
Encoding: 8987 8987 237
Width: 1360
Flags: HWO
HStem: -100 300<510 560 710 860 1010 1060> -100 200<610 710 860 960> -100 100<460 510 1060 1110> 200 100<610 660 910 960> 400 100<610 660 910 960> 600 200<610 960> 700 100<460 510 1060 1110>
VStem: 510 100<100 200 500 600> 560 150<200 300> 860 150<200 300> 960 100<100 200 500 600>
LayerCount: 2
Back
Fore
SplineSet
627 100 m 13
 649 100 671 100 693 100 c 25
 693 133 693 167 693 200 c 25
 671 200 649 200 627 200 c 25
 627 167 627 133 627 100 c 13
527 300 m 9
 527 267 527 233 527 200 c 25
 560 200 594 200 627 200 c 25
 627 233 627 267 627 300 c 25
 594 300 560 300 527 300 c 9
460 100 m 9
 482 100 505 100 527 100 c 25
 527 133 527 167 527 200 c 25
 505 200 482 200 460 200 c 25
 460 167 460 133 460 100 c 9
560 400 m 9
 571 400 582 400 593 400 c 25
 593 433 593 467 593 500 c 25
 626 500 660 500 693 500 c 25
 693 533 693 567 693 600 c 25
 615 600 538 600 460 600 c 25
 460 567 460 533 460 500 c 25
 493 500 527 500 560 500 c 25
 560 467 560 433 560 400 c 9
360 -100 m 9
 360 -67 360 -33 360 0 c 25
 371 0 382 0 393 0 c 25
 393 67 393 133 393 200 c 25
 404 200 416 200 427 200 c 25
 427 233 427 267 427 300 c 25
 449 300 471 300 493 300 c 25
 493 333 493 367 493 400 c 25
 471 400 449 400 427 400 c 25
 427 433 427 467 427 500 c 25
 416 500 404 500 393 500 c 25
 393 567 393 633 393 700 c 25
 382 700 371 700 360 700 c 25
 360 733 360 767 360 800 c 25
 504 800 649 800 793 800 c 25
 793 767 793 733 793 700 c 25
 782 700 771 700 760 700 c 25
 760 633 760 567 760 500 c 25
 749 500 738 500 727 500 c 25
 727 467 727 433 727 400 c 25
 705 400 682 400 660 400 c 25
 660 367 660 333 660 300 c 25
 682 300 705 300 727 300 c 25
 727 267 727 233 727 200 c 25
 738 200 749 200 760 200 c 25
 760 133 760 67 760 0 c 25
 771 0 782 0 793 0 c 25
 793 -33 793 -67 793 -100 c 25
 649 -100 504 -100 360 -100 c 9
EndSplineSet
EndChar

